<svg xmlns="http://www.w3.org/2000/svg" width="43.585" height="43.585" viewBox="0 0 43.585 43.585">
  <g id="add" transform="translate(0.506 0.507)">
    <circle id="Elipse_2" data-name="Elipse 2" cx="20.457" cy="20.457" r="20.457" transform="translate(0.833 0.82)" fill="#a5eb78"/>
    <path id="Trazado_505" data-name="Trazado 505" d="M149.961,139.65h-4.99v-4.99A2.661,2.661,0,0,0,142.31,132h0a2.661,2.661,0,0,0-2.661,2.661v4.99h-4.99A2.661,2.661,0,0,0,132,142.311h0a2.661,2.661,0,0,0,2.661,2.661h4.99v4.99a2.661,2.661,0,0,0,2.661,2.661h0a2.661,2.661,0,0,0,2.661-2.661v-4.99h4.99a2.661,2.661,0,0,0,2.661-2.661h0A2.661,2.661,0,0,0,149.961,139.65Z" transform="translate(-121.02 -121.022)" fill="#fff"/>
    <path id="Trazado_506" data-name="Trazado 506" d="M21.29,42.578A21.292,21.292,0,0,1,3.98,8.89a.832.832,0,1,1,1.351.97A19.627,19.627,0,0,0,35.167,35.167,19.628,19.628,0,0,0,9.934,5.278.832.832,0,0,1,8.97,3.923,21.291,21.291,0,1,1,21.29,42.578Z" transform="translate(0 0)" fill="#292929" stroke="#292929" stroke-width="1"/>
    <path id="Trazado_507" data-name="Trazado 507" d="M72.785,73.635a.832.832,0,0,1-.587-1.421l.016-.016a.832.832,0,1,1,1.173,1.179l-.016.016A.829.829,0,0,1,72.785,73.635Z" transform="translate(-65.969 -65.972)" fill="#292929"/>
    <path id="Trazado_508" data-name="Trazado 508" d="M133.141,144.286a3.5,3.5,0,0,1-3.493-3.493v-4.158h-4.158a3.493,3.493,0,0,1,0-6.985h4.158v-4.158a3.493,3.493,0,1,1,6.985,0v4.158h4.158a3.493,3.493,0,1,1,0,6.985h-4.158v4.158A3.5,3.5,0,0,1,133.141,144.286Zm-7.651-12.973a1.83,1.83,0,1,0,0,3.659h4.99a.832.832,0,0,1,.832.832v4.99a1.83,1.83,0,0,0,3.659,0V135.8a.832.832,0,0,1,.832-.832h4.99a1.83,1.83,0,1,0,0-3.659H135.8a.832.832,0,0,1-.832-.832v-4.99a1.83,1.83,0,1,0-3.659,0v4.99a.832.832,0,0,1-.832.832Z" transform="translate(-111.852 -111.853)" fill="#292929" stroke="#292929" stroke-width="1"/>
    <path id="Trazado_509" data-name="Trazado 509" d="M69.223,301.772A17.3,17.3,0,0,1,52.3,288.063a.832.832,0,0,1,1.628-.343,15.7,15.7,0,0,0,15.3,12.389.832.832,0,1,1,0,1.663Z" transform="translate(-47.933 -263.187)" fill="#292929" stroke="#292929" stroke-width="1"/>
    <path id="Trazado_510" data-name="Trazado 510" d="M48.851,247.549a.843.843,0,0,1-.005-1.686h.005a.829.829,0,0,1,.831.836v.007a.829.829,0,0,1-.83.843Z" transform="translate(-44.026 -225.417)" fill="#292929" stroke="#292929" stroke-width="1"/>
  </g>
</svg>
