<svg xmlns="http://www.w3.org/2000/svg" width="39.429" height="37.419" viewBox="0 0 39.429 37.419">
  <g id="cartas_bn" transform="translate(0.504 -12.997)">
    <g id="Grupo_1175" data-name="Grupo 1175" transform="translate(0.565 14.082)">
      <path id="Trazado_532" data-name="Trazado 532" d="M31.092,48.018a.75.75,0,0,1-.617.881l-17.22,2.8a.959.959,0,0,1-1.107-.771L7.551,25.05a.954.954,0,0,1,.776-1.1l16.649-2.914a.959.959,0,0,1,1.107.771Z" transform="translate(-7.537 -21.02)" fill="#efedef"/>
      <path id="Trazado_533" data-name="Trazado 533" d="M124.453,68.666l-15.316,2.49,1.545-4.01L117.863,48.5l2.354-6.111,4.852,25.395A.751.751,0,0,1,124.453,68.666Z" transform="translate(-101.514 -40.787)" fill="#e3e0e4"/>
      <path id="Trazado_534" data-name="Trazado 534" d="M74.862,94.542a.75.75,0,0,1-.609.876L63.558,97.274a.666.666,0,0,1-.728-.589L59.456,77.453a.668.668,0,0,1,.482-.8l10.691-1.9a.666.666,0,0,1,.728.589L72.4,81.3Z" transform="translate(-55.549 -70.713)" fill="#f3f3e6"/>
      <path id="Trazado_535" data-name="Trazado 535" d="M139.262,140.83l-9.535,1.655,7.181-18.646.5,2.872,2.46,13.242A.751.751,0,0,1,139.262,140.83Z" transform="translate(-120.559 -116.125)" fill="#f3f3e6"/>
      <path id="Trazado_536" data-name="Trazado 536" d="M158.662,90.954,142.879,84.94a.951.951,0,0,1-.55-1.229l9.487-24.533a.961.961,0,0,1,1.235-.547l15.783,6.014a.951.951,0,0,1,.55,1.229L159.9,90.407A.961.961,0,0,1,158.662,90.954Z" transform="translate(-132.156 -55.751)" fill="#f9f8f9"/>
      <path id="Trazado_537" data-name="Trazado 537" d="M153.964,58.977,143.807,85.291l-.927-.353a.952.952,0,0,1-.551-1.228l9.487-24.533a.962.962,0,0,1,1.235-.547Z" transform="translate(-132.157 -55.749)" fill="#efedef"/>
      <path id="Trazado_538" data-name="Trazado 538" d="M253.809,195.81a3.379,3.379,0,0,1,2.663-.1,3.672,3.672,0,0,1,2.108,2.422,3.945,3.945,0,0,1,3.465-.246,3.365,3.365,0,0,1,1.731,1.8,3.86,3.86,0,0,1-.317,2.986c-1.591,3.436-7.328,3.614-8,3.628-.388-.367-4.4-4.263-3.4-7.934A3.827,3.827,0,0,1,253.809,195.81Z" transform="translate(-233.564 -182.388)" fill="#f3f3e6"/>
      <path id="Trazado_539" data-name="Trazado 539" d="M257.442,206.929a15.777,15.777,0,0,1-1.98.177c-.388-.367-4.4-4.263-3.4-7.934a3.826,3.826,0,0,1,1.749-2.555,2.839,2.839,0,0,1,.752-.267,7.286,7.286,0,0,0-.545,1.485c-.985,3.614,1.9,7.4,3.428,9.094Z" transform="translate(-233.564 -183.195)" fill="#f3f3e6"/>
    </g>
    <g id="Grupo_1176" data-name="Grupo 1176" transform="translate(0 13.519)">
      <path id="Trazado_540" data-name="Trazado 540" d="M38.288,23.25a1.506,1.506,0,0,0-.845-.8L21.66,16.436a1.526,1.526,0,0,0-1.633.36l-.36-2.028a1.521,1.521,0,0,0-1.759-1.227l-10.875,1.9a.563.563,0,0,0,.194,1.109L18.1,14.65a.4.4,0,0,1,.456.315l.644,3.626-1.568,4.054-.708-4.033a1.232,1.232,0,0,0-1.38-1.045l-10.691,1.9a1.228,1.228,0,0,0-.938,1.454L7.293,40.152A1.232,1.232,0,0,0,8.673,41.2l1.92-.341-.38.982a1.513,1.513,0,0,0,.337,1.605l-4.362.764a.4.4,0,0,1-.456-.315l-4.6-25.879a.393.393,0,0,1,.319-.449l3.074-.538a.563.563,0,0,0-.194-1.109l-3.074.538A1.524,1.524,0,0,0,.026,18.21l4.6,25.879a1.523,1.523,0,0,0,1.759,1.227l5.959-1.043L26.871,49.81a1.525,1.525,0,0,0,1.96-.869l7.686-19.875a.563.563,0,0,0-1.05-.406L27.781,48.535a.4.4,0,0,1-.51.224L11.488,42.744a.39.39,0,0,1-.226-.5l.719-1.858a.562.562,0,0,0,.045-.117l3.288-8.5a.563.563,0,1,0-1.05-.406l-3.2,8.268-2.585.459a.179.179,0,0,1-.081-.131L5.026,20.725a.179.179,0,0,1,.032-.152l10.68-1.9a.179.179,0,0,1,.081.131l1.03,5.871-1.6,4.133a.563.563,0,0,0,1.05.406l3.946-10.2a.562.562,0,0,0,.1-.266l.4-1.035a.4.4,0,0,1,.51-.224L37.042,23.5a.391.391,0,0,1,.226.5l-.815,2.108a.563.563,0,0,0,1.05.406l.815-2.108a1.5,1.5,0,0,0-.03-1.157Z" transform="translate(0 -13.519)" fill="#818181" stroke="#818181" stroke-width="1"/>
      <path id="Trazado_541" data-name="Trazado 541" d="M255.363,190.418a4.272,4.272,0,0,0-3.384-.018,4.054,4.054,0,0,0-2.223-2.172,3.912,3.912,0,0,0-3.126.13h0a4.355,4.355,0,0,0-2.032,2.906c-1.079,3.957,3.082,8.039,3.559,8.491a.563.563,0,0,0,.387.154h.012c1.124-.024,6.815-.326,8.495-3.954a4.428,4.428,0,0,0,.334-3.419A3.927,3.927,0,0,0,255.363,190.418Zm.667,5.063c-1.316,2.841-6.044,3.239-7.265,3.294-.839-.836-3.913-4.162-3.081-7.216a3.3,3.3,0,0,1,1.467-2.2,2.817,2.817,0,0,1,2.2-.077,3.1,3.1,0,0,1,1.766,2.037.567.567,0,0,0,.83.345,3.377,3.377,0,0,1,2.944-.22,2.791,2.791,0,0,1,1.44,1.489A3.3,3.3,0,0,1,256.029,195.481Z" transform="translate(-226.08 -174.871)" fill="#818181" stroke="#818181" stroke-width="1"/>
    </g>
  </g>
</svg>
