<svg xmlns="http://www.w3.org/2000/svg" width="43.741" height="41.485" viewBox="0 0 43.741 41.485">
  <g id="cartas" transform="translate(0.5 -13.019)">
    <g id="Grupo_1175" data-name="Grupo 1175" transform="translate(0.629 14.145)">
      <path id="Trazado_532" data-name="Trazado 532" d="M33.742,51.055a.835.835,0,0,1-.686.981L13.9,55.151a1.066,1.066,0,0,1-1.232-.858L7.553,25.5a1.061,1.061,0,0,1,.863-1.225l18.522-3.242a1.066,1.066,0,0,1,1.232.858Z" transform="translate(-7.537 -21.02)" fill="#efedef"/>
      <path id="Trazado_533" data-name="Trazado 533" d="M126.175,71.622l-17.038,2.77,1.719-4.461,7.989-20.743,2.619-6.8,5.4,28.251A.836.836,0,0,1,126.175,71.622Z" transform="translate(-100.656 -40.606)" fill="#e3e0e4"/>
      <path id="Trazado_534" data-name="Trazado 534" d="M76.6,96.769a.835.835,0,0,1-.678.975l-11.9,2.065a.741.741,0,0,1-.809-.655l-3.755-21.4a.743.743,0,0,1,.537-.892l11.894-2.113a.741.741,0,0,1,.809.655l1.163,6.629Z" transform="translate(-55.111 -70.259)" fill="#ee4266"/>
      <path id="Trazado_535" data-name="Trazado 535" d="M140.335,142.741l-10.608,1.841,7.989-20.743.561,3.2,2.736,14.731A.835.835,0,0,1,140.335,142.741Z" transform="translate(-119.528 -115.257)" fill="#ee4266"/>
      <path id="Trazado_536" data-name="Trazado 536" d="M160.506,94.6l-17.559-6.691a1.058,1.058,0,0,1-.612-1.367L152.89,59.246a1.069,1.069,0,0,1,1.374-.608l17.559,6.691a1.058,1.058,0,0,1,.612,1.367L161.88,93.989A1.069,1.069,0,0,1,160.506,94.6Z" transform="translate(-131.019 -55.434)" fill="#f9f8f9"/>
      <path id="Trazado_537" data-name="Trazado 537" d="M155.28,59.023,143.981,88.3l-1.032-.393a1.059,1.059,0,0,1-.613-1.366L152.89,59.245a1.07,1.07,0,0,1,1.374-.609Z" transform="translate(-131.02 -55.432)" fill="#efedef"/>
      <path id="Trazado_538" data-name="Trazado 538" d="M254.023,195.848a3.759,3.759,0,0,1,2.963-.115,4.085,4.085,0,0,1,2.345,2.695,4.389,4.389,0,0,1,3.855-.274,3.744,3.744,0,0,1,1.926,2.006,4.294,4.294,0,0,1-.353,3.322c-1.77,3.822-8.152,4.02-8.9,4.036-.431-.408-4.9-4.743-3.786-8.827A4.258,4.258,0,0,1,254.023,195.848Z" transform="translate(-231.502 -180.916)" fill="#ee4266"/>
      <path id="Trazado_539" data-name="Trazado 539" d="M258.066,208.119a17.549,17.549,0,0,1-2.2.2c-.432-.408-4.9-4.742-3.786-8.826a4.256,4.256,0,0,1,1.946-2.842,3.159,3.159,0,0,1,.836-.3,8.106,8.106,0,0,0-.607,1.652c-1.1,4.021,2.113,8.234,3.814,10.117Z" transform="translate(-231.501 -181.715)" fill="#ee4266"/>
    </g>
    <g id="Grupo_1176" data-name="Grupo 1176" transform="translate(0 13.519)">
      <g id="Trazado_540" data-name="Trazado 540" transform="translate(0 -13.519)" fill="#292929">
        <path d="M 30.48940849304199 54.25357437133789 C 30.25244903564453 54.25357437133789 30.02132987976074 54.21037673950195 29.80245018005371 54.12516403198242 L 13.70318698883057 47.99072265625 L 7.142189502716064 49.13912582397461 C 7.033019542694092 49.15905380249023 6.91948938369751 49.16932678222656 6.806529521942139 49.16932678222656 C 5.874319553375244 49.16932678222656 5.053129196166992 48.48196411132813 4.896369457244873 47.57046508789063 L -0.217093214392662 18.7838077545166 C -0.3133063912391663 18.29653930664063 -0.1957307755947113 17.77055358886719 0.1056993380188942 17.34027481079102 C 0.408598005771637 16.90791702270508 0.8654578328132629 16.61626052856445 1.359530568122864 16.53971290588379 L 4.776679515838623 15.94153499603271 C 4.826749324798584 15.9328145980835 4.877579212188721 15.92840480804443 4.927929401397705 15.92840480804443 C 5.35431957244873 15.92840480804443 5.717149257659912 16.23333549499512 5.790679454803467 16.65345573425293 C 5.831009387969971 16.88395500183105 5.779189109802246 17.11636543273926 5.644749164581299 17.30787467956543 C 5.510289192199707 17.49941444396973 5.309279441833496 17.62711524963379 5.078749179840088 17.66744422912598 L 1.659229278564453 18.26602554321289 L 1.656409382820129 18.26651573181152 L 1.653579354286194 18.26694488525391 C 1.611069321632385 18.27338409423828 1.568159341812134 18.30219459533691 1.538809299468994 18.34401512145996 C 1.510469317436218 18.3844051361084 1.498739361763 18.43034553527832 1.506639361381531 18.47005462646484 L 1.507149338722229 18.47258567810059 L 1.507599353790283 18.47512435913086 L 6.621699333190918 47.2655143737793 C 6.636699199676514 47.34981536865234 6.719349384307861 47.4159049987793 6.809839248657227 47.4158935546875 C 6.820109367370605 47.4158935546875 6.830429553985596 47.41500473022461 6.840519428253174 47.41325378417969 L 11.28195953369141 46.6358642578125 C 10.9715051651001 46.12920379638672 10.90563869476318 45.48881912231445 11.12960910797119 44.93102645874023 L 11.39100456237793 44.25502777099609 L 9.692309379577637 44.55671310424805 C 9.608718872070313 44.57275390625 9.519869804382324 44.58119583129883 9.431549072265625 44.58119583129883 C 8.675979614257813 44.58119583129883 7.988359451293945 43.96841430664063 7.866119384765625 43.1861457824707 L 4.112289428710938 21.79510498046875 C 3.954119443893433 20.89422416687012 4.513129234313965 20.03901481628418 5.358419418334961 19.88872528076172 L 17.25218963623047 17.77611541748047 C 17.3355598449707 17.76003456115723 17.42447853088379 17.75154495239258 17.51290893554688 17.75154495239258 C 18.26936912536621 17.75154495239258 18.95702934265137 18.36447525024414 19.07843017578125 19.1469554901123 L 19.70953750610352 22.74315643310547 L 21.10415840148926 19.13664054870605 L 20.39984893798828 15.17174530029297 C 20.38488006591797 15.08741474151611 20.30221939086914 15.02135467529297 20.21167945861816 15.02135467529297 C 20.20143890380859 15.02135467529297 20.19113922119141 15.02224445343018 20.18107986450195 15.02399444580078 L 8.08367919921875 17.1414852142334 C 8.033529281616211 17.15021514892578 7.982639312744141 17.15463447570801 7.932229518890381 17.15463447570801 C 7.505979537963867 17.15463447570801 7.143229484558105 16.84969520568848 7.069699287414551 16.4295539855957 C 7.029369354248047 16.19905471801758 7.081209182739258 15.96664524078369 7.21566915512085 15.77512454986572 C 7.350139141082764 15.58360481262207 7.551129341125488 15.45591449737549 7.781619548797607 15.41557502746582 L 19.87936019897461 13.29804515838623 C 19.99028968811035 13.27865505218506 20.10322952270508 13.26883506774902 20.21508979797363 13.26883506774902 C 21.15740013122559 13.26883506774902 21.96060943603516 13.94026470184326 22.12494850158691 14.8653450012207 L 22.45199584960938 16.70637321472168 C 22.76197242736816 16.51063346862793 23.12527465820313 16.4029541015625 23.4953498840332 16.4029541015625 C 23.73145866394043 16.4029541015625 23.9636287689209 16.44584465026855 24.18540954589844 16.53041458129883 L 41.74377059936523 23.22086524963379 C 42.22847747802734 23.40557479858398 42.61180114746094 23.76860427856445 42.8231086730957 24.24309539794922 C 43.03363037109375 24.71588516235352 43.04716873168945 25.24117469787598 42.86122894287109 25.72223472595215 L 41.95452880859375 28.06693458557129 C 41.82497024536133 28.40192413330078 41.49646759033203 28.62699508666992 41.13708877563477 28.62699508666992 C 41.02915954589844 28.62699508666992 40.92305755615234 28.60718536376953 40.82173919677734 28.568115234375 C 40.60326766967773 28.4836254119873 40.43095016479492 28.31928443908691 40.33630752563477 28.10529518127441 C 40.24164962768555 27.89128494262695 40.23600769042969 27.65323448181152 40.32040786743164 27.43499565124512 L 41.22708892822266 25.09034538269043 L 41.22801971435547 25.08794403076172 L 41.22898864746094 25.0855655670166 C 41.24438095092773 25.0480842590332 41.24174880981445 25.00090408325195 41.22175979614258 24.95613479614258 C 41.20127105712891 24.91023445129395 41.16519927978516 24.87435531616211 41.12525939941406 24.86015510559082 L 41.12260818481445 24.85921478271484 L 41.11997985839844 24.85820579528809 L 23.56147956848145 18.16763496398926 C 23.5408992767334 18.15977478027344 23.51920890808105 18.15582466125488 23.49681854248047 18.15582466125488 C 23.41741943359375 18.15582466125488 23.34336853027344 18.20394515991211 23.31674957275391 18.27282524108887 L 22.88229942321777 19.39632606506348 C 22.86307716369629 19.52159118652344 22.81657409667969 19.64182281494141 22.74641227722168 19.74767684936523 L 18.3673095703125 31.07202529907227 C 18.2393684387207 31.40679550170898 17.91005897521973 31.6323356628418 17.5482292175293 31.6323356628418 C 17.43949890136719 31.6323356628418 17.33333969116211 31.61220550537109 17.23270988464355 31.57249450683594 C 17.01604843139648 31.48871421813965 16.8437385559082 31.32438468933105 16.74909019470215 31.11038398742676 C 16.65443992614746 30.89637565612793 16.64879989624023 30.6583251953125 16.73320007324219 30.44008445739746 L 18.4859790802002 25.90739822387695 L 17.36777114868164 19.53521537780762 L 5.853633403778076 21.58034515380859 L 9.576737403869629 42.79760360717773 L 12.12990379333496 42.34413146972656 L 15.6357889175415 33.27799606323242 C 15.76539897918701 32.94291305541992 16.09383964538574 32.71780395507813 16.45306015014648 32.71780395507813 C 16.56110000610352 32.71780395507813 16.66730880737305 32.73767471313477 16.76873970031738 32.77686309814453 C 16.9870491027832 32.86129379272461 17.15935897827148 33.025634765625 17.25400924682617 33.2396354675293 C 17.34865951538086 33.45364379882813 17.35429954528809 33.69168472290039 17.26989936828613 33.9099235534668 L 13.61691856384277 43.35642623901367 C 13.60196781158447 43.40944290161133 13.58200836181641 43.4610595703125 13.55743885040283 43.51025390625 L 12.76255893707275 45.56584548950195 L 12.76160907745361 45.56829452514648 L 12.76060962677002 45.57073593139648 C 12.74521923065186 45.60817337036133 12.7478494644165 45.65533447265625 12.7678394317627 45.70011520385742 C 12.78830909729004 45.74600601196289 12.82433891296387 45.78184509277344 12.86421966552734 45.79600524902344 L 12.86690902709961 45.79696655273438 L 12.86957931518555 45.7979850769043 L 30.42807960510254 52.48855590820313 C 30.44883918762207 52.49650573730469 30.47049903869629 52.50045394897461 30.49283027648926 52.50045394897461 C 30.5721492767334 52.50044631958008 30.64616012573242 52.45228576660156 30.67282867431641 52.38333511352539 L 39.22290802001953 30.27299499511719 C 39.35240936279297 29.93791580200195 39.68082046508789 29.71275520324707 40.04008865356445 29.71275520324707 C 40.14818954467773 29.71275520324707 40.25444793701172 29.7326545715332 40.35593032836914 29.77188491821289 C 40.80648040771484 29.94614410400391 41.03126907348633 30.45441436767578 40.85702896118164 30.9049243927002 L 32.30696105957031 53.01525497436523 C 32.02408981323242 53.75555419921875 31.29351997375488 54.25357437133789 30.48940849304199 54.25357437133789 Z" stroke="none"/>
        <path d="M 20.21508979797363 13.51883316040039 C 20.1185359954834 13.51883316040039 20.02073669433594 13.52712631225586 19.92245864868164 13.54430389404297 L 7.824718475341797 15.66183471679688 C 7.484149932861328 15.721435546875 7.256359100341797 16.04589462280273 7.315959930419922 16.38645553588867 C 7.369182586669922 16.69054794311523 7.633625030517578 16.90463256835938 7.932228088378906 16.90463256835938 C 7.967960357666016 16.90463256835938 8.004173278808594 16.90156936645508 8.040580749511719 16.89522552490234 L 20.13823890686035 14.77769470214844 C 20.16279983520508 14.77342224121094 20.1873779296875 14.7713623046875 20.2116813659668 14.77135848999023 C 20.41915893554688 14.77134323120117 20.60930824279785 14.92142486572266 20.64599990844727 15.12802505493164 L 21.36252021789551 19.16166305541992 L 19.61861991882324 23.67142486572266 L 18.83138847351074 19.18528366088867 C 18.7309398651123 18.53786849975586 18.15409278869629 18.00153732299805 17.51292610168457 18.00153732299805 C 17.4411735534668 18.00153732299805 17.36869812011719 18.00824356079102 17.2959098815918 18.02226638793945 L 5.402179718017578 20.13486480712891 C 4.692329406738281 20.26107406616211 4.224140167236328 20.98645401000977 4.3585205078125 21.75189590454102 L 8.113109588623047 43.14754486083984 C 8.214332580566406 43.79524612426758 8.789363861083984 44.33119201660156 9.431545257568359 44.33119201660156 C 9.503269195556641 44.33119201660156 9.575756072998047 44.32452011108398 9.648590087890625 44.31056213378906 L 11.78422927856445 43.9312744140625 L 11.36160850524902 45.02416229248047 C 11.11978912353516 45.62642669677734 11.27647018432617 46.35447692871094 11.73623847961426 46.81014251708984 L 6.883319854736328 47.65956497192383 C 6.858741760253906 47.66383361816406 6.834163665771484 47.66589736938477 6.809852600097656 47.66589736938477 C 6.602291107177734 47.66589736938477 6.412311553955078 47.51582336425781 6.37554931640625 47.30923461914063 L 1.261447906494141 18.51884460449219 C 1.21636962890625 18.29229354858398 1.388080596923828 18.05432510375977 1.616119384765625 18.01975631713867 L 5.035659790039063 17.42118453979492 C 5.376300811767578 17.36157608032227 5.604019165039063 17.03712463378906 5.544418334960938 16.69655609130859 C 5.491184234619141 16.39236068725586 5.226249694824219 16.17840576171875 4.927936553955078 16.17840576171875 C 4.892261505126953 16.17840576171875 4.856113433837891 16.18146514892578 4.819789886474609 16.18779373168945 L 1.400348663330078 16.78637313842773 C 0.505767822265625 16.92335510253906 -0.1482315063476563 17.8499755859375 0.0286407470703125 18.73779678344727 L 5.142749786376953 47.52809524536133 C 5.283424377441406 48.34605026245117 6.0157470703125 48.91932678222656 6.806533813476563 48.91932678222656 C 6.903526306152344 48.91932678222656 7.001319885253906 48.91071319580078 7.099090576171875 48.89286422729492 L 13.72789001464844 47.73259735107422 L 29.89315032958984 53.89219665527344 C 30.08701515197754 53.96766662597656 30.28908348083496 54.00357818603516 30.48940277099609 54.00357818603516 C 31.16289710998535 54.00357818603516 31.81675720214844 53.59772109985352 32.07378005981445 52.92508697509766 L 40.62385940551758 30.81474304199219 C 40.74856948852539 30.49229431152344 40.58821868896484 30.12977600097656 40.26576995849609 30.00506591796875 C 40.19155120849609 29.97636795043945 40.11515808105469 29.96276092529297 40.04009246826172 29.96276092529297 C 39.78893280029297 29.96276092529297 39.55203247070313 30.11491012573242 39.45607757568359 30.36315536499023 L 30.90599822998047 52.47349548339844 C 30.84025955200195 52.64350891113281 30.66977500915527 52.75045013427734 30.49285888671875 52.75045013427734 C 30.44132232666016 52.75045013427734 30.38926124572754 52.74138259887695 30.33905792236328 52.72215270996094 L 12.78055953979492 46.03159332275391 C 12.5636100769043 45.95455551147461 12.44174003601074 45.68886566162109 12.52938842773438 45.47567749023438 L 13.32888984680176 43.40813446044922 C 13.35033988952637 43.36699676513672 13.3671989440918 43.32349395751953 13.3791389465332 43.27817535400391 L 17.03672981262207 33.81974411010742 C 17.16143989562988 33.49729537963867 17.00108909606934 33.13477325439453 16.67863845825195 33.01006317138672 C 16.60444259643555 32.98139572143555 16.52810096740723 32.96780776977539 16.45306015014648 32.96780776977539 C 16.20189666748047 32.96780776977539 15.9649715423584 33.11995315551758 15.86894989013672 33.3681640625 L 12.31227874755859 42.56565475463867 L 9.436069488525391 43.07650756835938 C 9.413280487060547 43.06757354736328 9.361690521240234 43.01865386962891 9.346340179443359 42.93109512329102 L 5.591751098632813 21.53544616699219 C 5.576137542724609 21.44679641723633 5.608779907226563 21.38268661499023 5.627559661865234 21.36658477783203 L 17.5084285736084 19.25631332397461 C 17.53121948242188 19.26524353027344 17.58280944824219 19.31416320800781 17.59816932678223 19.40172576904297 L 18.74423980712891 25.93268585205078 L 16.96636962890625 30.53026580810547 C 16.84165954589844 30.85272598266602 17.00200843811035 31.21524429321289 17.32445907592773 31.33994674682617 C 17.39725303649902 31.3686637878418 17.47310447692871 31.3823356628418 17.5482292175293 31.3823356628418 C 17.79734992980957 31.3823356628418 18.03852272033691 31.23203277587891 18.13414001464844 30.98185348510742 L 22.52386856079102 19.6300163269043 C 22.5860595703125 19.54387664794922 22.62628936767578 19.44212341308594 22.63847923278809 19.33369445800781 L 23.08355903625488 18.18269348144531 C 23.1493091583252 18.01259231567383 23.31989479064941 17.90583801269531 23.49682235717773 17.90582656860352 C 23.54832649230957 17.90582656860352 23.60034561157227 17.91486740112305 23.65049934387207 17.93402481079102 L 41.20899963378906 24.62459564208984 C 41.42594909667969 24.70172500610352 41.54782104492188 24.96724319458008 41.46025085449219 25.18051528930664 L 40.55358123779297 27.52517318725586 C 40.42887115478516 27.84762573242188 40.58921813964844 28.21014404296875 40.91167068481445 28.33485412597656 C 40.98579025268555 28.36343002319336 41.06208419799805 28.37698745727539 41.13707733154297 28.37698745727539 C 41.38825225830078 28.37698745727539 41.62532424926758 28.22507095336914 41.72135925292969 27.97676467895508 L 42.6280403137207 25.63210678100586 C 42.78981018066406 25.21357345581055 42.77803802490234 24.75647354125977 42.59473037719727 24.34479522705078 L 42.59473037719727 24.34480667114258 C 42.41067123413086 23.93152618408203 42.07686996459961 23.61533355712891 41.65475082397461 23.45448303222656 L 24.09632873535156 16.76399612426758 C 23.89874839782715 16.68865585327148 23.6954288482666 16.6529541015625 23.49536323547363 16.6529541015625 C 23.03801155090332 16.6529541015625 22.59742546081543 16.83940505981445 22.27954864501953 17.16500473022461 L 21.87879943847656 14.90907669067383 C 21.73401069641113 14.09403610229492 21.01888847351074 13.51883316040039 20.21508979797363 13.51883316040039 M 20.21508979797363 13.01883316040039 C 21.27878952026367 13.01883316040039 22.18552017211914 13.77701568603516 22.37108993530273 14.82162475585938 L 22.63864898681641 16.32778930664063 C 22.90796852111816 16.21384048461914 23.19972801208496 16.1529541015625 23.49535942077637 16.1529541015625 C 23.76202011108398 16.1529541015625 24.02414894104004 16.20135498046875 24.27447891235352 16.29680633544922 L 41.83277893066406 22.98725509643555 C 42.38008880615234 23.19580459594727 42.81290054321289 23.60568618774414 43.05147933959961 24.14138412475586 C 43.28926849365234 24.67539596557617 43.30450820922852 25.26881408691406 43.09440994262695 25.8123664855957 L 42.18770980834961 28.1571044921875 C 42.02114868164063 28.58770370483398 41.59894943237305 28.87698364257813 41.13708114624023 28.87698364257813 C 40.99826049804688 28.87698364257813 40.86190032958984 28.85154342651367 40.73178100585938 28.80137634277344 C 40.45079803466797 28.69270324707031 40.22932052612305 28.48147583007813 40.10766983032227 28.20640563964844 C 39.98600006103516 27.93132400512695 39.9787483215332 27.62533569335938 40.08723831176758 27.34481430053711 L 40.9677734375 25.0677490234375 L 23.52707481384277 18.42206573486328 L 23.12464904785156 19.46277236938477 C 23.09920501708984 19.60404205322266 23.04673767089844 19.73970031738281 22.97043418884277 19.86151885986328 L 18.60048866271973 31.16219329833984 C 18.4361400604248 31.59219360351563 18.01298904418945 31.8823356628418 17.5482292175293 31.8823356628418 C 17.40794944763184 31.8823356628418 17.27091979980469 31.8563346862793 17.14094924926758 31.8050537109375 C 16.86359977722168 31.69780349731445 16.64210891723633 31.48657608032227 16.52046012878418 31.21150588989258 C 16.39878845214844 30.93642425537109 16.39153861999512 30.63043594360352 16.50002861022949 30.34991455078125 L 18.22772407531738 25.88208389282227 L 17.16484069824219 19.82516479492188 L 6.142807006835938 21.78288650512695 L 9.779666900634766 42.50764465332031 L 11.94751739501953 42.12261199951172 L 15.4025993347168 33.18782424926758 C 15.5692195892334 32.75713348388672 15.9913501739502 32.46780395507813 16.45306015014648 32.46780395507813 C 16.59203910827637 32.46780395507813 16.72856903076172 32.49332427978516 16.85884857177734 32.54366302490234 C 17.1395092010498 32.65221405029297 17.36098861694336 32.86344528198242 17.48263931274414 33.13851547241211 C 17.60430908203125 33.41359329223633 17.61155891418457 33.71958541870117 17.5030689239502 34.00010299682617 L 13.85404205322266 43.43639755249023 C 13.83643913269043 43.49624633789063 13.81385612487793 43.55464172363281 13.78664207458496 43.61069488525391 L 13.02185440063477 45.58847045898438 L 30.46248435974121 52.23411560058594 L 38.98973083496094 30.18281555175781 C 39.15618896484375 29.75215530395508 39.57830047607422 29.46275329589844 40.04008865356445 29.46275329589844 C 40.17914962768555 29.46275329589844 40.31575012207031 29.48831558227539 40.44609832763672 29.53871536254883 C 40.72663879394531 29.647216796875 40.9481201171875 29.85844421386719 41.06977081298828 30.13351440429688 C 41.19144058227539 30.40859603881836 41.19868850708008 30.71458435058594 41.0901985168457 30.9951057434082 L 32.54013061523438 53.10542297363281 C 32.22087097167969 53.94094467163086 31.39645957946777 54.50357437133789 30.48939895629883 54.50357437133789 C 30.22130966186523 54.50357437133789 29.95967864990234 54.45464324951172 29.71176910400391 54.35813522338867 L 13.67849540710449 48.24884033203125 L 7.185298919677734 49.3853759765625 C 7.063167572021484 49.40768432617188 6.934528350830078 49.41932678222656 6.806529998779297 49.41932678222656 C 5.754219055175781 49.41932678222656 4.827110290527344 48.64270401000977 4.649978637695313 47.61284637451172 L -0.4628181457519531 18.82992172241211 C -0.5713233947753906 18.27684020996094 -0.4388847351074219 17.68191909790039 -0.09905242919921875 17.19682312011719 C 0.2422599792480469 16.70962524414063 0.7588539123535156 16.38046264648438 1.319004058837891 16.29301071166992 L 4.733570098876953 15.69528579711914 C 4.797958374023438 15.68406677246094 4.863227844238281 15.67840576171875 4.927940368652344 15.67840576171875 C 5.476039886474609 15.67840576171875 5.942440032958984 16.07035446166992 6.036937713623047 16.6103630065918 C 6.088779449462891 16.90663528442383 6.022171020507813 17.20535659790039 5.849357604980469 17.45151519775391 C 5.676517486572266 17.69770431518555 5.418159484863281 17.86184310913086 5.121849060058594 17.91370391845703 L 1.766120910644531 18.5010986328125 L 6.856277465820313 47.15670013427734 L 10.90835952758789 46.44744873046875 C 10.70289421081543 45.93979644775391 10.68935585021973 45.35973358154297 10.89598083496094 44.84195709228516 L 10.99775123596191 44.57878112792969 L 9.738475799560547 44.80242919921875 C 9.637413024902344 44.82152557373047 9.5341796875 44.83119583129883 9.431549072265625 44.83119583129883 C 8.557601928710938 44.83119583129883 7.762794494628906 44.12814331054688 7.619892120361328 43.22969818115234 L 3.866050720214844 21.83831405639648 C 3.684108734130859 20.80197525024414 4.333950042724609 19.81695556640625 5.314647674560547 19.64258575439453 L 17.20450019836426 17.53068161010742 C 17.30600547790527 17.5113410949707 17.40974807739258 17.50153350830078 17.51292991638184 17.50153350830078 C 18.38772392272949 17.50153350830078 19.18244743347168 18.20458602905273 19.32462120056152 19.10315322875977 L 19.80046844482422 21.81483840942383 L 20.84580039978027 19.11159133911133 L 20.1652717590332 15.28056335449219 L 8.126789093017578 17.38773345947266 C 8.062248229980469 17.39897537231445 7.996940612792969 17.40463638305664 7.932228088378906 17.40463638305664 C 7.384269714355469 17.40463638305664 6.917961120605469 17.01267623901367 6.823448181152344 16.47265625 C 6.771598815917969 16.17638397216797 6.838230133056641 15.87765502929688 7.011058807373047 15.63147354125977 C 7.18389892578125 15.38529586791992 7.4422607421875 15.22116470336914 7.738529205322266 15.16931533813477 L 19.83624839782715 13.05179595947266 C 19.96138954162598 13.02991485595703 20.08881950378418 13.01883316040039 20.21508979797363 13.01883316040039 Z" stroke="none" fill="#292929"/>
      </g>
      <g id="Trazado_541" data-name="Trazado 541" transform="translate(-224.017 -173.399)" fill="#292929">
        <path d="M 249.0077972412109 201.5024261474609 C 248.7828216552734 201.5024261474609 248.5689239501953 201.4172210693359 248.4055328369141 201.2625122070313 C 247.8627471923828 200.7486877441406 243.1382751464844 196.1111907958984 244.3763580322266 191.5691528320313 C 244.5802917480469 190.8212585449219 245.0576171875 189.0707092285156 246.7621002197266 188.1804962158203 C 247.3598937988281 187.8681488037109 248.0193328857422 187.7097625732422 248.7220306396484 187.7097625732422 C 249.5410919189453 187.7097625732422 250.2001495361328 187.9298248291016 250.4454956054688 188.0244293212891 C 251.7943572998047 188.5445404052734 252.5474853515625 189.5421447753906 252.9564666748047 190.3598175048828 C 253.4116058349609 190.2001037597656 254.041748046875 190.0419769287109 254.7525024414063 190.0419769287109 C 255.4331512451172 190.0419769287109 256.0878601074219 190.1851196289063 256.6984558105469 190.4674224853516 C 257.2247314453125 190.7107696533203 258.5100402832031 191.4410705566406 259.0772705078125 192.9629516601563 C 259.7333984375 194.7231903076172 258.9813537597656 196.3471221923828 258.6982727050781 196.9584655761719 C 256.7665710449219 201.129638671875 250.3025360107422 201.4752807617188 249.0263519287109 201.502197265625 L 249.0077972412109 201.5024261474609 Z M 248.7243347167969 189.4636993408203 C 248.3032684326172 189.4636993408203 247.9160003662109 189.5544281005859 247.5732574462891 189.7333831787109 C 246.5468444824219 190.2694854736328 246.2227020263672 191.4582977294922 246.0669403076172 192.0296020507813 C 245.6908416748047 193.4093017578125 246.0243530273438 195.0063781738281 247.0581817626953 196.7767791748047 C 247.8602294921875 198.1502685546875 248.8790130615234 199.2563781738281 249.3521270751953 199.736328125 C 250.05224609375 199.6990051269531 251.6163940429688 199.5643157958984 253.1812286376953 199.0827026367188 C 255.1951446533203 198.4628601074219 256.5164489746094 197.5004425048828 257.1084289550781 196.22216796875 C 257.3447875976563 195.7115936279297 257.8362731933594 194.6499176025391 257.4355773925781 193.5747985839844 C 257.0954895019531 192.6626129150391 256.2925720214844 192.2100067138672 255.9631652832031 192.0577392578125 C 255.5894927978516 191.8850250244141 255.1827087402344 191.7974395751953 254.7541198730469 191.7974395751953 C 253.7964782714844 191.7974395751953 253.0188903808594 192.2335357666016 252.921875 192.2902374267578 C 252.7924041748047 192.3701477050781 252.6417999267578 192.4123687744141 252.4860534667969 192.4123687744141 C 252.0769195556641 192.4123687744141 251.7160491943359 192.1346740722656 251.62646484375 191.7515716552734 C 251.58154296875 191.5790405273438 251.1797943115234 190.1854095458984 249.8152008056641 189.6592254638672 C 249.6962585449219 189.6133422851563 249.2662353515625 189.4636993408203 248.7243347167969 189.4636993408203 Z" stroke="none"/>
        <path d="M 248.7220306396484 187.9597473144531 C 248.1609497070313 187.9597473144531 247.5186309814453 188.0672760009766 246.8778381347656 188.4020080566406 L 246.8778381347656 188.402099609375 C 245.2698364257813 189.2419128417969 244.8128051757813 190.9187927246094 244.6175537109375 191.6349029541016 C 243.4176635742188 196.0368194580078 248.0457916259766 200.5777130126953 248.5774078369141 201.0809783935547 C 248.6937866210938 201.191162109375 248.8478698730469 201.2524261474609 249.0077972412109 201.2524261474609 C 249.0122375488281 201.2524261474609 249.0166473388672 201.2523498535156 249.0210723876953 201.2522583007813 C 250.271240234375 201.2258758544922 256.6023559570313 200.8893127441406 258.4714050292969 196.8534240722656 C 258.7425231933594 196.2679595947266 259.4627075195313 194.7127838134766 258.843017578125 193.0502624511719 C 258.3082275390625 191.6154479980469 257.0917663574219 190.9247131347656 256.5935363769531 190.6943359375 C 255.9548645019531 190.3990478515625 255.3269653320313 190.2919921875 254.7525024414063 190.2919769287109 C 253.9810485839844 190.2919464111328 253.3058319091797 190.4849243164063 252.8289184570313 190.6743011474609 C 252.4900207519531 189.9185485839844 251.7715759277344 188.8036956787109 250.3555450439453 188.2576904296875 C 250.1058654785156 188.1614074707031 249.4901580810547 187.9597473144531 248.7220306396484 187.9597473144531 M 252.4860534667969 192.1623687744141 C 252.5919494628906 192.1623687744141 252.6980895996094 192.1352081298828 252.7928619384766 192.0760650634766 C 252.9147338867188 192.0044403076172 253.7327423095703 191.5474395751953 254.7541198730469 191.5474395751953 C 255.1695251464844 191.5474395751953 255.6184692382813 191.6230010986328 256.0680541992188 191.830810546875 C 256.4256591796875 191.99609375 257.2974243164063 192.4885864257813 257.6698303222656 193.4874877929688 C 258.1070556640625 194.6605987548828 257.5857543945313 195.7861480712891 257.3352661132813 196.3272247314453 C 255.8714752197266 199.4880676269531 250.6117248535156 199.9300537109375 249.2532958984375 199.9915008544922 C 248.3201599121094 199.0611877441406 244.8996276855469 195.3611907958984 245.82568359375 191.9641265869141 C 245.9907836914063 191.3585205078125 246.3341674804688 190.0985107421875 247.4575500488281 189.5117797851563 C 247.8901214599609 189.2859191894531 248.3338012695313 189.2136993408203 248.7243347167969 189.2136840820313 C 249.3084411621094 189.2136840820313 249.7736663818359 189.375244140625 249.9051361083984 189.4259643554688 C 251.3956146240234 190.0006866455078 251.8251647949219 191.5207977294922 251.8693237304688 191.6921691894531 C 251.9345092773438 191.9769134521484 252.2093811035156 192.1623687744141 252.4860534667969 192.1623687744141 M 248.7220306396484 187.4597625732422 C 249.5521392822266 187.4597625732422 250.2145080566406 187.6674041748047 250.5354614257813 187.7911834716797 C 251.8534393310547 188.2993774414063 252.6305847167969 189.2373199462891 253.0793914794922 190.0558166503906 C 253.5314178466797 189.9149475097656 254.1099853515625 189.7919769287109 254.7523193359375 189.7919769287109 C 255.4696960449219 189.7919921875 256.1596984863281 189.9429016113281 256.8033447265625 190.2404937744141 C 257.3577270507813 190.4968414306641 258.7118530273438 191.2667388916016 259.3115234375 192.8756408691406 C 260.0040588378906 194.7335968017578 259.22021484375 196.4262847900391 258.9251098632813 197.0635223388672 C 256.9309997558594 201.3694763183594 250.3338623046875 201.7246704101563 249.0316314697266 201.7521514892578 L 249.0077972412109 201.7524261474609 C 248.7186126708984 201.7524261474609 248.4436645507813 201.6428985595703 248.233642578125 201.4440612792969 C 247.9756622314453 201.1998291015625 246.63232421875 199.8897705078125 245.5220642089844 198.0815582275391 C 244.0607299804688 195.7015075683594 243.5941162109375 193.4883117675781 244.1351623535156 191.50341796875 C 244.34765625 190.7240600585938 244.8450622558594 188.8996734619141 246.6463623046875 187.9589080810547 C 247.2802124023438 187.6277008056641 247.9785919189453 187.4597625732422 248.7220306396484 187.4597625732422 Z M 251.3838806152344 191.8120422363281 C 251.3398742675781 191.6443481445313 250.9684295654297 190.3718414306641 249.7252502441406 189.8924865722656 C 249.6477966308594 189.8626098632813 249.23583984375 189.7136840820313 248.7243499755859 189.7136993408203 C 248.3439788818359 189.7136993408203 247.9956207275391 189.7948913574219 247.68896484375 189.9550018310547 C 246.75927734375 190.4405670166016 246.4658203125 191.5170593261719 246.3081359863281 192.0953979492188 C 245.9503479003906 193.4078826904297 246.2753601074219 194.9404296875 247.2740631103516 196.6507110595703 C 248.0202331542969 197.9285125732422 248.9584350585938 198.9719085693359 249.4512176513672 199.4800720214844 C 250.8623504638672 199.3922119140625 255.5966949462891 198.8915710449219 256.8815612792969 196.1171112060547 C 257.1207275390625 195.6005096435547 257.5656127929688 194.6395111083984 257.2012939453125 193.662109375 C 256.8936767578125 192.8369750976563 256.1596069335938 192.4239501953125 255.8582916259766 192.2846832275391 C 255.5177307128906 192.1272583007813 255.146240234375 192.0474395751953 254.7541198730469 192.0474395751953 C 253.8694458007813 192.0474395751953 253.1506652832031 192.4463958740234 253.0507659912109 192.5044708251953 C 252.8823547363281 192.6077880859375 252.6872711181641 192.6623687744141 252.4860534667969 192.6623687744141 C 251.9630889892578 192.6623687744141 251.5009918212891 192.3052978515625 251.3838806152344 191.8120422363281 Z" stroke="none" fill="#292929"/>
      </g>
    </g>
  </g>
</svg>
