<svg xmlns="http://www.w3.org/2000/svg" width="20.25" height="15.75" viewBox="0 0 20.25 15.75">
  <path id="Icon_awesome-credit-card" data-name="Icon awesome-credit-card" d="M0,16.313A1.688,1.688,0,0,0,1.688,18H18.563a1.688,1.688,0,0,0,1.688-1.687V10.125H0Zm6.75-2.391a.423.423,0,0,1,.422-.422h4.781a.423.423,0,0,1,.422.422v1.406a.423.423,0,0,1-.422.422H7.172a.423.423,0,0,1-.422-.422Zm-4.5,0a.423.423,0,0,1,.422-.422H5.2a.423.423,0,0,1,.422.422v1.406a.423.423,0,0,1-.422.422H2.672a.423.423,0,0,1-.422-.422Zm18-9.984V5.625H0V3.938A1.688,1.688,0,0,1,1.688,2.25H18.563A1.688,1.688,0,0,1,20.25,3.938Z" transform="translate(0 -2.25)" fill="#818181"/>
</svg>
