<svg xmlns="http://www.w3.org/2000/svg" width="36.717" height="44.752" viewBox="0 0 36.717 44.752">
  <g id="diamond" transform="translate(-45.957 0)">
    <g id="Grupo_1230" data-name="Grupo 1230" transform="translate(46.831 0.87)">
      <path id="Trazado_591" data-name="Trazado 591" d="M66.882,85.34l2.938-9.382H63.787l-7.83,9.382Z" transform="translate(-55.957 -70.188)" fill="#80b6ff" fill-rule="evenodd"/>
      <path id="Trazado_592" data-name="Trazado 592" d="M183.863,75.958l-2.938,9.382h13.119l-2.938-9.382Z" transform="translate(-170 -70.188)" fill="#bfdbff" fill-rule="evenodd"/>
      <path id="Trazado_593" data-name="Trazado 593" d="M194.044,183.273H180.925l6.559,22.09Z" transform="translate(-170 -168.122)" fill="#80b6ff" fill-rule="evenodd"/>
      <path id="Trazado_594" data-name="Trazado 594" d="M297.387,75.958l2.938,9.382h10.925l-7.83-9.382Z" transform="translate(-276.281 -70.188)" fill="#80b6ff" fill-rule="evenodd"/>
      <path id="Trazado_595" data-name="Trazado 595" d="M273.441,183.273H262.516l-6.559,22.09Z" transform="translate(-238.473 -168.122)" fill="#bfdbff" fill-rule="evenodd"/>
      <path id="Trazado_596" data-name="Trazado 596" d="M73.441,205.363l-6.559-22.09H55.957Z" transform="translate(-55.957 -168.122)" fill="#bfdbff" fill-rule="evenodd"/>
      <g id="Grupo_1229" data-name="Grupo 1229" transform="translate(1.377)">
        <path id="Trazado_597" data-name="Trazado 597" d="M329.006,16.389l1.582,3.268,1.582-3.268,3.268-1.582-3.268-1.582-1.582-3.268-1.582,3.268-3.268,1.582Z" transform="translate(-303.531 -9.957)" fill="#ffd23f" fill-rule="evenodd"/>
        <path id="Trazado_598" data-name="Trazado 598" d="M81.525,259.565l-3.307-1.6-1.6-3.307-1.6,3.307-3.307,1.6,3.307,1.6,1.6,3.307,1.6-3.307Z" transform="translate(-71.707 -233.264)" fill="#ffd23f" fill-rule="evenodd"/>
        <path id="Trazado_599" data-name="Trazado 599" d="M321.268,392.963l-3.307,1.6,3.307,1.6,1.6,3.307,1.6-3.307,3.307-1.6-3.307-1.6-1.6-3.307Z" transform="translate(-296.433 -356.463)" fill="#ffd23f" fill-rule="evenodd"/>
      </g>
    </g>
    <g id="Grupo_1231" data-name="Grupo 1231" transform="translate(45.957 0)">
      <path id="Trazado_600" data-name="Trazado 600" d="M82.471,15.461,77.027,8.939l.475-.982L80.5,6.507a.877.877,0,0,0,0-1.574L77.5,3.484,76.052.489a.877.877,0,0,0-1.574,0l-1.45,2.994-2.994,1.45a.867.867,0,0,0-.49.833H54.662a.874.874,0,0,0-.671.314l-7.83,9.382a.874.874,0,0,0-.014,1.1L51.58,23.43l-.719,1.485-3.034,1.469a.877.877,0,0,0,0,1.574l3.034,1.469,1.469,3.034a.877.877,0,0,0,1.574,0l1.469-3.034.689-.334,7.568,9.561a.88.88,0,0,0,1.371,0l17.484-22.09a.874.874,0,0,0-.014-1.1ZM67.255,28.153a.874.874,0,0,0-1.089.586l-1.851,6.17L58.912,16.9H69.719L68.428,21.2a.874.874,0,0,0,1.675.5L71.545,16.9h8.448l-13.6,17.188,1.453-4.842A.874.874,0,0,0,67.255,28.153ZM67.246,7.514l2.415,7.633H58.97l2.415-7.633Zm12.685,7.633H71.495L69.08,7.514h3.035l.914.442,1.45,2.994a.877.877,0,0,0,1.574,0l.138-.285ZM74.064,4.925a.874.874,0,0,0,.406-.406l.8-1.643.8,1.643a.875.875,0,0,0,.406.406l1.643.8-1.643.8a.874.874,0,0,0-.406.406l-.8,1.643-.8-1.643a.875.875,0,0,0-.406-.406l-1.643-.8ZM55.071,7.514h4.48l-2.415,7.633H48.7Zm-.733,20.471a.874.874,0,0,0-.406.406l-.814,1.682L52.3,28.391a.875.875,0,0,0-.406-.406l-1.682-.814,1.682-.814a.874.874,0,0,0,.406-.406l.814-1.682.815,1.682a.875.875,0,0,0,.406.406l1.682.814Zm4.069-1.6-3.034-1.469L53.9,21.881a.877.877,0,0,0-1.459-.175L48.638,16.9h8.448l5.156,17.188-4.568-5.772.732-.355a.877.877,0,0,0,0-1.574Z" transform="translate(-45.957 0)" fill="#292929"/>
      <path id="Trazado_601" data-name="Trazado 601" d="M319.072,384.691l-3.034-1.469-1.469-3.034a.877.877,0,0,0-1.574,0l-1.469,3.034-3.034,1.469a.877.877,0,0,0,0,1.574l3.034,1.469L313,390.768a.877.877,0,0,0,1.574,0l1.469-3.034,3.034-1.469A.877.877,0,0,0,319.072,384.691Zm-4.069,1.6a.874.874,0,0,0-.406.406l-.815,1.682-.815-1.682a.875.875,0,0,0-.406-.406l-1.682-.814,1.682-.814a.874.874,0,0,0,.406-.406l.815-1.682.815,1.682a.875.875,0,0,0,.406.406l1.682.814Z" transform="translate(-285.095 -346.505)" fill="#292929"/>
      <path id="Trazado_602" data-name="Trazado 602" d="M291.387,279.385a.874.874,0,0,0-.874-.874h0a.874.874,0,1,0,.875.874Z" transform="translate(-268.335 -254.163)" fill="#292929"/>
    </g>
  </g>
</svg>
