<svg xmlns="http://www.w3.org/2000/svg" width="16.08" height="16.34" viewBox="0 0 16.08 16.34">
  <path id="flag_icon" d="M8.068,6.058V8.231c.833.188,1.573.5,2.349.712V6.767c-.83-.185-1.576-.495-2.349-.708Zm7.126-3.925A9.318,9.318,0,0,1,11.46,3.151c-1.707,0-3.121-1.111-5.272-1.111a6.2,6.2,0,0,0-2.17.383,1.787,1.787,0,1,0-2.69.826V15.571a.764.764,0,0,0,.766.766H2.6a.764.764,0,0,0,.766-.766V12.558a8.9,8.9,0,0,1,3.651-.705c1.71,0,3.121,1.111,5.272,1.111A6.668,6.668,0,0,0,16.2,11.659a1.018,1.018,0,0,0,.44-.842V3.058A1.02,1.02,0,0,0,15.194,2.133ZM5.719,10.385a10.053,10.053,0,0,0-2.349.53V8.665A9.129,9.129,0,0,1,5.719,8.11Zm9.395-4.292a10.179,10.179,0,0,1-2.349.763V9.125a5.931,5.931,0,0,0,2.349-.83v2.25a5.156,5.156,0,0,1-2.349.865V9.125a5.4,5.4,0,0,1-2.349-.179V11.1a18.619,18.619,0,0,0-2.349-.68V8.231A7.093,7.093,0,0,0,5.719,8.11V5.876a11.261,11.261,0,0,0-2.349.667V4.293a9.138,9.138,0,0,1,2.349-.7V5.876a5.428,5.428,0,0,1,2.349.182V3.907a18.167,18.167,0,0,0,2.349.68V6.77a6.079,6.079,0,0,0,2.349.086V4.561a11.291,11.291,0,0,0,2.349-.718Z" transform="translate(-0.563 0.003)" fill="#818181"/>
</svg>
