<svg xmlns="http://www.w3.org/2000/svg" width="25.375" height="29" viewBox="0 0 25.375 29">
  <path id="icon_calendar" d="M.68,10.875H24.7a.682.682,0,0,1,.68.68V26.281A2.719,2.719,0,0,1,22.656,29H2.719A2.719,2.719,0,0,1,0,26.281V11.555A.682.682,0,0,1,.68,10.875Zm24.7-2.492V6.344a2.719,2.719,0,0,0-2.719-2.719H19.938V.68a.682.682,0,0,0-.68-.68H16.992a.682.682,0,0,0-.68.68V3.625H9.063V.68A.682.682,0,0,0,8.383,0H6.117a.682.682,0,0,0-.68.68V3.625H2.719A2.719,2.719,0,0,0,0,6.344V8.383a.682.682,0,0,0,.68.68H24.7A.682.682,0,0,0,25.375,8.383Z" fill="#292929"/>
</svg>
