<svg xmlns="http://www.w3.org/2000/svg" xmlns:xlink="http://www.w3.org/1999/xlink" width="110" height="110" viewBox="0 0 110 110">
  <defs>
    <filter id="Trazado_545" x="0" y="0" width="110" height="110" filterUnits="userSpaceOnUse">
      <feOffset dy="3" input="SourceAlpha"/>
      <feGaussianBlur stdDeviation="3" result="blur"/>
      <feFlood flood-opacity="0.569"/>
      <feComposite operator="in" in2="blur"/>
      <feComposite in="SourceGraphic"/>
    </filter>
  </defs>
  <g id="icon_help" transform="translate(-1373 -945)">
    <g transform="matrix(1, 0, 0, 1, 1373, 945)" filter="url(#Trazado_545)">
      <g id="Trazado_545-2" data-name="Trazado 545" transform="translate(9 6)" fill="#2cc9e2">
        <path d="M 46 90.5 C 39.99187850952148 90.5 34.16426849365234 89.32363891601563 28.67905426025391 87.00358581542969 C 23.38019943237305 84.76235961914063 18.62104034423828 81.55353546142578 14.53374671936035 77.46625518798828 C 10.44646644592285 73.37895965576172 7.237639904022217 68.61979675292969 4.996413230895996 63.32094573974609 C 2.676359891891479 57.83573150634766 1.5 52.00812149047852 1.5 46 C 1.5 39.99187850952148 2.676359891891479 34.16426849365234 4.996413230895996 28.67905426025391 C 7.237639904022217 23.38019943237305 10.44646644592285 18.62104034423828 14.53374671936035 14.53374671936035 C 18.62104034423828 10.44646644592285 23.38019943237305 7.237639904022217 28.67905426025391 4.996413230895996 C 34.16426849365234 2.676359891891479 39.99187850952148 1.5 46 1.5 C 52.00812149047852 1.5 57.83573150634766 2.676359891891479 63.32094573974609 4.996413230895996 C 68.61979675292969 7.237639904022217 73.37895965576172 10.44646644592285 77.46625518798828 14.53374671936035 C 81.55353546142578 18.62104034423828 84.76235961914063 23.38019943237305 87.00358581542969 28.67905426025391 C 89.32363891601563 34.16426849365234 90.5 39.99187850952148 90.5 46 C 90.5 52.00812149047852 89.32363891601563 57.83573150634766 87.00358581542969 63.32094573974609 C 84.76235961914063 68.61979675292969 81.55353546142578 73.37895965576172 77.46625518798828 77.46625518798828 C 73.37895965576172 81.55353546142578 68.61979675292969 84.76235961914063 63.32094573974609 87.00358581542969 C 57.83573150634766 89.32363891601563 52.00812149047852 90.5 46 90.5 Z" stroke="none"/>
        <path d="M 46 3 C 40.1937141418457 3 34.56269836425781 4.136497497558594 29.26338577270508 6.377914428710938 C 24.14332580566406 8.54351806640625 19.54441070556641 11.64440155029297 15.59441375732422 15.59441375732422 C 11.64440155029297 19.54441070556641 8.54351806640625 24.14332580566406 6.377914428710938 29.26338577270508 C 4.136497497558594 34.56269836425781 3 40.1937141418457 3 46 C 3 51.8062858581543 4.136497497558594 57.43730163574219 6.377914428710938 62.73661422729492 C 8.54351806640625 67.85667419433594 11.64440155029297 72.45558166503906 15.59441375732422 76.40558624267578 C 19.54441070556641 80.35559844970703 24.14332580566406 83.45648193359375 29.26338577270508 85.62208557128906 C 34.56269836425781 87.86350250244141 40.1937141418457 89 46 89 C 51.8062858581543 89 57.43730163574219 87.86350250244141 62.73661422729492 85.62208557128906 C 67.85667419433594 83.45648193359375 72.45558166503906 80.35559844970703 76.40558624267578 76.40558624267578 C 80.35559844970703 72.45558166503906 83.45648193359375 67.85667419433594 85.62208557128906 62.73661422729492 C 87.86350250244141 57.43730163574219 89 51.8062858581543 89 46 C 89 40.1937141418457 87.86350250244141 34.56269836425781 85.62208557128906 29.26338577270508 C 83.45648193359375 24.14332580566406 80.35559844970703 19.54441070556641 76.40558624267578 15.59441375732422 C 72.45558166503906 11.64440155029297 67.85667419433594 8.54351806640625 62.73661422729492 6.377914428710938 C 57.43730163574219 4.136497497558594 51.8062858581543 3 46 3 M 46 0 C 71.40509796142578 0 92 20.59490203857422 92 46 C 92 71.40509796142578 71.40509796142578 92 46 92 C 20.59490203857422 92 0 71.40509796142578 0 46 C 0 20.59490203857422 20.59490203857422 0 46 0 Z" stroke="none" fill="#292929"/>
      </g>
    </g>
    <text id="_" data-name="?" transform="translate(1408 1028)" fill="#fff" stroke="#292929" stroke-width="3" font-size="80" font-family="FredokaOne-Regular, Fredoka One"><tspan x="0" y="0">?</tspan></text>
  </g>
</svg>
