<svg xmlns="http://www.w3.org/2000/svg" width="19.847" height="15.877" viewBox="0 0 19.847 15.877">
  <path id="icon-empresa" d="M15.629,10.917H4.23a.249.249,0,0,0-.248.248l0,1.489a.249.249,0,0,0,.248.248h11.4a.249.249,0,0,0,.248-.248V11.165A.249.249,0,0,0,15.629,10.917Zm0,2.977H4.221a.249.249,0,0,0-.248.248l0,1.489a.249.249,0,0,0,.248.248H15.629a.249.249,0,0,0,.248-.248V14.142A.249.249,0,0,0,15.629,13.894Zm0-5.954H4.236a.249.249,0,0,0-.248.248l0,1.489a.249.249,0,0,0,.248.248h11.4a.249.249,0,0,0,.248-.248V8.188A.249.249,0,0,0,15.629,7.94Zm3.3-4.311L10.494.116a1.493,1.493,0,0,0-1.144,0L.915,3.629A1.492,1.492,0,0,0,0,5V15.63a.249.249,0,0,0,.248.248H2.729a.249.249,0,0,0,.248-.248V7.94a1,1,0,0,1,1.011-.992H15.859a1,1,0,0,1,1.011.992V15.63a.249.249,0,0,0,.248.248H19.6a.249.249,0,0,0,.248-.248V5A1.492,1.492,0,0,0,18.932,3.629Z" transform="translate(0 -0.002)" fill="#818181"/>
</svg>
