<svg xmlns="http://www.w3.org/2000/svg" width="20.382" height="20.382" viewBox="0 0 20.382 20.382">
  <g id="icon-copy" transform="translate(1.5 1.5)">
    <path id="Trazado_10" data-name="Trazado 10" d="M15.238,13.5H23.06A1.738,1.738,0,0,1,24.8,15.238V23.06A1.738,1.738,0,0,1,23.06,24.8H15.238A1.738,1.738,0,0,1,13.5,23.06V15.238A1.738,1.738,0,0,1,15.238,13.5Z" transform="translate(-7.416 -7.416)" fill="none" stroke="gray" stroke-linecap="round" stroke-linejoin="round" stroke-width="3"/>
    <path id="Trazado_11" data-name="Trazado 11" d="M5.607,14.3H4.738A1.738,1.738,0,0,1,3,12.56V4.738A1.738,1.738,0,0,1,4.738,3H12.56A1.738,1.738,0,0,1,14.3,4.738v.869" transform="translate(-3 -3)" fill="none" stroke="gray" stroke-linecap="round" stroke-linejoin="round" stroke-width="3"/>
  </g>
</svg>
