<svg xmlns="http://www.w3.org/2000/svg" width="20.57" height="20.57" viewBox="0 0 20.57 20.57">
  <path id="icon-url" d="M13.122,7.448a6.1,6.1,0,0,1,.014,8.621l-.014.015-2.7,2.7a6.107,6.107,0,0,1-8.636-8.636L3.277,8.657a.642.642,0,0,1,1.1.426A7.4,7.4,0,0,0,4.762,11.2a.647.647,0,0,1-.152.667l-.526.526a2.893,2.893,0,1,0,4.065,4.117l2.7-2.7a2.892,2.892,0,0,0,0-4.091,3.01,3.01,0,0,0-.415-.344.644.644,0,0,1-.279-.506,1.6,1.6,0,0,1,.47-1.2l.846-.846a.645.645,0,0,1,.827-.07,6.126,6.126,0,0,1,.824.691Zm5.662-5.662a6.113,6.113,0,0,0-8.636,0l-2.7,2.7L7.434,4.5a6.108,6.108,0,0,0,.839,9.312.645.645,0,0,0,.827-.07l.846-.846a1.6,1.6,0,0,0,.47-1.2.644.644,0,0,0-.279-.506,3.01,3.01,0,0,1-.415-.344,2.892,2.892,0,0,1,0-4.091l2.7-2.7a2.893,2.893,0,1,1,4.065,4.117l-.526.526a.647.647,0,0,0-.152.667,7.4,7.4,0,0,1,.389,2.118.642.642,0,0,0,1.1.426l1.491-1.491a6.113,6.113,0,0,0,0-8.636Z" transform="translate(0 0)" fill="#292929"/>
</svg>
