<svg xmlns="http://www.w3.org/2000/svg" width="90.512" height="41.92" viewBox="0 0 90.512 41.92">
  <g id="logo_DK" transform="translate(-6539.944 -331.221)">
    <g id="love" transform="translate(6539.944 333.269) rotate(-3)">
      <path id="Trazado_91" data-name="Trazado 91" d="M30.812,0H7.134A7.134,7.134,0,0,0,0,7.134v15.53A7.134,7.134,0,0,0,7.134,29.8h3.4a.293.293,0,0,1,.293.293v7.661a1,1,0,0,0,1.728.685l8.038-8.546A.293.293,0,0,1,20.8,29.8H30.812a7.134,7.134,0,0,0,7.134-7.134V7.135A7.134,7.134,0,0,0,30.812,0Z" transform="translate(0.543 0.643)" fill="#fff"/>
      <path id="Trazado_92" data-name="Trazado 92" d="M13.827,26.2a.3.3,0,0,0-.283-.308h-3.29c-3.815,0-6.907-3.364-6.907-7.513V2.026A8.137,8.137,0,0,1,3.6,0,7.132,7.132,0,0,0,0,6.2v15.53a7.134,7.134,0,0,0,7.134,7.134h3.4a.293.293,0,0,1,.293.293v7.661a1,1,0,0,0,1.728.685l1.273-1.354V26.2Z" transform="translate(0.543 1.578)" fill="#fff"/>
      <path id="Trazado_93" data-name="Trazado 93" d="M17.391,1.359h0a4.638,4.638,0,0,0-6.56,0L9.809,2.382a.625.625,0,0,1-.884,0L7.918,1.375a4.638,4.638,0,0,0-6.56,0h0a4.638,4.638,0,0,0,0,6.56L8.926,15.5a.625.625,0,0,0,.884,0l7.582-7.583a4.638,4.638,0,0,0,0-6.56Z" transform="translate(10.142 8.543)" fill="#ec5569"/>
      <path id="Trazado_94" data-name="Trazado 94" d="M17.391,1.359h0a4.638,4.638,0,0,0-6.56,0L9.809,2.382a.625.625,0,0,1-.884,0L7.918,1.375a4.638,4.638,0,0,0-6.56,0h0a4.638,4.638,0,0,0,0,6.56L8.926,15.5a.625.625,0,0,0,.884,0l7.582-7.583a4.638,4.638,0,0,0,0-6.56Z" transform="translate(10.142 8.543)" fill="#ee4266"/>
      <path id="Trazado_95" data-name="Trazado 95" d="M3.785,7.918a4.638,4.638,0,0,1,0-6.56h0A4.615,4.615,0,0,1,5.851.162a4.635,4.635,0,0,0-4.493,1.2h0a4.638,4.638,0,0,0,0,6.56l7.567,7.567a.625.625,0,0,0,.884,0l.771-.771Z" transform="translate(10.142 8.56)" fill="#ee4266"/>
      <path id="Trazado_96" data-name="Trazado 96" d="M31.4,0H7.722A7.66,7.66,0,0,0,3.131,1.512a.587.587,0,1,0,.7.944A6.494,6.494,0,0,1,7.722,1.174H31.4a6.555,6.555,0,0,1,6.547,6.547v15.53A6.555,6.555,0,0,1,31.4,29.8H21.392a.883.883,0,0,0-.641.277l-8.037,8.546A.413.413,0,0,1,12,38.339V30.679a.881.881,0,0,0-.88-.88h-3.4a6.555,6.555,0,0,1-6.548-6.547V7.721a6.511,6.511,0,0,1,1.143-3.7.587.587,0,1,0-.968-.664A7.68,7.68,0,0,0,0,7.722v15.53a7.73,7.73,0,0,0,7.722,7.721h3.1v7.366a1.579,1.579,0,0,0,1,1.475,1.6,1.6,0,0,0,.588.113,1.579,1.579,0,0,0,1.153-.5l7.95-8.453H31.4a7.73,7.73,0,0,0,7.721-7.721V7.721A7.73,7.73,0,0,0,31.4,0Z" transform="translate(0 0)" fill="#303036"/>
      <path id="Trazado_97" data-name="Trazado 97" d="M15.811,9.843a.587.587,0,0,0,.83.83L18.393,8.92A5.225,5.225,0,1,0,11,1.531L9.981,2.554a.036.036,0,0,1-.027.011.035.035,0,0,1-.027-.011L8.92,1.547a5.225,5.225,0,1,0-7.39,7.39L9.1,16.5a1.212,1.212,0,0,0,1.714,0l4.158-4.159a.587.587,0,0,0-.83-.83L9.981,15.674a.036.036,0,0,1-.027.011.035.035,0,0,1-.027-.011L2.361,8.106a4.052,4.052,0,1,1,5.73-5.73L9.1,3.383a1.212,1.212,0,0,0,1.714,0L11.834,2.36a4.051,4.051,0,1,1,5.73,5.73Z" transform="translate(9.599 7.901)" fill="#303036"/>
    </g>
    <g id="Trazado_100" data-name="Trazado 100" transform="translate(6574.281 332.371) rotate(4.992)">
      <path id="Trazado_498" data-name="Trazado 498" d="M24.369,23.5a5.229,5.229,0,0,1-1.529-.24,6.349,6.349,0,0,1-1.421-.631,5,5,0,0,1-1.168-.964,2.751,2.751,0,0,1-.684-1.375,1.8,1.8,0,0,1,.2-1.171,3.808,3.808,0,0,1,.68-.942,4.234,4.234,0,0,1,.97-.744l.108-.058q-.106-.082-.207-.171a4.645,4.645,0,0,1-.339-.328,8.914,8.914,0,0,1-1.3.772,4.3,4.3,0,0,1-1.857.5,2.858,2.858,0,0,1-2.042-.632,3.022,3.022,0,0,1-.83-1.736,9.115,9.115,0,0,1-.13-1.273,13.166,13.166,0,0,1,.015-1.376,8.888,8.888,0,0,1-3.312,3.62,8.357,8.357,0,0,1-2.76,1.077c-.316.063-.631.11-.945.142s-.636.047-.966.047q-.18,0-.376,0a1.435,1.435,0,0,1-.438.459,2,2,0,0,1-1.137.283,2.706,2.706,0,0,1-2.41-1.222c-.031-.055-.059-.106-.085-.155a4.625,4.625,0,0,1-.614-.3,1.779,1.779,0,0,1-.944-1.548A1.33,1.33,0,0,1,1.663,14.3l.006,0q-.018-.217-.03-.441c-.037-.684-.045-1.4-.022-2.136s.071-1.458.145-2.161.168-1.373.279-2c.093-.519.2-.986.3-1.39a3.516,3.516,0,0,1-1.131-.21,1.929,1.929,0,0,1-.924-.709A1.71,1.71,0,0,1,0,4.306V3.818A2.262,2.262,0,0,1,.564,2.254a4.606,4.606,0,0,1,1.3-1.036,8.086,8.086,0,0,1,1.74-.7,14.549,14.549,0,0,1,1.936-.4A12.6,12.6,0,0,1,7.257,0l.285,0A11.059,11.059,0,0,1,9.385.191a7.672,7.672,0,0,1,3.226,1.368,7.952,7.952,0,0,1,2.113,2.367,8.671,8.671,0,0,1,1.049,2.953,10.172,10.172,0,0,1,.13,1.973,3.92,3.92,0,0,1,.662-.814A2.373,2.373,0,0,1,18.233,7.4h.037q-.052-.028-.1-.058a2.413,2.413,0,0,1-.705-.653,2.584,2.584,0,0,1-.429-1.051,4.363,4.363,0,0,1,0-1.529A3.607,3.607,0,0,1,17.5,2.875,2.729,2.729,0,0,1,18.346,2a2.112,2.112,0,0,1,1.145-.35,4.459,4.459,0,0,1,.922.115,5.682,5.682,0,0,1,1.03.327,4.572,4.572,0,0,1,.915.512,1.57,1.57,0,0,1,.678,1.031,1.431,1.431,0,0,1-.634,1.4.936.936,0,0,0-.256.34q-.2.394-.4.809a5.766,5.766,0,0,1-.5.853,1.44,1.44,0,0,1-1.055.656l-.238-.766.1.774-.088.009A1.872,1.872,0,0,1,20.7,8.3a1.941,1.941,0,0,1,.336.745,3.7,3.7,0,0,1,.056.893,3.525,3.525,0,0,1-.152.781q-.1.337-.267.756l-.011.028a7.641,7.641,0,0,1,.84-1.178,8.866,8.866,0,0,1,1.925-1.664,7.271,7.271,0,0,1,2.259-.981c.1-.022.2-.04.291-.055a2.326,2.326,0,0,1,.278-.594,2.9,2.9,0,0,1,.627-.694,2.008,2.008,0,0,1,.781-.382,2.467,2.467,0,0,1,.541-.074,4.021,4.021,0,0,1,.881.129,9.006,9.006,0,0,1,1.033.309,5.412,5.412,0,0,1,1.031.545A1.711,1.711,0,0,1,31.917,7.9a1.812,1.812,0,0,1,.026.486q-.012.184-.037.381c-.014.191-.033.4-.059.635l.005-.012A4.183,4.183,0,0,1,32.8,8.038,2.373,2.373,0,0,1,34.471,7.4h.037q-.052-.028-.1-.058a2.413,2.413,0,0,1-.705-.653,2.584,2.584,0,0,1-.429-1.051,4.363,4.363,0,0,1,0-1.529,3.607,3.607,0,0,1,.461-1.229A2.729,2.729,0,0,1,34.584,2a2.112,2.112,0,0,1,1.145-.35,4.459,4.459,0,0,1,.922.115,5.681,5.681,0,0,1,1.03.327A4.572,4.572,0,0,1,38.6,2.6a1.569,1.569,0,0,1,.678,1.031,1.431,1.431,0,0,1-.634,1.4.935.935,0,0,0-.256.34q-.2.394-.4.809a5.758,5.758,0,0,1-.5.853,1.44,1.44,0,0,1-1.055.656l-.238-.766.1.774-.088.009a1.872,1.872,0,0,1,.745.585,1.942,1.942,0,0,1,.336.745,3.7,3.7,0,0,1,.056.893,3.525,3.525,0,0,1-.152.781q-.1.337-.267.756-.143.368-.307.9c-.068.24-.14.529-.212.855q.454-.462.952-1a1.033,1.033,0,0,1,.748-.318,1.611,1.611,0,0,1,.952.4,1.539,1.539,0,0,1,.533.919,2.4,2.4,0,0,1-.511,1.833,7.474,7.474,0,0,1-1.379,1.458,8.926,8.926,0,0,1-1.77,1.131,4.3,4.3,0,0,1-1.857.5,2.858,2.858,0,0,1-2.042-.632,2.432,2.432,0,0,1-.511-.707h0a7.355,7.355,0,0,1-1.079.542,18.94,18.94,0,0,1-.612,1.97,8.152,8.152,0,0,1-1.14,2.1,5.43,5.43,0,0,1-1.783,1.517A5.336,5.336,0,0,1,24.369,23.5Zm-.231-5.287.26.534a2.176,2.176,0,0,0,.425.593.659.659,0,0,0,.37.119,3.045,3.045,0,0,0,.114-.569,9.331,9.331,0,0,0,.059-1l-.014.006a5.313,5.313,0,0,1-.763.241A3.774,3.774,0,0,1,24.138,18.216ZM8.809,5.679c-.021.076-.046.155-.076.237q-.139.381-.3.751a15.649,15.649,0,0,0-.768,2.086c-.223.76-.414,1.55-.568,2.345s-.27,1.6-.347,2.4q-.029.3-.051.6l.026,0a6.47,6.47,0,0,0,.783-.145A3.744,3.744,0,0,0,9.69,12.58a4.651,4.651,0,0,0,.783-2.866,6.719,6.719,0,0,0-.3-1.972,4.474,4.474,0,0,0-.837-1.59A2.536,2.536,0,0,0,8.809,5.679Zm16.9,6.183q-.121.172-.228.356a3.56,3.56,0,0,0-.348.808,1.67,1.67,0,0,0-.072.617.737.737,0,0,0,.114.3c.005,0,.02.018.086.018a.609.609,0,0,0,.225-.044l.02-.008q.119-1.029.192-1.92Q25.7,11.927,25.705,11.862Z" transform="translate(0.78 0.78)" fill="#fff"/>
      <path id="Trazado_499" data-name="Trazado 499" d="M8.037,1.56a11.763,11.763,0,0,0-1.609.112A13.717,13.717,0,0,0,4.6,2.051a7.275,7.275,0,0,0-1.572.629,3.816,3.816,0,0,0-1.084.856A1.518,1.518,0,0,0,1.562,4.6v.488a.939.939,0,0,0,.163.52,1.172,1.172,0,0,0,.564.412,3.458,3.458,0,0,0,1.225.163,6.132,6.132,0,0,0,.7-.04,4.928,4.928,0,0,1,.677-1.26,1.882,1.882,0,0,1,1.572-.672,1.986,1.986,0,0,1,.683.141,3.9,3.9,0,0,1,.737.369,2.986,2.986,0,0,1,.629.531l.029.033a2.674,2.674,0,0,1,.545.1A3.271,3.271,0,0,1,10.71,6.43,5.223,5.223,0,0,1,11.7,8.294a7.462,7.462,0,0,1,.336,2.2,5.372,5.372,0,0,1-.943,3.339,4.531,4.531,0,0,1-2.612,1.648,7.223,7.223,0,0,1-.878.163,7.8,7.8,0,0,1-.943.054h0q-.017.432-.017.846.043.52.076.921a2.654,2.654,0,0,1,0,.528q.507.025.926.025.455,0,.889-.043t.867-.13a7.546,7.546,0,0,0,2.5-.976A8.127,8.127,0,0,0,15.133,13.1a9.479,9.479,0,0,0,.672-2.406,9.326,9.326,0,0,0-.022-2.905A7.859,7.859,0,0,0,14.829,5.1a7.146,7.146,0,0,0-1.908-2.135,6.875,6.875,0,0,0-2.905-1.225A10.241,10.241,0,0,0,8.3,1.563q-.133,0-.267,0M20.271,3.21a1.339,1.339,0,0,0-.726.228,1.947,1.947,0,0,0-.607.629,2.823,2.823,0,0,0-.358.965,3.541,3.541,0,0,0,0,1.236A1.81,1.81,0,0,0,18.873,7a1.631,1.631,0,0,0,.477.444,1.683,1.683,0,0,0,.575.217,3.573,3.573,0,0,0,.629.054,1.392,1.392,0,0,0,.173-.011A1.392,1.392,0,0,1,20.9,7.7a.7.7,0,0,0,.488-.336,4.964,4.964,0,0,0,.434-.737q.206-.423.412-.824a1.7,1.7,0,0,1,.466-.6.7.7,0,0,0,.347-.672.822.822,0,0,0-.369-.52,3.772,3.772,0,0,0-.759-.423,4.887,4.887,0,0,0-.889-.282,3.747,3.747,0,0,0-.759-.1m16.238,0a1.339,1.339,0,0,0-.726.228,1.947,1.947,0,0,0-.607.629,2.823,2.823,0,0,0-.358.965,3.541,3.541,0,0,0,0,1.236A1.81,1.81,0,0,0,35.11,7a1.631,1.631,0,0,0,.477.444,1.683,1.683,0,0,0,.575.217,3.573,3.573,0,0,0,.629.054,1.392,1.392,0,0,0,.173-.011,1.392,1.392,0,0,1,.173-.011.7.7,0,0,0,.488-.336,4.964,4.964,0,0,0,.434-.737q.206-.423.412-.824a1.7,1.7,0,0,1,.466-.6.7.7,0,0,0,.347-.672.822.822,0,0,0-.369-.52,3.772,3.772,0,0,0-.759-.423,4.887,4.887,0,0,0-.889-.282,3.747,3.747,0,0,0-.759-.1M8.318,5.274a4.283,4.283,0,0,0-1.488.3q-.845.173-1.68.39a6.828,6.828,0,0,1-.937.176q-.139.356-.266.778a14.2,14.2,0,0,0-.358,1.561q-.163.911-.271,1.94t-.141,2.1q-.033,1.073.022,2.07.031.562.1,1.078.245-.016.562-.016.217,0,.64.011t.856.011q.434,0,.8.011t.494.011q.028-.722.1-1.5.119-1.236.358-2.471T7.7,9.313a16.3,16.3,0,0,1,.8-2.179q.152-.347.282-.7a1.061,1.061,0,0,0,.087-.553,1.523,1.523,0,0,0-.328-.6q-.109-.008-.221-.008M28.986,7.438a1.8,1.8,0,0,0-.369.054,1.233,1.233,0,0,0-.477.238,2.124,2.124,0,0,0-.455.509,1.979,1.979,0,0,0-.282.867l-.369.043a3.649,3.649,0,0,0-.39.065,6.466,6.466,0,0,0-2.016.878,8.05,8.05,0,0,0-1.756,1.518,6.573,6.573,0,0,0-1.16,1.9,3.94,3.94,0,0,0-.266,1.09q.483-.49,1.014-1.069a.234.234,0,0,1,.173-.065.822.822,0,0,1,.444.217.756.756,0,0,1,.271.455,1.659,1.659,0,0,1-.379,1.255,6.516,6.516,0,0,1-1.076,1.17,3.846,3.846,0,0,0,.718.837,3.75,3.75,0,0,0,.943.607,2.5,2.5,0,0,0,1.03.228,2.68,2.68,0,0,0,.607-.076,4.51,4.51,0,0,0,.65-.206,5.9,5.9,0,0,0,.607-.282,5.03,5.03,0,0,0,.5-.3q-.022.564-.022,1.2a10.231,10.231,0,0,1-.065,1.192,3.371,3.371,0,0,1-.217.911.491.491,0,0,1-.455.358,1.558,1.558,0,0,1-1.138-.358,2.969,2.969,0,0,1-.575-.8l-.4-.824a.722.722,0,0,0-.618-.423,1.993,1.993,0,0,0-.878.271,3.439,3.439,0,0,0-.791.607,3.02,3.02,0,0,0-.542.748,1.06,1.06,0,0,0-.13.694,1.977,1.977,0,0,0,.5.986,4.2,4.2,0,0,0,.986.813,5.543,5.543,0,0,0,1.247.553,4.431,4.431,0,0,0,1.3.206,4.549,4.549,0,0,0,2.157-.477,4.635,4.635,0,0,0,1.528-1.3,7.337,7.337,0,0,0,1.03-1.9,18.433,18.433,0,0,0,.683-2.287,6.306,6.306,0,0,0,1.333-.618,8.721,8.721,0,0,0,.841-.578,9.025,9.025,0,0,1-.1-1.093q-.024-.536.005-1.133-.277.271-.5.474a4.908,4.908,0,0,1-.618.477q-.152.108-.282.184a1.388,1.388,0,0,1-.26.119q.13-.78.282-1.583t.293-1.572q.141-.77.238-1.474t.141-1.29q.022-.173.033-.336a1.055,1.055,0,0,0-.011-.271.965.965,0,0,0-.444-.564,4.565,4.565,0,0,0-.856-.455,8.183,8.183,0,0,0-.943-.282,3.411,3.411,0,0,0-.7-.108m-2.948,8.086a.882.882,0,0,1-.618-.228,1.419,1.419,0,0,1-.358-.791,2.423,2.423,0,0,1,.1-.911,4.321,4.321,0,0,1,.423-.986,5.382,5.382,0,0,1,.65-.9,3.481,3.481,0,0,1,.8-.672,2.263,2.263,0,0,1,.228-.119q.119-.054.228-.1-.152.954-.238,2.016t-.238,2.32a1.784,1.784,0,0,1-.466.271,1.387,1.387,0,0,1-.509.1M19.014,8.955a1.609,1.609,0,0,0-1.138.434,3.394,3.394,0,0,0-.77,1.106,6.8,6.8,0,0,0-.466,1.518,15.107,15.107,0,0,0-.228,1.68,12.761,12.761,0,0,0-.033,1.559,8.482,8.482,0,0,0,.119,1.176,2.266,2.266,0,0,0,.6,1.3,2.171,2.171,0,0,0,1.507.419,3.585,3.585,0,0,0,1.518-.419A8.109,8.109,0,0,0,21.734,16.7q.081-.067.16-.134l-.019-.03a2.759,2.759,0,0,1-.39-1.03,3.394,3.394,0,0,1-.038-.9q-.168.17-.33.33a1.724,1.724,0,0,1-1.041.618q-.173,0-.173-.13.108-.824.238-1.431t.26-1.062q.173-.564.325-.954t.249-.7a2.728,2.728,0,0,0,.119-.607,2.908,2.908,0,0,0-.043-.683,1.167,1.167,0,0,0-.206-.444,1.317,1.317,0,0,0-.6-.4,3.679,3.679,0,0,0-1.236-.173m16.238,0a1.61,1.61,0,0,0-1.138.434,3.394,3.394,0,0,0-.77,1.106,6.8,6.8,0,0,0-.466,1.518,15.107,15.107,0,0,0-.228,1.68q-.017.217-.027.426l.222-.22a.938.938,0,0,1,.672-.412.741.741,0,0,1,.6.271,1.69,1.69,0,0,1,.293.444,2.147,2.147,0,0,1-.423.878,6.128,6.128,0,0,1-.9.965q-.175.154-.362.3.007.043.015.083a2.266,2.266,0,0,0,.6,1.3,2.171,2.171,0,0,0,1.507.419,3.585,3.585,0,0,0,1.518-.419A8.109,8.109,0,0,0,37.972,16.7a6.665,6.665,0,0,0,1.236-1.3,1.659,1.659,0,0,0,.379-1.255.756.756,0,0,0-.271-.455.822.822,0,0,0-.444-.217.234.234,0,0,0-.173.065q-.715.78-1.344,1.4a1.724,1.724,0,0,1-1.041.618q-.173,0-.173-.13.108-.824.238-1.431t.26-1.062q.173-.564.325-.954t.249-.7a2.727,2.727,0,0,0,.119-.607,2.908,2.908,0,0,0-.043-.683,1.167,1.167,0,0,0-.206-.444,1.317,1.317,0,0,0-.6-.4,3.679,3.679,0,0,0-1.236-.173M3.3,15.67l-.077.006a1.214,1.214,0,0,0-.444.108.556.556,0,0,0-.369.52,1,1,0,0,0,.564.878,4.1,4.1,0,0,0,.783.354,5.624,5.624,0,0,1-.328-1.092q-.076-.374-.129-.775m.457,1.867a3.772,3.772,0,0,0,.171.35,1.945,1.945,0,0,0,1.756.867,1.291,1.291,0,0,0,.7-.152.69.69,0,0,0,.293-.444q.018-.079.028-.166-.307-.015-.646-.04A11.49,11.49,0,0,1,4.347,17.7a5.912,5.912,0,0,1-.593-.166M8.037,0l.3,0a11.846,11.846,0,0,1,1.974.2,8.436,8.436,0,0,1,3.547,1.511,8.728,8.728,0,0,1,2.318,2.6A9.309,9.309,0,0,1,17,6.165a4.913,4.913,0,0,1,.052-1.428,4.383,4.383,0,0,1,.565-1.494,3.5,3.5,0,0,1,1.094-1.121,2.879,2.879,0,0,1,1.564-.471,5.211,5.211,0,0,1,1.086.132,6.474,6.474,0,0,1,1.172.371,5.352,5.352,0,0,1,1.071.6A2.333,2.333,0,0,1,24.587,4.3a2.2,2.2,0,0,1-.917,2.129c0,.007-.023.036-.05.088q-.2.387-.4.794a6.548,6.548,0,0,1-.572.969,2.666,2.666,0,0,1-.444.482,2.656,2.656,0,0,1,.374.909l0,.021a9.766,9.766,0,0,1,1.2-.908,8.093,8.093,0,0,1,2.4-1.06,2.9,2.9,0,0,1,.2-.346,3.68,3.68,0,0,1,.8-.878,2.783,2.783,0,0,1,1.085-.525,3.208,3.208,0,0,1,.714-.093,4.741,4.741,0,0,1,1.058.149,9.777,9.777,0,0,1,1.123.335A6.252,6.252,0,0,1,32.372,7,2.644,2.644,0,0,1,33.3,8.041a3.132,3.132,0,0,1,.443-.282,3.465,3.465,0,0,1-.453-1.2,5.171,5.171,0,0,1,0-1.822,4.383,4.383,0,0,1,.565-1.494,3.5,3.5,0,0,1,1.094-1.121,2.879,2.879,0,0,1,1.564-.471,5.211,5.211,0,0,1,1.086.132,6.474,6.474,0,0,1,1.172.371,5.352,5.352,0,0,1,1.071.6A2.334,2.334,0,0,1,40.825,4.3a2.2,2.2,0,0,1-.917,2.129c0,.007-.023.036-.05.088q-.2.387-.4.794a6.548,6.548,0,0,1-.572.969,2.666,2.666,0,0,1-.444.482,2.657,2.657,0,0,1,.374.909,4.511,4.511,0,0,1,.069,1.1,4.3,4.3,0,0,1-.185.954q-.029.093-.062.193a1.849,1.849,0,0,1,.231-.014h.078l.077.008a2.346,2.346,0,0,1,1.3.585,2.309,2.309,0,0,1,.794,1.383,3.131,3.131,0,0,1-.643,2.411A8.249,8.249,0,0,1,38.961,17.9a9.71,9.71,0,0,1-1.925,1.23,5.045,5.045,0,0,1-2.2.575,3.584,3.584,0,0,1-2.577-.844,2.98,2.98,0,0,1-.233-.246l-.166.079c-.159.582-.339,1.144-.539,1.677a8.926,8.926,0,0,1-1.251,2.3A6.2,6.2,0,0,1,28.036,24.4a6.1,6.1,0,0,1-2.888.659,6.007,6.007,0,0,1-1.758-.274,7.127,7.127,0,0,1-1.6-.709,5.78,5.78,0,0,1-1.349-1.115,3.518,3.518,0,0,1-.868-1.763,2.53,2.53,0,0,1,.273-1.648l.027-.052a4.29,4.29,0,0,1-1.276.206,3.584,3.584,0,0,1-2.577-.844,3.775,3.775,0,0,1-1.063-2.171q-.03-.156-.055-.342a9.824,9.824,0,0,1-2.192,1.843A9.134,9.134,0,0,1,9.7,19.372c-.344.069-.683.12-1.022.154s-.688.051-1.04.051a2.25,2.25,0,0,1-.385.323,2.748,2.748,0,0,1-1.57.414,3.515,3.515,0,0,1-3.044-1.546,5.206,5.206,0,0,1-.465-.245A2.531,2.531,0,0,1,.848,16.3,2.074,2.074,0,0,1,1.1,15.3l-.155-.362.32.109a2.154,2.154,0,0,1,.374-.381c-.038-.7-.045-1.439-.023-2.19s.073-1.5.149-2.219.172-1.41.287-2.051q.055-.309.115-.594A3.182,3.182,0,0,1,1.7,7.463,2.689,2.689,0,0,1,.418,6.458,2.511,2.511,0,0,1,0,5.086V4.6A3.041,3.041,0,0,1,.747,2.532a5.377,5.377,0,0,1,1.52-1.216A8.862,8.862,0,0,1,4.176.549,15.336,15.336,0,0,1,6.216.126,13.371,13.371,0,0,1,8.037,0ZM17.5,7.758a3.049,3.049,0,0,1-.207-.393q.015.083.029.167.025.15.045.3Q17.433,7.794,17.5,7.758ZM8.355,13.9a2.9,2.9,0,0,0,1.5-1.009,3.914,3.914,0,0,0,.623-2.392,5.94,5.94,0,0,0-.267-1.743,4.167,4.167,0,0,0-.351-.829,15.117,15.117,0,0,0-.662,1.83c-.216.737-.4,1.5-.55,2.273C8.523,12.646,8.427,13.274,8.355,13.9Z" transform="translate(0 0)" fill="#303036"/>
    </g>
    <g id="Trazado_101" data-name="Trazado 101" transform="translate(6573.743 347.938) rotate(4.992)">
      <path id="Trazado_500" data-name="Trazado 500" d="M10.092,17.662h-.05l-.049-.006a3.681,3.681,0,0,1-1.695-.6,3.459,3.459,0,0,1-1.064-1.289,10,10,0,0,1-.718-1.719q-.23-.752-.47-1.389a3.766,3.766,0,0,0-.4-.789q-.039.326-.068.649-.085.944-.127,1.836a7.968,7.968,0,0,1-.024,1.074A2.559,2.559,0,0,1,5.1,16.491a1.76,1.76,0,0,1-.859.744,2.275,2.275,0,0,1-.871.156q-.145,0-.3-.014A3.441,3.441,0,0,1,1.678,17,2.6,2.6,0,0,1,.615,15.914a3.414,3.414,0,0,1-.31-.731,4.848,4.848,0,0,1-.169-.9,17.664,17.664,0,0,1-.122-2.914C.05,10.353.136,9.339.268,8.354s.3-1.919.487-2.786a21.219,21.219,0,0,1,.607-2.244A7.315,7.315,0,0,1,2.57.916,2.589,2.589,0,0,1,4.632,0q.143,0,.293.012A3.273,3.273,0,0,1,5.708.22a5.077,5.077,0,0,1,.933.471,4.261,4.261,0,0,1,.913.78,2.348,2.348,0,0,1,.588,1.238,1.766,1.766,0,0,1-.159.99q-.158.385-.362.815c-.176.367-.342.756-.5,1.162h0q.461-.813.966-1.625A9.446,9.446,0,0,1,9.315,2.472a6.074,6.074,0,0,1,1.623-1.2A4.773,4.773,0,0,1,13.116.787a4.391,4.391,0,0,1,1.165.2,5.568,5.568,0,0,1,1.231.5,1.746,1.746,0,0,1,.91,1.028c.068.335.078,1.067-1.094,1.455a3.566,3.566,0,0,0-.969.689,10.337,10.337,0,0,0-.954,1.1q-.481.641-.961,1.314a14.856,14.856,0,0,1-1.117,1.38A8.135,8.135,0,0,1,9.9,9.7q-.141.1-.291.185a5.5,5.5,0,0,1,.751.732,6,6,0,0,1,.735,1.2q.276.583.551,1.124a5.087,5.087,0,0,0,.513.824.627.627,0,0,0,.121.123A2.409,2.409,0,0,0,12.9,13.6a2.3,2.3,0,0,0,.706-.647,1.21,1.21,0,0,1,.375-.358q.01-.337.034-.691a12.231,12.231,0,0,1,.242-1.719A7.448,7.448,0,0,1,14.8,8.544a4.072,4.072,0,0,1,.966-1.319,2.417,2.417,0,0,1,1.651-.606,5.116,5.116,0,0,1,1.136.107,2.7,2.7,0,0,1,.861.341,1.439,1.439,0,0,1,.609.645,2.049,2.049,0,0,1,.19.554q.024.146.037.282.052-.144.1-.275a3.082,3.082,0,0,1,.733-1.15,1.987,1.987,0,0,1,1.407-.5,5.642,5.642,0,0,1,.791.062,6.08,6.08,0,0,1,.855.186,2.608,2.608,0,0,1,.891.452,1.542,1.542,0,0,1,.588.98,3.043,3.043,0,0,1,.064.76,4.43,4.43,0,0,1,.646-.906,4.841,4.841,0,0,1,2.055-1.311,7.456,7.456,0,0,1,2.34-.374,2.335,2.335,0,0,1,.259.014,4.071,4.071,0,0,0-.216-.558A9.419,9.419,0,0,0,30.2,4.9q-.29-.446-.539-.788a2.537,2.537,0,0,1-.464-1.1,1.733,1.733,0,0,1,.273-1.374,2.213,2.213,0,0,1,.876-.7A3.753,3.753,0,0,1,31.354.644q.48-.07.9-.093h0a2.213,2.213,0,0,1,1.457.57,5.145,5.145,0,0,1,1.036,1.233,9.383,9.383,0,0,1,.8,1.661,11.343,11.343,0,0,1,.534,1.949c.121.741.208,1.523.259,2.337q.018.287.026.576.1-.139.211-.273a6.435,6.435,0,0,1,1.733-1.5,4.315,4.315,0,0,1,2.209-.615,3.421,3.421,0,0,1,.854.111,2.63,2.63,0,0,1,.534.2,3.825,3.825,0,0,1,.47-.03,2.948,2.948,0,0,1,1.433.344,3.138,3.138,0,0,1,1,.861,3.8,3.8,0,0,1,.586,1.141,4.083,4.083,0,0,1,.2,1.242q0,.279-.026.564a3.146,3.146,0,0,1,.435-.3,2.616,2.616,0,0,1,.871-.31,2.244,2.244,0,0,1-.127-.446,2.847,2.847,0,0,1,.138-1.55,3.028,3.028,0,0,1,.9-1.234,4.118,4.118,0,0,1,1.41-.75,6.506,6.506,0,0,1,4.524.347,2.706,2.706,0,0,1,1.5,1.975,1.914,1.914,0,0,1-.048.96,2.165,2.165,0,0,1-.405.74,2.1,2.1,0,0,1-.634.513,1.88,1.88,0,0,1-.371.148q.36.327.685.646a2.8,2.8,0,0,1,.879,1.426,3.21,3.21,0,0,1-.167,1.7,3.468,3.468,0,0,1-1.051,1.435,5.344,5.344,0,0,1-1.743.929,7.58,7.58,0,0,1-2.385.342,6.879,6.879,0,0,1-1.438-.147,5.5,5.5,0,0,1-2.729-1.289,5.162,5.162,0,0,1-.51-.537,4.973,4.973,0,0,1-.668.111l-.022,0a1.958,1.958,0,0,1-.3.023h-.227a1.747,1.747,0,0,1-.367-.04A5.8,5.8,0,0,1,42,16.871a5.929,5.929,0,0,1-2.424.467,5.063,5.063,0,0,1-1.824-.322,4.381,4.381,0,0,1-1.469-.921,4.218,4.218,0,0,1-.967-1.4q-.053-.125-.1-.254a6.365,6.365,0,0,1-.654.92A5.8,5.8,0,0,1,32.51,16.87a7.139,7.139,0,0,1-2.934.555,5.417,5.417,0,0,1-1.439-.2,4.485,4.485,0,0,1-1.912-1.1,3.446,3.446,0,0,1-.292-.32,8.787,8.787,0,0,1-1.376.824,7.367,7.367,0,0,1-1.669.585,3.85,3.85,0,0,1-.744.081,3.278,3.278,0,0,1-1.47-.285,2.053,2.053,0,0,1-.8-.693q-.4.276-.816.505a3.806,3.806,0,0,1-1.838.538,3.172,3.172,0,0,1-2.03-.678,2.855,2.855,0,0,1-.667-.758l-.113.082a11.318,11.318,0,0,1-1.543.917,7.478,7.478,0,0,1-1.583.589A5.357,5.357,0,0,1,10.092,17.662ZM40,13.451a1.485,1.485,0,0,0,.207.016.8.8,0,0,0,.322-.08.88.88,0,0,0,.241-.177l.044-.052a4.173,4.173,0,0,1-.579-1.371l-.017-.082q-.053.123-.1.252A3.1,3.1,0,0,0,39.9,13.08a.659.659,0,0,0,.088.372Zm-10.031-.272a.708.708,0,0,0,.147.181.979.979,0,0,0,.108.081.607.607,0,0,0,.348-.265,3.481,3.481,0,0,0,.553-1.26,9.4,9.4,0,0,0,.257-2.063q.005-.21,0-.426A2.5,2.5,0,0,0,30.2,10.643,4.153,4.153,0,0,0,29.966,13.179Zm-4.987-1.334q-.153.411-.3.8c.091-.1.192-.212.3-.349Q24.973,12.067,24.978,11.845Z" transform="translate(0.78 0.78)" fill="#fff"/>
      <path id="Trazado_501" data-name="Trazado 501" d="M5.412,1.56A1.8,1.8,0,0,0,3.949,2.2a6.669,6.669,0,0,0-1.069,2.16A20.358,20.358,0,0,0,2.3,6.516Q2.015,7.79,1.821,9.238t-.248,2.938a16.9,16.9,0,0,0,.119,2.808,4.053,4.053,0,0,0,.14.756,2.683,2.683,0,0,0,.248.583,1.826,1.826,0,0,0,.745.767,2.68,2.68,0,0,0,1.091.292q.124.011.237.011a1.5,1.5,0,0,0,.573-.1.992.992,0,0,0,.486-.421,1.786,1.786,0,0,0,.216-.745,7.946,7.946,0,0,0,.022-1.037q.043-.907.13-1.869t.259-1.933a2.228,2.228,0,0,1,1.091.724,4.35,4.35,0,0,1,.626,1.145q.248.659.486,1.436a9.244,9.244,0,0,0,.67,1.6,2.678,2.678,0,0,0,.821,1,2.91,2.91,0,0,0,1.339.464,4.557,4.557,0,0,0,1.015-.13A6.675,6.675,0,0,0,13.3,17a10.5,10.5,0,0,0,1.436-.853,6.006,6.006,0,0,0,.9-.769,7.887,7.887,0,0,1-.1-1.132q0-.149-.006-.3a.851.851,0,0,0-.286.054.471.471,0,0,0-.227.184,3.1,3.1,0,0,1-.94.864,2.809,2.809,0,0,1-1.048.41,1.045,1.045,0,0,1-.7-.443,5.836,5.836,0,0,1-.594-.95q-.281-.551-.562-1.145a5.179,5.179,0,0,0-.626-1.026,4.8,4.8,0,0,0-.81-.756,4.23,4.23,0,0,0-1.156-.583,5.135,5.135,0,0,0,1.663-.724,7.322,7.322,0,0,0,1.285-1.112,14,14,0,0,0,1.058-1.307q.486-.68.972-1.329A11.065,11.065,0,0,1,14.587,4.9a4.324,4.324,0,0,1,1.231-.864q.691-.216.626-.54-.065-.259-.54-.54a4.77,4.77,0,0,0-1.058-.432,3.708,3.708,0,0,0-.95-.173,3.984,3.984,0,0,0-1.825.4,5.27,5.27,0,0,0-1.415,1.048A8.624,8.624,0,0,0,9.533,5.241q-.5.8-.95,1.6t-.9,1.523a5.522,5.522,0,0,1-.961,1.2,1,1,0,0,1-.281.13q-.086.022-.151.032a.931.931,0,0,1-.151.011q.281-1.3.67-2.517A17.547,17.547,0,0,1,7.7,4.96q.194-.41.346-.778A1.071,1.071,0,0,0,8.15,3.6a1.575,1.575,0,0,0-.4-.832,3.464,3.464,0,0,0-.745-.637,4.284,4.284,0,0,0-.788-.4,2.678,2.678,0,0,0-.572-.162q-.119-.009-.232-.009m27.666.549q-.389.022-.832.086a2.961,2.961,0,0,0-.8.227,1.438,1.438,0,0,0-.572.454,1,1,0,0,0-.13.788,1.756,1.756,0,0,0,.324.767q.259.357.562.821a10.154,10.154,0,0,1,.616,1.113,6.275,6.275,0,0,1,.486,1.62,13.872,13.872,0,0,1,.205,2.668,10.128,10.128,0,0,1-.281,2.236,4.217,4.217,0,0,1-.691,1.545,1.281,1.281,0,0,1-1.026.572.569.569,0,0,1-.27-.076,1.641,1.641,0,0,1-.281-.194,1.474,1.474,0,0,1-.248-.27.991.991,0,0,1-.151-.3,4.931,4.931,0,0,1,.292-3.089,3.22,3.22,0,0,1,1.76-1.663.656.656,0,0,0,.346-.27.75.75,0,0,0,.022-.486q-.13-.626-.907-.626a6.646,6.646,0,0,0-2.1.335,4.052,4.052,0,0,0-1.728,1.1,4.353,4.353,0,0,0-1,2.031,6.522,6.522,0,0,0-.123,1.837q.156-.211.328-.422.194-.238.346-.238a.933.933,0,0,1,.5.205.584.584,0,0,1,.238.486,2.276,2.276,0,0,1-.432,1.316,4.919,4.919,0,0,1-.611.72,2.732,2.732,0,0,0,.633.945,3.69,3.69,0,0,0,1.577.907,4.617,4.617,0,0,0,1.231.173,6.344,6.344,0,0,0,2.614-.486,5.007,5.007,0,0,0,1.782-1.307,5.75,5.75,0,0,0,1.069-1.89,9.979,9.979,0,0,0,.486-2.247,14.415,14.415,0,0,0,.043-2.365q-.076-1.188-.248-2.247a10.511,10.511,0,0,0-.5-1.815,8.561,8.561,0,0,0-.734-1.523A4.352,4.352,0,0,0,34,2.5a1.44,1.44,0,0,0-.918-.389m18.664,5.53a5.019,5.019,0,0,0-1.523.216,3.33,3.33,0,0,0-1.145.6,2.245,2.245,0,0,0-.67.918,2.072,2.072,0,0,0-.1,1.134,1.981,1.981,0,0,0,.551.994q.464.5,1,.983t1,.94a1.638,1.638,0,0,1,.529.842,1.008,1.008,0,0,1-.119.767.8.8,0,0,1-.724.313,2.368,2.368,0,0,1-1-.151.564.564,0,0,1-.335-.389.3.3,0,0,1,.151-.335q.194-.119.41-.238a1.46,1.46,0,0,0,.389-.313.642.642,0,0,0,.108-.562,1.137,1.137,0,0,0-.184-.443,2.653,2.653,0,0,0-.313-.378,2.6,2.6,0,0,0-.832-.529,2.19,2.19,0,0,0-.767-.184,1.958,1.958,0,0,0-.994.248,2.251,2.251,0,0,0-.713.637,2.342,2.342,0,0,0-.373.8q.064-.042.125-.087.205-.151.378-.27a.581.581,0,0,1,.324-.119.566.566,0,0,1,.562.313,1.272,1.272,0,0,1,.151.529,1.513,1.513,0,0,1-.6,1.1,2.286,2.286,0,0,1-.634.4,3.874,3.874,0,0,0,.731.879,4.733,4.733,0,0,0,2.365,1.1,6.07,6.07,0,0,0,1.274.13,6.78,6.78,0,0,0,2.139-.3A4.554,4.554,0,0,0,54.4,16.4a2.686,2.686,0,0,0,.821-1.112,2.415,2.415,0,0,0,.13-1.274A2.1,2.1,0,0,0,54.69,13q-.572-.562-1.253-1.145T52.174,10.7a2.117,2.117,0,0,1-.67-1.048q-.043-.3.454-.3.173,0,.346.27t.4.594a2.9,2.9,0,0,0,.562.594,1.316,1.316,0,0,0,.853.27.951.951,0,0,0,.443-.119,1.321,1.321,0,0,0,.4-.324,1.385,1.385,0,0,0,.259-.475,1.171,1.171,0,0,0,.022-.594,1.941,1.941,0,0,0-1.1-1.415,5.055,5.055,0,0,0-2.4-.508m-10.433.41a3.529,3.529,0,0,0-1.815.508,5.629,5.629,0,0,0-1.523,1.318A6.625,6.625,0,0,0,36.923,11.7a5.7,5.7,0,0,0-.389,2.052,3.57,3.57,0,0,0,.281,1.415,3.428,3.428,0,0,0,.788,1.145,3.589,3.589,0,0,0,1.21.756,4.268,4.268,0,0,0,1.544.27,5.137,5.137,0,0,0,2.106-.4,5.533,5.533,0,0,0,1.825-1.458,1.176,1.176,0,0,0,.583.173H45.1a1.154,1.154,0,0,0,.227-.022h.022a3.594,3.594,0,0,0,1.051-.252,2.693,2.693,0,0,1-.338-.892,2.153,2.153,0,0,1,.022-.907q.007-.032.015-.064a3.079,3.079,0,0,1-.318.183,1.143,1.143,0,0,1-.518.119A.6.6,0,0,1,45,13.774a6.647,6.647,0,0,0,.421-1.22,5.744,5.744,0,0,0,.184-1.415,3.29,3.29,0,0,0-.162-1,3,3,0,0,0-.464-.907,2.35,2.35,0,0,0-.756-.648,2.169,2.169,0,0,0-1.058-.248,3.193,3.193,0,0,0-.626.065,1.675,1.675,0,0,0-.572-.259,2.629,2.629,0,0,0-.659-.086M43.1,11.225a.739.739,0,0,1-.151-.41,3.655,3.655,0,0,1-.043-.5q0-.475.108-.475t.14.259a3.423,3.423,0,0,1,.032.367,4.235,4.235,0,0,1-.022.443,1.235,1.235,0,0,1-.065.313m-2.117,3.8a.964.964,0,0,1-.842-.335,1.4,1.4,0,0,1-.238-.832,3.856,3.856,0,0,1,.259-1.4,7.022,7.022,0,0,1,.583-1.188,6.788,6.788,0,0,1,.616-.853,3.38,3.38,0,0,1,.356-.378,2.276,2.276,0,0,0-.065.3q-.022.151-.032.324t-.011.41a6.332,6.332,0,0,0,.162,1.328,3.558,3.558,0,0,0,.7,1.436.742.742,0,0,1-.086.292,1.615,1.615,0,0,1-.259.378,1.591,1.591,0,0,1-1.145.518M18.195,8.179a1.652,1.652,0,0,0-1.134.41,3.283,3.283,0,0,0-.778,1.069,6.633,6.633,0,0,0-.486,1.469,11.381,11.381,0,0,0-.227,1.609q-.043.632-.038,1.21h.027a.857.857,0,0,1,.389.086.387.387,0,0,1,.216.259,1.149,1.149,0,0,1-.346.886q-.084.1-.179.2l.006.035a2.3,2.3,0,0,0,.81,1.437A2.4,2.4,0,0,0,18,17.36a3.032,3.032,0,0,0,1.458-.439A10.427,10.427,0,0,0,21,15.86a2.257,2.257,0,0,0,.194.621,1.282,1.282,0,0,0,.6.61,2.563,2.563,0,0,0,1.123.2,3.034,3.034,0,0,0,.583-.064A6.559,6.559,0,0,0,25,16.706a7.917,7.917,0,0,0,1.437-.889,5.725,5.725,0,0,0,.48-.418,3.513,3.513,0,0,1-.21-.762,11.735,11.735,0,0,1-.155-1.306l-.039.053a4.694,4.694,0,0,1-1.2,1.177,1.784,1.784,0,0,1-.81.292.292.292,0,0,1-.281-.173,6.823,6.823,0,0,1,.356-1.148q.27-.693.551-1.452a11.919,11.919,0,0,0,.454-1.528A3.119,3.119,0,0,0,25.626,9.2a.763.763,0,0,0-.3-.488A1.825,1.825,0,0,0,24.7,8.4a5.265,5.265,0,0,0-.745-.163,4.846,4.846,0,0,0-.68-.054,1.232,1.232,0,0,0-.875.293,2.353,2.353,0,0,0-.54.867,13.124,13.124,0,0,0-.454,1.43q-.227.856-.616,1.983a6.019,6.019,0,0,1-.637,1.42,1.073,1.073,0,0,1-.9.6q-.173,0-.194-.2a16.574,16.574,0,0,1,.464-2.2q.248-.813.432-1.333a7.987,7.987,0,0,0,.27-.91,2.517,2.517,0,0,0,0-.932,1.228,1.228,0,0,0-.13-.369.7.7,0,0,0-.324-.325,1.962,1.962,0,0,0-.616-.238,4.414,4.414,0,0,0-.961-.087M5.412,0q.173,0,.354.014A4.019,4.019,0,0,1,6.76.269,5.854,5.854,0,0,1,7.838.812a5.041,5.041,0,0,1,1.08.922,3.219,3.219,0,0,1,.606.987l.01-.011a6.853,6.853,0,0,1,1.831-1.355A5.543,5.543,0,0,1,13.9.787a5.056,5.056,0,0,1,1.379.233,6.346,6.346,0,0,1,1.4.577,2.571,2.571,0,0,1,1.279,1.516A2,2,0,0,1,16.406,5.48,2.744,2.744,0,0,0,15.69,6a9.554,9.554,0,0,0-.881,1.021q-.475.634-.951,1.3a15.624,15.624,0,0,1-1.176,1.452,8.861,8.861,0,0,1-1.059.983q.06.067.118.136a6.8,6.8,0,0,1,.843,1.364q.271.572.541,1.1.091.179.184.334a1.521,1.521,0,0,0,.437-.408,1.818,1.818,0,0,1,.247-.3q.009-.176.021-.355a13.013,13.013,0,0,1,.258-1.83,8.224,8.224,0,0,1,.6-1.813,4.845,4.845,0,0,1,1.153-1.568,3.218,3.218,0,0,1,2.167-.8,5.872,5.872,0,0,1,1.31.126,3.46,3.46,0,0,1,1.106.443,2.311,2.311,0,0,1,.492.382,3.113,3.113,0,0,1,.23-.239,2.756,2.756,0,0,1,1.94-.713,6.421,6.421,0,0,1,.9.07,6.862,6.862,0,0,1,.965.21,3.384,3.384,0,0,1,1.155.589,2.451,2.451,0,0,1,.55.606,5.622,5.622,0,0,1,2.074-1.214,8.2,8.2,0,0,1,1.655-.362q-.127-.23-.249-.417-.278-.427-.516-.755a3.309,3.309,0,0,1-.6-1.441,2.484,2.484,0,0,1,.417-1.96A2.984,2.984,0,0,1,30.8,1a4.53,4.53,0,0,1,1.219-.35q.517-.076.971-.1l.043,0h.043A2.954,2.954,0,0,1,35,1.3a5.914,5.914,0,0,1,1.2,1.419,10.162,10.162,0,0,1,.871,1.8A12.121,12.121,0,0,1,37.637,6.6q.1.607.168,1.236a7.043,7.043,0,0,1,.9-.627,5.085,5.085,0,0,1,2.6-.723h0a4.2,4.2,0,0,1,1.049.136,3.509,3.509,0,0,1,.473.158q.17-.013.337-.013a3.717,3.717,0,0,1,1.808.44,3.912,3.912,0,0,1,1.251,1.075A4.508,4.508,0,0,1,46.8,9.3a3.557,3.557,0,0,1,.15-.487,3.8,3.8,0,0,1,1.123-1.55,4.89,4.89,0,0,1,1.674-.9,7.276,7.276,0,0,1,5.127.4A3.46,3.46,0,0,1,56.78,9.305a2.655,2.655,0,0,1-.075,1.326,2.935,2.935,0,0,1-.857,1.317,3.468,3.468,0,0,1,1.033,1.771,4,4,0,0,1-.2,2.119A4.237,4.237,0,0,1,55.4,17.6a6.117,6.117,0,0,1-2,1.07,8.353,8.353,0,0,1-2.632.382,7.66,7.66,0,0,1-1.6-.164,6.24,6.24,0,0,1-3.092-1.476q-.141-.129-.27-.263-.149.022-.3.038h0a2.757,2.757,0,0,1-.4.029h-.227l-.089,0A6.152,6.152,0,0,1,43.1,18.363a6.7,6.7,0,0,1-2.741.535,5.839,5.839,0,0,1-2.1-.374,5.157,5.157,0,0,1-1.728-1.085,4.97,4.97,0,0,1-.634-.739,6.591,6.591,0,0,1-2.28,1.661,7.907,7.907,0,0,1-3.254.623,6.2,6.2,0,0,1-1.646-.229,5.268,5.268,0,0,1-2.1-1.157,9.685,9.685,0,0,1-.93.513,8.144,8.144,0,0,1-1.847.646,4.59,4.59,0,0,1-.9.1,4.026,4.026,0,0,1-1.816-.366,2.916,2.916,0,0,1-.585-.383q-.153.092-.307.177A4.57,4.57,0,0,1,18,18.919a3.934,3.934,0,0,1-2.516-.847,3.715,3.715,0,0,1-.346-.313,12.3,12.3,0,0,1-1.146.643,8.253,8.253,0,0,1-1.75.649,6.138,6.138,0,0,1-1.37.17h-.1l-.1-.013a4.445,4.445,0,0,1-2.05-.744,4.228,4.228,0,0,1-1.307-1.574c-.118-.224-.228-.451-.33-.68q0,.033-.006.065a3.328,3.328,0,0,1-.427,1.392,2.557,2.557,0,0,1-1.231,1.067,3.047,3.047,0,0,1-1.169.216q-.177,0-.372-.017a4.194,4.194,0,0,1-1.691-.47,3.366,3.366,0,0,1-1.381-1.4,4.134,4.134,0,0,1-.371-.878,5.544,5.544,0,0,1-.2-1.049,18.347,18.347,0,0,1-.126-3.02C.051,11.079.139,10.04.275,9.03s.3-1.962.5-2.85A21.99,21.99,0,0,1,1.4,3.852,8.033,8.033,0,0,1,2.75,1.2,3.345,3.345,0,0,1,5.412,0Z" transform="translate(0 0)" fill="#303036"/>
    </g>
  </g>
</svg>
