<svg xmlns="http://www.w3.org/2000/svg" width="285.398" height="158.291" viewBox="0 0 285.398 158.291">
  <g id="Grupo_14" data-name="Grupo 14" transform="translate(-497.592 -221.594)">
    <g id="Trazado_27" data-name="Trazado 27" transform="translate(613.995 245.491) rotate(3)">
      <path id="Trazado_489" data-name="Trazado 489" d="M83.595,80.932A18.172,18.172,0,0,1,78.28,80.1a22,22,0,0,1-4.925-2.186,17.393,17.393,0,0,1-4.061-3.354,9.7,9.7,0,0,1-2.407-4.847,6.422,6.422,0,0,1,.717-4.184,13.322,13.322,0,0,1,2.376-3.294,14.765,14.765,0,0,1,3.358-2.583q-.185-.152-.366-.311-.521-.456-1-.953a30.76,30.76,0,0,1-4.28,2.515,14.968,14.968,0,0,1-6.477,1.728c-3.236,0-5.586-.733-7.184-2.241a10.619,10.619,0,0,1-2.925-6.1,31.377,31.377,0,0,1-.448-4.389c-.048-1.078-.052-2.211-.012-3.39a30.64,30.64,0,0,1-10.8,11.3,28.865,28.865,0,0,1-9.533,3.722c-1.092.218-2.176.381-3.259.489s-2.2.163-3.333.163q-.54,0-1.12-.012a5.2,5.2,0,0,1-1.5,1.515A7.134,7.134,0,0,1,17.049,64.7a9.537,9.537,0,0,1-8.488-4.313c-.092-.161-.176-.313-.253-.459a16.022,16.022,0,0,1-2.04-1.019A6.368,6.368,0,0,1,2.9,53.366a4.808,4.808,0,0,1,2.8-4.38q-.051-.648-.087-1.314c-.127-2.345-.153-4.81-.077-7.328s.243-5,.5-7.409.575-4.708.956-6.843c.292-1.634.611-3.116.954-4.423a11.759,11.759,0,0,1-3.6-.719,6.884,6.884,0,0,1-3.3-2.536,6.138,6.138,0,0,1-1.037-3.4V13.349A8.123,8.123,0,0,1,2,7.811,16.032,16.032,0,0,1,6.532,4.2a27.941,27.941,0,0,1,6.012-2.412A50.015,50.015,0,0,1,19.2.409,43.335,43.335,0,0,1,25.1,0l.98.012a38.111,38.111,0,0,1,6.351.646,26.515,26.515,0,0,1,11.149,4.73,27.48,27.48,0,0,1,7.3,8.18,29.94,29.94,0,0,1,3.62,10.194,35.076,35.076,0,0,1,.464,5.781,13.335,13.335,0,0,1,1.743-1.987,8.432,8.432,0,0,1,5.046-2.237,8.682,8.682,0,0,1-2.012-2A9.129,9.129,0,0,1,58.23,19.61a15.221,15.221,0,0,1,0-5.338,12.626,12.626,0,0,1,1.616-4.3,9.627,9.627,0,0,1,3-3.085,7.513,7.513,0,0,1,4.074-1.241,15.534,15.534,0,0,1,3.215.4,19.713,19.713,0,0,1,3.577,1.134A15.921,15.921,0,0,1,76.9,8.958a5.665,5.665,0,0,1,2.437,3.718c.19,1.005.17,3.141-2.279,5.075a2.906,2.906,0,0,0-.793,1.065q-.69,1.344-1.38,2.76a19.982,19.982,0,0,1-1.746,2.96,5.277,5.277,0,0,1-3.609,2.341A6.009,6.009,0,0,1,71.3,28.485a6.93,6.93,0,0,1,1.2,2.661,12.954,12.954,0,0,1,.2,3.135,12.351,12.351,0,0,1-.533,2.735q-.039.126-.081.256.7-.967,1.491-1.887a30.6,30.6,0,0,1,6.645-5.744,25.149,25.149,0,0,1,7.816-3.392c.285-.063.562-.118.836-.164a8.155,8.155,0,0,1,.93-1.929,10.232,10.232,0,0,1,2.21-2.443,7.161,7.161,0,0,1,2.786-1.36,8.713,8.713,0,0,1,1.917-.259,14.024,14.024,0,0,1,3.08.448,31.064,31.064,0,0,1,3.565,1.065,18.816,18.816,0,0,1,3.59,1.9,6.134,6.134,0,0,1,2.741,3.75,6.5,6.5,0,0,1,.1,1.744q-.043.638-.127,1.319-.02.279-.045.577a13.929,13.929,0,0,1,2.606-3.337,8.432,8.432,0,0,1,5.046-2.237,8.682,8.682,0,0,1-2.012-2,9.129,9.129,0,0,1-1.519-3.714,15.221,15.221,0,0,1,0-5.338,12.626,12.626,0,0,1,1.616-4.3,9.627,9.627,0,0,1,3-3.085,7.513,7.513,0,0,1,4.074-1.241,15.534,15.534,0,0,1,3.215.4,19.713,19.713,0,0,1,3.577,1.134A15.921,15.921,0,0,1,132.4,8.958a5.665,5.665,0,0,1,2.437,3.718c.19,1.005.17,3.141-2.279,5.075a2.906,2.906,0,0,0-.793,1.065q-.69,1.344-1.38,2.76a19.981,19.981,0,0,1-1.746,2.96,5.277,5.277,0,0,1-3.609,2.341,6.009,6.009,0,0,1,1.767,1.608,6.93,6.93,0,0,1,1.2,2.661,12.954,12.954,0,0,1,.2,3.135,12.35,12.35,0,0,1-.533,2.735q-.361,1.162-.921,2.6-.486,1.251-1.041,3.058c-.156.548-.318,1.174-.483,1.866q1.209-1.253,2.5-2.666a3.833,3.833,0,0,1,2.778-1.184,5.814,5.814,0,0,1,3.448,1.455,5.553,5.553,0,0,1,1.921,3.319,8.47,8.47,0,0,1-1.8,6.486A25.848,25.848,0,0,1,129.306,57a30.811,30.811,0,0,1-6.109,3.9,14.968,14.968,0,0,1-6.477,1.728c-3.236,0-5.586-.733-7.184-2.241a8.476,8.476,0,0,1-1.663-2.215,25.382,25.382,0,0,1-3.32,1.655,64.888,64.888,0,0,1-2.063,6.617,28.154,28.154,0,0,1-3.94,7.245,18.857,18.857,0,0,1-6.192,5.267A18.532,18.532,0,0,1,83.595,80.932Zm-.339-18.125.705,1.449a7.133,7.133,0,0,0,1.4,1.945,1.6,1.6,0,0,0,.841.29,11.055,11.055,0,0,0,.306-1.653c.108-.914.173-1.9.194-2.946a18.318,18.318,0,0,1-2.283.7Q83.827,62.726,83.256,62.807ZM30.578,20.2q-.067.211-.146.427-.477,1.312-1.033,2.584A53.205,53.205,0,0,0,26.785,30.3c-.76,2.59-1.411,5.278-1.934,7.989s-.921,5.461-1.183,8.171q-.081.842-.146,1.666a21.715,21.715,0,0,0,2.368-.454,12.512,12.512,0,0,0,7.292-4.555c1.736-2.274,2.616-5.509,2.616-9.614a22.669,22.669,0,0,0-1.018-6.652,14.993,14.993,0,0,0-2.8-5.329A8.492,8.492,0,0,0,30.578,20.2ZM87.767,42c-.042.07-.083.139-.123.21a11.872,11.872,0,0,0-1.159,2.695,5.419,5.419,0,0,0-.238,2,2.453,2.453,0,0,0,.325.879,4.237,4.237,0,0,0,.624-.144Q87.538,44.649,87.767,42Z" transform="translate(2.966 2.964)" fill="#fff"/>
      <path id="Trazado_490" data-name="Trazado 490" d="M28.071,5.928a40.207,40.207,0,0,0-5.5.381,46.857,46.857,0,0,0-6.262,1.3,24.869,24.869,0,0,0-5.373,2.149,13.045,13.045,0,0,0-3.705,2.927,5.188,5.188,0,0,0-1.3,3.631v1.667a3.209,3.209,0,0,0,.556,1.778,4,4,0,0,0,1.927,1.408,11.821,11.821,0,0,0,4.187.556h0A20.967,20.967,0,0,0,15,21.585a16.846,16.846,0,0,1,2.315-4.308,6.433,6.433,0,0,1,5.373-2.3,6.792,6.792,0,0,1,2.334.482,13.331,13.331,0,0,1,2.52,1.26,10.212,10.212,0,0,1,2.149,1.816l.1.114a9.121,9.121,0,0,1,1.864.33,11.182,11.182,0,0,1,5.558,3.594,17.849,17.849,0,0,1,3.372,6.373,25.513,25.513,0,0,1,1.149,7.522q0,7.188-3.224,11.412a15.489,15.489,0,0,1-8.93,5.632,24.673,24.673,0,0,1-3,.556,26.655,26.655,0,0,1-3.224.185h-.017q-.057,1.476-.057,2.89.148,1.778.259,3.149a9.067,9.067,0,0,1-.015,1.8q1.733.086,3.165.086,1.556,0,3.038-.148t2.964-.445a25.792,25.792,0,0,0,8.559-3.335A27.781,27.781,0,0,0,52.325,45.362a32.4,32.4,0,0,0,2.3-8.226,31.879,31.879,0,0,0-.074-9.93,26.859,26.859,0,0,0-3.261-9.189,24.425,24.425,0,0,0-6.521-7.3,23.5,23.5,0,0,0-9.93-4.187,35.005,35.005,0,0,0-5.854-.593q-.455-.011-.911-.011m41.817,5.643a4.579,4.579,0,0,0-2.482.778A6.659,6.659,0,0,0,65.33,14.5a9.644,9.644,0,0,0-1.223,3.3,12.113,12.113,0,0,0,0,4.224,6.194,6.194,0,0,0,1,2.52,5.572,5.572,0,0,0,1.63,1.519A5.758,5.758,0,0,0,68.7,26.8a12.2,12.2,0,0,0,2.149.185,4.8,4.8,0,0,0,.593-.037,4.794,4.794,0,0,1,.593-.037A2.393,2.393,0,0,0,73.7,25.762a16.96,16.96,0,0,0,1.482-2.52q.7-1.445,1.408-2.816a5.8,5.8,0,0,1,1.593-2.038,2.406,2.406,0,0,0,1.186-2.3,2.807,2.807,0,0,0-1.26-1.778,12.917,12.917,0,0,0-2.594-1.445,16.685,16.685,0,0,0-3.038-.963,12.81,12.81,0,0,0-2.594-.333m55.5,0a4.579,4.579,0,0,0-2.482.778,6.659,6.659,0,0,0-2.075,2.149,9.644,9.644,0,0,0-1.223,3.3,12.113,12.113,0,0,0,0,4.224,6.194,6.194,0,0,0,1,2.52,5.572,5.572,0,0,0,1.63,1.519,5.758,5.758,0,0,0,1.964.741,12.2,12.2,0,0,0,2.149.185,4.8,4.8,0,0,0,.593-.037,4.794,4.794,0,0,1,.593-.037,2.393,2.393,0,0,0,1.667-1.149,16.962,16.962,0,0,0,1.482-2.52q.7-1.445,1.408-2.816a5.8,5.8,0,0,1,1.593-2.038,2.406,2.406,0,0,0,1.186-2.3,2.807,2.807,0,0,0-1.26-1.778,12.917,12.917,0,0,0-2.594-1.445,16.685,16.685,0,0,0-3.038-.963,12.81,12.81,0,0,0-2.594-.333M29.029,18.624a14.64,14.64,0,0,0-5.087,1.025q-2.89.593-5.743,1.334a23.333,23.333,0,0,1-3.2.6q-.474,1.216-.909,2.658a48.551,48.551,0,0,0-1.223,5.335q-.556,3.112-.926,6.632T11.456,43.4q-.111,3.668.074,7.077.1,1.919.338,3.686.838-.055,1.922-.055.741,0,2.186.037t2.927.037q1.482,0,2.742.037,1.236.036,1.687.037.1-2.469.351-5.113.408-4.224,1.223-8.448t2-8.263a55.739,55.739,0,0,1,2.742-7.447q.519-1.186.963-2.408a3.625,3.625,0,0,0,.3-1.89,5.205,5.205,0,0,0-1.123-2.035q-.373-.028-.757-.028m70.648,7.4a6.125,6.125,0,0,0-1.26.185,4.215,4.215,0,0,0-1.63.815,7.271,7.271,0,0,0-1.556,1.741,6.763,6.763,0,0,0-.963,2.964q-.593.074-1.26.148a12.522,12.522,0,0,0-1.334.222,22.1,22.1,0,0,0-6.892,3,27.509,27.509,0,0,0-6,5.187,22.469,22.469,0,0,0-3.965,6.484,13.469,13.469,0,0,0-.909,3.727q1.651-1.673,3.465-3.652a.8.8,0,0,1,.593-.222,2.81,2.81,0,0,1,1.519.741,2.582,2.582,0,0,1,.926,1.556,5.671,5.671,0,0,1-1.3,4.291,22.283,22.283,0,0,1-3.678,4,13.142,13.142,0,0,0,2.456,2.863,12.812,12.812,0,0,0,3.224,2.075,8.557,8.557,0,0,0,3.52.778,9.16,9.16,0,0,0,2.075-.259,15.414,15.414,0,0,0,2.223-.7A20.2,20.2,0,0,0,91.007,61a17.193,17.193,0,0,0,1.7-1.037q-.074,1.927-.074,4.113a34.971,34.971,0,0,1-.222,4.076,11.515,11.515,0,0,1-.741,3.112,1.679,1.679,0,0,1-1.556,1.223,5.324,5.324,0,0,1-3.89-1.223,10.152,10.152,0,0,1-1.964-2.742Q83.522,67,82.893,65.7a2.47,2.47,0,0,0-2.112-1.445,6.815,6.815,0,0,0-3,.926,11.755,11.755,0,0,0-2.7,2.075,10.318,10.318,0,0,0-1.853,2.557,3.625,3.625,0,0,0-.445,2.371,6.757,6.757,0,0,0,1.7,3.372,14.367,14.367,0,0,0,3.372,2.779,18.944,18.944,0,0,0,4.261,1.89,15.147,15.147,0,0,0,4.446.7,15.549,15.549,0,0,0,7.373-1.63,15.839,15.839,0,0,0,5.224-4.446,25.08,25.08,0,0,0,3.52-6.484,63.069,63.069,0,0,0,2.334-7.818,21.544,21.544,0,0,0,4.557-2.112,29.839,29.839,0,0,0,2.876-1.977,30.861,30.861,0,0,1-.356-3.736q-.082-1.834.018-3.874-.948.926-1.722,1.62a16.8,16.8,0,0,1-2.112,1.63q-.519.371-.963.63a4.743,4.743,0,0,1-.889.408q.445-2.668.963-5.41t1-5.373q.482-2.631.815-5.039t.482-4.409q.074-.593.111-1.149a3.607,3.607,0,0,0-.037-.926,3.3,3.3,0,0,0-1.519-1.927,15.6,15.6,0,0,0-2.927-1.556,27.994,27.994,0,0,0-3.224-.963,11.672,11.672,0,0,0-2.408-.371M89.6,53.662a3.015,3.015,0,0,1-2.112-.778,4.849,4.849,0,0,1-1.223-2.7,8.289,8.289,0,0,1,.333-3.112,14.754,14.754,0,0,1,1.445-3.372,18.419,18.419,0,0,1,2.223-3.075,11.9,11.9,0,0,1,2.742-2.3,7.7,7.7,0,0,1,.778-.408q.408-.185.778-.333-.519,3.261-.815,6.892T92.934,52.4a6.1,6.1,0,0,1-1.593.926,4.741,4.741,0,0,1-1.741.333M65.589,31.208a5.5,5.5,0,0,0-3.89,1.482,11.6,11.6,0,0,0-2.631,3.779,23.253,23.253,0,0,0-1.593,5.187A51.636,51.636,0,0,0,56.7,47.4a43.623,43.623,0,0,0-.111,5.329,28.964,28.964,0,0,0,.408,4.02A7.746,7.746,0,0,0,59.031,61.2q1.519,1.433,5.15,1.433A12.257,12.257,0,0,0,69.369,61.2a27.712,27.712,0,0,0,5.521-3.527q.278-.228.546-.459l-.064-.1a9.436,9.436,0,0,1-1.334-3.52,11.6,11.6,0,0,1-.131-3.091q-.574.582-1.129,1.127-2.149,2.112-3.557,2.112-.593,0-.593-.445.37-2.816.815-4.891t.889-3.631q.593-1.927,1.112-3.261T72.3,39.1a9.334,9.334,0,0,0,.408-2.075,9.931,9.931,0,0,0-.148-2.334,3.986,3.986,0,0,0-.7-1.519A4.5,4.5,0,0,0,69.813,31.8a12.581,12.581,0,0,0-4.224-.593m55.5,0a5.5,5.5,0,0,0-3.89,1.482,11.6,11.6,0,0,0-2.631,3.779,23.253,23.253,0,0,0-1.593,5.187A51.637,51.637,0,0,0,112.2,47.4q-.058.74-.093,1.455.367-.358.76-.751a3.208,3.208,0,0,1,2.3-1.408,2.533,2.533,0,0,1,2.038.926,5.777,5.777,0,0,1,1,1.519,7.339,7.339,0,0,1-1.445,3,20.934,20.934,0,0,1-3.075,3.3q-.6.526-1.237,1.025.025.146.052.284a7.746,7.746,0,0,0,2.038,4.447q1.519,1.433,5.15,1.433a12.257,12.257,0,0,0,5.187-1.433,27.712,27.712,0,0,0,5.521-3.527,22.781,22.781,0,0,0,4.224-4.458,5.671,5.671,0,0,0,1.3-4.291,2.582,2.582,0,0,0-.926-1.556,2.81,2.81,0,0,0-1.519-.741.8.8,0,0,0-.593.222q-2.445,2.668-4.594,4.78t-3.557,2.112q-.593,0-.593-.445.37-2.816.815-4.891t.889-3.631q.593-1.927,1.112-3.261T127.8,39.1a9.335,9.335,0,0,0,.408-2.075,9.931,9.931,0,0,0-.148-2.334,3.985,3.985,0,0,0-.7-1.519,4.5,4.5,0,0,0-2.038-1.371,12.581,12.581,0,0,0-4.224-.593M11.868,54.162l-.264.019a4.151,4.151,0,0,0-1.519.371,1.9,1.9,0,0,0-1.26,1.778,3.417,3.417,0,0,0,1.927,3,14.013,14.013,0,0,0,2.677,1.212,19.225,19.225,0,0,1-1.121-3.731q-.259-1.279-.44-2.65m1.561,6.381a12.893,12.893,0,0,0,.583,1.2,6.648,6.648,0,0,0,6,2.964,4.414,4.414,0,0,0,2.408-.519,2.359,2.359,0,0,0,1-1.519q.06-.27.1-.568-1.049-.052-2.208-.136a39.273,39.273,0,0,1-5.854-.852,20.206,20.206,0,0,1-2.028-.567M28.071,0,29.12.012a41.072,41.072,0,0,1,6.848.7A29.422,29.422,0,0,1,48.337,5.986a30.435,30.435,0,0,1,8.081,9.061A32.3,32.3,0,0,1,58.061,18.3a15.715,15.715,0,0,1,.224-1.621A15.569,15.569,0,0,1,60.3,11.368a12.566,12.566,0,0,1,3.927-4.021,10.427,10.427,0,0,1,5.665-1.7h0a18.4,18.4,0,0,1,3.836.465,22.721,22.721,0,0,1,4.115,1.3,18.871,18.871,0,0,1,3.781,2.121,8.56,8.56,0,0,1,3.613,5.657,8.058,8.058,0,0,1-3.25,7.755c-.582,1.1-1.025,1.987-1.467,2.895a22.962,22.962,0,0,1-2.01,3.4,9.808,9.808,0,0,1-1.236,1.411,9.8,9.8,0,0,1,.871,1.982,34.048,34.048,0,0,1,3.442-2.523,28.382,28.382,0,0,1,8.127-3.631,10.365,10.365,0,0,1,.589-1,13.17,13.17,0,0,1,2.864-3.144A10.1,10.1,0,0,1,97.1,20.425a11.546,11.546,0,0,1,2.574-.333,16.756,16.756,0,0,1,3.751.525,34.037,34.037,0,0,1,3.907,1.166,22,22,0,0,1,4.254,2.239,9.9,9.9,0,0,1,3.03,3.176q.237-.158.481-.3a12.781,12.781,0,0,1-1.313-3.765,18.289,18.289,0,0,1,0-6.453,15.565,15.565,0,0,1,2.009-5.308,12.561,12.561,0,0,1,3.927-4.021,10.427,10.427,0,0,1,5.665-1.7h0a18.4,18.4,0,0,1,3.836.465,22.731,22.731,0,0,1,4.115,1.3,18.876,18.876,0,0,1,3.78,2.121,8.56,8.56,0,0,1,3.613,5.658,8.057,8.057,0,0,1-3.25,7.754c-.582,1.1-1.025,1.987-1.467,2.895a22.963,22.963,0,0,1-2.01,3.4,9.806,9.806,0,0,1-1.236,1.411,9.513,9.513,0,0,1,1.1,2.879,16.056,16.056,0,0,1,.247,3.935,15.216,15.216,0,0,1-.608,3.23h.253l.294.029a8.6,8.6,0,0,1,4.787,2.139,8.481,8.481,0,0,1,2.916,5.083c.536,2.776-.229,5.746-2.3,8.682a28.794,28.794,0,0,1-5.311,5.627,33.782,33.782,0,0,1-6.7,4.279,17.821,17.821,0,0,1-7.767,2.024c-4.028,0-7.043-1-9.218-3.049q-.246-.233-.479-.481c-.523,1.878-1.111,3.692-1.757,5.42a31.105,31.105,0,0,1-4.36,8.005,21.8,21.8,0,0,1-7.161,6.088,21.45,21.45,0,0,1-10.15,2.321,21.128,21.128,0,0,1-6.183-.964,24.966,24.966,0,0,1-5.588-2.483,20.355,20.355,0,0,1-4.75-3.928,12.612,12.612,0,0,1-3.11-6.323,8.717,8.717,0,0,1,.545-5,14.489,14.489,0,0,1-3.293.393c-4.028,0-7.043-1-9.218-3.049A13.461,13.461,0,0,1,51.158,57.8a34.419,34.419,0,0,1-6.783,5.5A31.813,31.813,0,0,1,33.867,67.4c-1.2.239-2.375.416-3.554.534q-1.647.165-3.37.177a8.166,8.166,0,0,1-1.231,1.006,8.29,8.29,0,0,1-1.789.9l.175.409-.7-.237a11.936,11.936,0,0,1-3.384.444A12.606,12.606,0,0,1,9.208,65.219q-.78-.372-1.491-.8A9.345,9.345,0,0,1,2.9,56.33,7.708,7.708,0,0,1,3.7,52.863l-.941-2.2,1.961.666a7.969,7.969,0,0,1,.87-.872c-.116-2.325-.137-4.757-.062-7.235.078-2.581.25-5.147.512-7.629s.592-4.85.986-7.054q.137-.766.282-1.491a11,11,0,0,1-1.119-.383A9.775,9.775,0,0,1,1.526,23,9.176,9.176,0,0,1,.007,17.981V16.314A10.968,10.968,0,0,1,2.7,8.867,18.975,18.975,0,0,1,8.059,4.573,30.883,30.883,0,0,1,14.709,1.9,53.069,53.069,0,0,1,21.762.437,46.316,46.316,0,0,1,28.071,0Zm1.793,47.212a9.027,9.027,0,0,0,3.927-2.926C35.124,42.539,35.8,39.91,35.8,36.47a19.7,19.7,0,0,0-.888-5.782,14.778,14.778,0,0,0-.583-1.583,52.568,52.568,0,0,0-1.733,5c-.734,2.5-1.363,5.1-1.868,7.716C30.382,43.607,30.093,45.412,29.864,47.212Z" transform="translate(0 0)" fill="#303036"/>
    </g>
    <g id="Trazado_26" data-name="Trazado 26" transform="translate(617.51 299.431) rotate(3)">
      <path id="Trazado_491" data-name="Trazado 491" d="M30.5,62.247a40.864,40.864,0,0,1-12.113-1.621A27.208,27.208,0,0,1,9.4,55.976a22.687,22.687,0,0,1-5.993-7.348A32.138,32.138,0,0,1,.374,39.276,25.724,25.724,0,0,1,.5,29.883a33.673,33.673,0,0,1,3.172-9.045A38.8,38.8,0,0,1,17.234,6.089,41.329,41.329,0,0,1,26.75,1.662,35.3,35.3,0,0,1,37.544,0a22.608,22.608,0,0,1,5.713.7,15.411,15.411,0,0,1,5.061,2.34A14.018,14.018,0,0,1,52.2,7.3,18.5,18.5,0,0,1,54.4,13.451a14.279,14.279,0,0,1,.173,3.479q.273-.207.56-.39a6.784,6.784,0,0,1,3.676-1.126,14.811,14.811,0,0,1,3.059.383,21.053,21.053,0,0,1,3.4,1.036,13.929,13.929,0,0,1,3.13,1.724,5.036,5.036,0,0,1,2.169,3.263,3.936,3.936,0,0,1-.752,2.843,17.247,17.247,0,0,1-1.275,1.576q-.294.327-.588.677a22.1,22.1,0,0,0,2.715.207,5.068,5.068,0,0,0,1.862-.368,8.1,8.1,0,0,1,2.881-.67,6.714,6.714,0,0,1,2.711.6,13.111,13.111,0,0,1,2.1,1.161,8.367,8.367,0,0,1,1.864,1.719,4.815,4.815,0,0,1,1.086,2.286,12.1,12.1,0,0,1-.431,5.14c-.461,1.637-1.005,3.284-1.619,4.9Q80.283,44.075,79.614,46a12.879,12.879,0,0,0,2.7-2.464l.2-.285a22.585,22.585,0,0,1,.053-3.752,18.206,18.206,0,0,1,2.156-7.084,16.815,16.815,0,0,1,6.959-6.694A24.63,24.63,0,0,1,103.5,23.195c3.718,0,6.476.764,8.433,2.337a10.307,10.307,0,0,1,3.683,6.349,9.733,9.733,0,0,1-.809,6.056,14.245,14.245,0,0,1-3.764,4.773,20.759,20.759,0,0,1-5.682,3.317,24.888,24.888,0,0,1-3.419,1.08,4.215,4.215,0,0,0,1.637.4,11.364,11.364,0,0,0,6.637-2.363A27.424,27.424,0,0,0,114.648,41q.108-.3.227-.608a27.644,27.644,0,0,1,4.874-8.057,28.452,28.452,0,0,1,7.115-5.946,16.361,16.361,0,0,1,8.275-2.454q.433,0,.866.018l.171-.445a3.966,3.966,0,0,1,1.893-1.928,5.13,5.13,0,0,1,2.479-.683,12.512,12.512,0,0,1,3.16.444,15.6,15.6,0,0,1,3.156,1.21,14.364,14.364,0,0,1,2.806,1.886,8.241,8.241,0,0,1,1.366,1.492h.924v1.8l.107.266-.175.7-.018.328q-.077.731-.346,2.54-.263,1.768-.79,4.665t-1.5,7.174l-.456,2.026c.832-.8,1.784-1.807,2.837-3.017l2.134-2.5a4.535,4.535,0,0,1,3.4-1.67,3.551,3.551,0,0,1,3.106,1.992,8.077,8.077,0,0,1,.9,2.063,6.505,6.505,0,0,1-.621,4.1,18.086,18.086,0,0,1-2.278,3.6,29.964,29.964,0,0,1-3.242,3.444,32.849,32.849,0,0,1-3.777,2.981,24.445,24.445,0,0,1-4,2.2,10.4,10.4,0,0,1-4.1.958,13.472,13.472,0,0,1-5.982-1.265,6.892,6.892,0,0,1-2.326-1.862,15.869,15.869,0,0,1-2.55,1.83,15.681,15.681,0,0,1-2.852,1.294,11.626,11.626,0,0,1-2.889.591h-.029A13.467,13.467,0,0,1,118.3,57.7a9.823,9.823,0,0,1-2.613-2.908,28.637,28.637,0,0,1-6.769,3.466,25.116,25.116,0,0,1-8.534,1.465,20.544,20.544,0,0,1-6.066-.877,17.211,17.211,0,0,1-5.145-2.557,16.225,16.225,0,0,1-3.236-3.164q-.414.384-.848.759a30.58,30.58,0,0,1-5.754,3.916,13.815,13.815,0,0,1-6.37,1.774c-7.194,0-9.846-3.891-10.8-7.155a8.947,8.947,0,0,1,.275-4.6,26.422,26.422,0,0,1,1.538-3.764q.847-1.7,1.658-3.354a8.876,8.876,0,0,0,.839-2.446,6.162,6.162,0,0,0,.124-.685,1.944,1.944,0,0,0-.427-.1,7.634,7.634,0,0,0-.947-.057,9.528,9.528,0,0,0-1.051.061q-.466.052-.874.066a81.556,81.556,0,0,1-3.91,8.1,35.046,35.046,0,0,1-6.528,8.465,29.66,29.66,0,0,1-9.367,5.932A34.743,34.743,0,0,1,30.5,62.247Zm6.225-50.391a9.525,9.525,0,0,0-4.8,1.2,13.9,13.9,0,0,0-3.992,3.423,22.134,22.134,0,0,0-3.06,5.153,33.934,33.934,0,0,0-1.982,6.189,38.231,38.231,0,0,0-.841,6.442,26.554,26.554,0,0,0,.338,5.81,10.462,10.462,0,0,0,1.259,3.51,11.518,11.518,0,0,0,2.423,2.952,11.338,11.338,0,0,0,3.38,2.01,11.7,11.7,0,0,0,4.237.739,18.37,18.37,0,0,0,5.714-1,19.967,19.967,0,0,0,5.8-3.105,21.461,21.461,0,0,0,4.929-5.41,23,23,0,0,0,2.9-6.794,11.324,11.324,0,0,1-.967-1.448,10.426,10.426,0,0,1-1.207-2.971,16.064,16.064,0,0,1-.214-3.393,10.358,10.358,0,0,1-2.23,1.625,8.158,8.158,0,0,1-3.83,1.079,12.309,12.309,0,0,1-4.255-.879,18.792,18.792,0,0,1-4.2-2.186,14.148,14.148,0,0,1-3.383-3.1,4.9,4.9,0,0,1-1-4.8,4.741,4.741,0,0,1,2.134-2.438q.969-.61,1.974-1.292a5.368,5.368,0,0,0,1.265-1.183.434.434,0,0,0,.061-.111C37.044,11.862,36.9,11.857,36.728,11.857ZM134.25,36.3a13.658,13.658,0,0,0-1.629,2.6,15.859,15.859,0,0,0-1.236,3.606,9.286,9.286,0,0,0-.193,3.071c.014.078.029.146.044.206a2.309,2.309,0,0,0,.931-.164.817.817,0,0,0,.339-.381,5.192,5.192,0,0,0,.354-1.371,23.055,23.055,0,0,1,.491-2.543Zm-32.687-1.666a5.859,5.859,0,0,0-.663.833,6.48,6.48,0,0,0-.594,1.137,4.438,4.438,0,0,0,.35-.366,4.579,4.579,0,0,0,.857-1.451Q101.54,34.712,101.563,34.636Zm.9-.622h0v0Z" transform="translate(2.224 2.223)" fill="#fff"/>
      <path id="Trazado_492" data-name="Trazado 492" d="M32.727,62.247A32.409,32.409,0,0,0,44.88,60.21a27.322,27.322,0,0,0,8.67-5.484A32.669,32.669,0,0,0,59.664,46.8a79.409,79.409,0,0,0,4.409-9.374,3.892,3.892,0,0,0,1.1.133,8.869,8.869,0,0,0,.972-.059,11.741,11.741,0,0,1,1.3-.074,9.849,9.849,0,0,1,1.223.074,3.435,3.435,0,0,1,1.927.815q.741.667.3,2.52a11.014,11.014,0,0,1-1.037,3.075q-.815,1.667-1.667,3.372a24.043,24.043,0,0,0-1.408,3.446,6.645,6.645,0,0,0-.259,3.3q1.63,5.558,8.67,5.558a11.592,11.592,0,0,0,5.335-1.519,28.226,28.226,0,0,0,5.335-3.631,27.349,27.349,0,0,0,2.676-2.639,12.8,12.8,0,0,1-1.046-3.03,21.162,21.162,0,0,1-.461-2.655l-.8,1.1a14.559,14.559,0,0,1-3.483,3.075,6.076,6.076,0,0,1-2.89,1.075q-.667,0-.667-.519a6.468,6.468,0,0,1,.482-3.149q.7-2.038,1.593-4.372t1.556-4.706a9.9,9.9,0,0,0,.371-4.224,2.746,2.746,0,0,0-.63-1.223,6.124,6.124,0,0,0-1.371-1.26,10.816,10.816,0,0,0-1.741-.963,4.487,4.487,0,0,0-1.816-.408,6.239,6.239,0,0,0-2.075.519,7.314,7.314,0,0,1-2.668.519,25.094,25.094,0,0,1-3.261-.259,6.14,6.14,0,0,1-2.816-.926,5.614,5.614,0,0,1,.963-1.816q.667-.852,1.334-1.593A15.12,15.12,0,0,0,70.224,25.6a1.733,1.733,0,0,0,.371-1.223,2.911,2.911,0,0,0-1.3-1.816,11.645,11.645,0,0,0-2.631-1.445,18.744,18.744,0,0,0-3.038-.926,12.81,12.81,0,0,0-2.594-.333,4.579,4.579,0,0,0-2.482.778,6.659,6.659,0,0,0-2.075,2.149,9.644,9.644,0,0,0-1.223,3.3,12.113,12.113,0,0,0,0,4.224,8.361,8.361,0,0,0,.963,2.334,6.6,6.6,0,0,0,1.482,1.89,25.934,25.934,0,0,1-3.483,8.67,23.549,23.549,0,0,1-5.447,5.965,22.08,22.08,0,0,1-6.447,3.446,20.48,20.48,0,0,1-6.41,1.112,13.846,13.846,0,0,1-5.039-.889,13.49,13.49,0,0,1-4.039-2.408,13.673,13.673,0,0,1-2.89-3.52,12.578,12.578,0,0,1-1.519-4.224,28.637,28.637,0,0,1-.371-6.3,40.276,40.276,0,0,1,.889-6.818,36,36,0,0,1,2.112-6.6A24.234,24.234,0,0,1,28.429,17.3a16.032,16.032,0,0,1,4.632-3.965,11.794,11.794,0,0,1,5.891-1.482,6.24,6.24,0,0,1,1.778.222,1.221,1.221,0,0,1,.889,1.037,3.1,3.1,0,0,1-.519,2.445,7.63,7.63,0,0,1-1.778,1.667q-1.037.7-2.038,1.334a2.708,2.708,0,0,0-1.223,1.3,2.807,2.807,0,0,0,.667,2.7,11.981,11.981,0,0,0,2.89,2.631,16.479,16.479,0,0,0,3.705,1.927,10.265,10.265,0,0,0,3.483.741,5.964,5.964,0,0,0,2.779-.815,8.79,8.79,0,0,0,2.742-2.371,11.347,11.347,0,0,0,1.89-3.742,10.546,10.546,0,0,0,.222-4.854,16.216,16.216,0,0,0-1.927-5.41,11.758,11.758,0,0,0-3.261-3.594,13.14,13.14,0,0,0-4.335-2,20.287,20.287,0,0,0-5.15-.63A32.928,32.928,0,0,0,29.652,6a38.933,38.933,0,0,0-9,4.187A36.571,36.571,0,0,0,7.865,24.084,31.3,31.3,0,0,0,4.9,32.532a23.42,23.42,0,0,0-.111,8.6,29.784,29.784,0,0,0,2.816,8.707,20.384,20.384,0,0,0,5.41,6.632,24.889,24.889,0,0,0,8.263,4.261,38.491,38.491,0,0,0,11.449,1.519m95.891-2.075a9.365,9.365,0,0,0,2.334-.482,13.4,13.4,0,0,0,2.445-1.112,13.606,13.606,0,0,0,2.3-1.667,10.967,10.967,0,0,0,1.89-2.223,5.36,5.36,0,0,0,2.779,3.853,11.231,11.231,0,0,0,5,1.037,8.341,8.341,0,0,0,3.224-.778,22.1,22.1,0,0,0,3.631-2,30.453,30.453,0,0,0,3.52-2.779,27.611,27.611,0,0,0,3-3.186,15.791,15.791,0,0,0,2-3.149,4.329,4.329,0,0,0,.482-2.631,6.025,6.025,0,0,0-.667-1.482q-.519-.889-1.186-.889a2.332,2.332,0,0,0-1.7.889l-2.149,2.52A43.577,43.577,0,0,1,152,49.761a4.54,4.54,0,0,1-3,1.371.772.772,0,0,1-.889-.741l1.186-5.261q.963-4.224,1.482-7.077t.778-4.594q.259-1.741.333-2.445.063-.6.072-.634a5.315,5.315,0,0,0-1.517-2.033,12.075,12.075,0,0,0-2.371-1.593,13.289,13.289,0,0,0-2.7-1.037,10.253,10.253,0,0,0-2.594-.371,2.931,2.931,0,0,0-1.408.408,1.9,1.9,0,0,0-.889.778l-.741,1.927q-.593,0-1.186-.037t-1.186-.037a14.12,14.12,0,0,0-7.151,2.149,26.113,26.113,0,0,0-6.558,5.484,25.3,25.3,0,0,0-4.483,7.41q-.18.461-.331.917.727-.87,1.406-1.809a1.244,1.244,0,0,1,.445-.258,1.517,1.517,0,0,1,.519-.111,2.867,2.867,0,0,1,2.334.852,2.6,2.6,0,0,1,.482,2.186,12.672,12.672,0,0,1-2.3,5.039,19.757,19.757,0,0,1-2.955,3.265,8.8,8.8,0,0,0,3.066,4.627,11.151,11.151,0,0,0,6.781,2.038m10.893-26.011-1.779,9.93a20.791,20.791,0,0,0-.445,2.3,7.355,7.355,0,0,1-.519,1.964,3.032,3.032,0,0,1-1.186,1.371,4.617,4.617,0,0,1-2.445.519,1.732,1.732,0,0,1-1.223-.445,3.063,3.063,0,0,1-.7-1.7,11.422,11.422,0,0,1,.222-3.816,18,18,0,0,1,1.408-4.113,15.637,15.637,0,0,1,2.371-3.594,7.339,7.339,0,0,1,3.186-2.186,2.792,2.792,0,0,1,1.112-.222m-36.9,25.566a22.794,22.794,0,0,0,7.781-1.334,26.064,26.064,0,0,0,6.6-3.446q.95-.694,1.788-1.44a16.555,16.555,0,0,1-.528-2.228,14.049,14.049,0,0,1,.6-6.938,29.581,29.581,0,0,1-5.078,4.809,13.707,13.707,0,0,1-8.114,2.8,5.588,5.588,0,0,1-3.409-1.256,7.014,7.014,0,0,1-1.927-2.955,24.221,24.221,0,0,0,6.447-1.552,18.459,18.459,0,0,0,5.076-2.955A11.987,11.987,0,0,0,115.02,39.2a7.512,7.512,0,0,0,.63-4.691,8.108,8.108,0,0,0-2.89-5.024q-2.3-1.847-7.04-1.847A22.377,22.377,0,0,0,94.975,29.9,14.586,14.586,0,0,0,88.9,35.718a15.928,15.928,0,0,0-1.89,6.225,20.289,20.289,0,0,0,.021,4.163L88.6,43.944a.8.8,0,0,1,.593-.222,3.956,3.956,0,0,1,1.593.7,2.255,2.255,0,0,1,.926,1.593,7.954,7.954,0,0,1-1.741,3.965,22.876,22.876,0,0,1-1.437,1.807,12.623,12.623,0,0,0,.844,1.453,13.971,13.971,0,0,0,3.335,3.483A14.928,14.928,0,0,0,97.2,58.95a18.242,18.242,0,0,0,5.41.778m2.075-25.714a1.031,1.031,0,0,1,1,.482,4.462,4.462,0,0,1,.408,1.149,4.331,4.331,0,0,1-.259,2.112,6.821,6.821,0,0,1-1.26,2.149,7.1,7.1,0,0,1-2.112,1.667,6.612,6.612,0,0,1-2.816.741,11.421,11.421,0,0,1,.445-3.224,9.545,9.545,0,0,1,1.186-2.631,7.141,7.141,0,0,1,1.63-1.778,2.956,2.956,0,0,1,1.778-.667m47.278-3.631a.019.019,0,0,0,0-.007v0l0,0M32.727,66.694A43.06,43.06,0,0,1,19.95,64.972a29.415,29.415,0,0,1-9.721-5.04,24.9,24.9,0,0,1-6.577-8.063,34.355,34.355,0,0,1-3.246-10A27.921,27.921,0,0,1,.537,31.681a35.888,35.888,0,0,1,3.381-9.643,41.015,41.015,0,0,1,14.35-15.6A43.575,43.575,0,0,1,28.294,1.768,37.518,37.518,0,0,1,39.767,0a24.825,24.825,0,0,1,6.275.775,17.627,17.627,0,0,1,5.788,2.68,16.227,16.227,0,0,1,4.5,4.929,20.687,20.687,0,0,1,2.485,6.884c.024.141.045.282.066.422a8.557,8.557,0,0,1,2.158-.276,16.964,16.964,0,0,1,3.525.432,23.273,23.273,0,0,1,3.758,1.146,16.158,16.158,0,0,1,3.629,2,7.2,7.2,0,0,1,3.042,4.71,6.135,6.135,0,0,1-.321,2.939,9.2,9.2,0,0,1,2.966-.558,8.921,8.921,0,0,1,3.606.784,15.3,15.3,0,0,1,2.456,1.36,10.581,10.581,0,0,1,2.356,2.178q.3.377.539.753A20.031,20.031,0,0,1,92.848,26a26.791,26.791,0,0,1,12.872-2.8c4.245,0,7.459.925,9.826,2.828a12.427,12.427,0,0,1,4.432,7.451q.156-.186.316-.37a30.663,30.663,0,0,1,7.671-6.408,18.768,18.768,0,0,1,8.877-2.75,6.507,6.507,0,0,1,2.381-2.089,7.321,7.321,0,0,1,3.551-.958,14.721,14.721,0,0,1,3.725.517A17.793,17.793,0,0,1,150.1,22.8a16.558,16.558,0,0,1,3.241,2.18,10.988,10.988,0,0,1,.978.952h2.084v3.594l.214.535-.281,1.125-.032.295q-.08.759-.358,2.635-.267,1.795-.8,4.735-.1.575-.226,1.2a6.513,6.513,0,0,1,4.448-1.814,5.808,5.808,0,0,1,5.026,3.1,10.218,10.218,0,0,1,1.14,2.644,8.721,8.721,0,0,1-.761,5.579,20.3,20.3,0,0,1-2.555,4.048,32.182,32.182,0,0,1-3.483,3.7,35.071,35.071,0,0,1-4.034,3.183,26.658,26.658,0,0,1-4.363,2.4,12.562,12.562,0,0,1-4.975,1.138,15.666,15.666,0,0,1-6.963-1.493,9.2,9.2,0,0,1-1.495-.921q-.63.439-1.292.82a17.9,17.9,0,0,1-3.258,1.476,13.843,13.843,0,0,1-3.444.7l-.148.01h-.148a15.544,15.544,0,0,1-9.41-2.9,11.6,11.6,0,0,1-1.854-1.7,31.853,31.853,0,0,1-5.46,2.555,27.334,27.334,0,0,1-9.287,1.6,22.762,22.762,0,0,1-6.722-.976,19.427,19.427,0,0,1-5.806-2.89,18.442,18.442,0,0,1-2.129-1.832A32.878,32.878,0,0,1,82.593,62a15.993,15.993,0,0,1-7.4,2.03c-9.022,0-11.978-5.484-12.937-8.753l-.061-.207-.04-.212a10.566,10.566,0,0,1-.075-3.455,36.954,36.954,0,0,1-5.465,6.552,31.869,31.869,0,0,1-10.064,6.38A36.93,36.93,0,0,1,32.727,66.694ZM31.49,20.611a20.305,20.305,0,0,0-2.348,4.119,31.71,31.71,0,0,0-1.851,5.783,36.011,36.011,0,0,0-.792,6.066,24.342,24.342,0,0,0,.3,5.32,8.178,8.178,0,0,0,1,2.8,9.173,9.173,0,0,0,1.957,2.383A9,9,0,0,0,32.48,48.69a9.5,9.5,0,0,0,3.434.589,16.164,16.164,0,0,0,5.018-.888,17.754,17.754,0,0,0,5.151-2.765,19.245,19.245,0,0,0,4.412-4.855,19.985,19.985,0,0,0,2.332-5.153q-.238-.366-.469-.77a12.728,12.728,0,0,1-1.428-3.506,9.9,9.9,0,0,1-4.123.967,14.463,14.463,0,0,1-5.027-1.018,21.015,21.015,0,0,1-4.7-2.446,16.281,16.281,0,0,1-3.875-3.57A7.566,7.566,0,0,1,31.49,20.611Z" transform="translate(0 0)" fill="#303036"/>
    </g>
    <g id="idea" transform="translate(487.105 234.847) rotate(-9)">
      <g id="Grupo_10" data-name="Grupo 10" transform="translate(2.223 2.222)">
        <g id="Grupo_1" data-name="Grupo 1" transform="translate(67.036 0)">
          <path id="Trazado_1" data-name="Trazado 1" d="M7.038,20.187h-.83a5.587,5.587,0,0,1-5.573-5.2L.013,5.97A5.587,5.587,0,0,1,5.586,0H7.655a5.587,5.587,0,0,1,5.573,5.97l-.618,9.014A5.587,5.587,0,0,1,7.038,20.187Z" fill="#ffd23f"/>
        </g>
        <g id="Grupo_2" data-name="Grupo 2" transform="translate(115.467 13.278)">
          <path id="Trazado_2" data-name="Trazado 2" d="M2.225,16.937l-.589-.589a5.587,5.587,0,0,1-.261-7.622L7.312,1.916a5.587,5.587,0,0,1,8.162-.28L16.937,3.1a5.587,5.587,0,0,1-.28,8.162L9.847,17.2a5.587,5.587,0,0,1-7.622-.261Z" fill="#ffd23f"/>
        </g>
        <g id="Grupo_3" data-name="Grupo 3" transform="translate(0 67.038)">
          <path id="Trazado_3" data-name="Trazado 3" d="M0,7.037V6.2A5.587,5.587,0,0,1,5.2.631L14.218.013a5.587,5.587,0,0,1,5.97,5.573V7.655a5.587,5.587,0,0,1-5.97,5.573L5.2,12.61A5.587,5.587,0,0,1,0,7.037Z" transform="translate(127.131 0.001)" fill="#ffd23f"/>
          <path id="Trazado_4" data-name="Trazado 4" d="M20.188,6.206v.833a5.587,5.587,0,0,1-5.2,5.573l-9.014.618A5.587,5.587,0,0,1,0,7.657V5.588A5.587,5.587,0,0,1,5.97.013l9.014.618a5.587,5.587,0,0,1,5.2,5.573Z" fill="#ffd23f"/>
        </g>
        <g id="Grupo_4" data-name="Grupo 4" transform="translate(13.278 13.278)">
          <path id="Trazado_5" data-name="Trazado 5" d="M16.937,16.349l-.589.589a5.587,5.587,0,0,1-7.622.261L1.916,11.262A5.587,5.587,0,0,1,1.636,3.1L3.1,1.636a5.587,5.587,0,0,1,8.162.28L17.2,8.727a5.588,5.588,0,0,1-.261,7.622Z" fill="#ffd23f"/>
        </g>
        <g id="Grupo_5" data-name="Grupo 5" transform="translate(13.278 111.021)">
          <path id="Trazado_6" data-name="Trazado 6" d="M16.348,1.636l.589.589A5.587,5.587,0,0,1,17.2,9.847l-5.936,6.811a5.587,5.587,0,0,1-8.162.28L1.636,15.474a5.587,5.587,0,0,1,.28-8.162L8.727,1.375a5.587,5.587,0,0,1,7.622.261Z" fill="#ffd23f"/>
        </g>
        <g id="Grupo_6" data-name="Grupo 6" transform="translate(115.467 111.021)">
          <path id="Trazado_7" data-name="Trazado 7" d="M1.636,2.225l.589-.589a5.587,5.587,0,0,1,7.622-.261l6.811,5.936a5.587,5.587,0,0,1,.28,8.162l-1.463,1.463a5.587,5.587,0,0,1-8.162-.28L1.375,9.847a5.587,5.587,0,0,1,.261-7.622Z" fill="#ffd23f"/>
        </g>
        <g id="Grupo_9" data-name="Grupo 9" transform="translate(31.063 28.88)">
          <path id="Trazado_8" data-name="Trazado 8" d="M61.825,97.3a16.445,16.445,0,0,1,8.989-14.745,26.222,26.222,0,0,0,14.478-22.24,369.588,369.588,0,0,0-.2-38.774A22.287,22.287,0,0,0,64.11.612,369.606,369.606,0,0,0,21.6.612,22.287,22.287,0,0,0,.615,21.542a369.591,369.591,0,0,0-.2,38.775,26.222,26.222,0,0,0,14.478,22.24A16.445,16.445,0,0,1,23.878,97.3l20.072,6.414Z" transform="translate(0.001)" fill="#ffd23f"/>
          <path id="Trazado_9" data-name="Trazado 9" d="M30.53,98.905,23.879,96.78a16.449,16.449,0,0,0-8.987-14.747A26.213,26.213,0,0,1,.414,59.793a368.61,368.61,0,0,1,.2-38.774A22.285,22.285,0,0,1,21.593.089C22.151.056,22.7.027,23.262,0c-4.428,3.687-7.529,10.956-7.831,19.457Q14.7,39.843,15.3,60.232c.3,10.271,4.04,19.045,9.4,23.384C28.266,86.5,30.483,92.458,30.53,98.905Z" transform="translate(0 0.523)" fill="#ffd23f"/>
          <path id="Trazado_10" data-name="Trazado 10" d="M26.987,21.139H10.959A10.959,10.959,0,0,1,0,10.18V0H37.947V10.179a10.959,10.959,0,0,1-10.961,10.96Z" transform="translate(23.879 97.302)" fill="#c3bec6"/>
          <path id="Trazado_11" data-name="Trazado 11" d="M22.72,21.137H10.959A10.958,10.958,0,0,1,0,10.178V0H11.762V10.179A10.958,10.958,0,0,0,22.721,21.137Z" transform="translate(23.879 97.302)" fill="#b4acb7"/>
          <g id="Grupo_7" data-name="Grupo 7" transform="translate(31.092 79.76)">
            <path id="Trazado_12" data-name="Trazado 12" d="M16.706,0H6.815A6.815,6.815,0,0,0,0,6.816V17.543H23.521V6.816A6.815,6.815,0,0,0,16.705,0Z" fill="#d553a7"/>
            <path id="Trazado_13" data-name="Trazado 13" d="M15.313,0A6.814,6.814,0,0,0,8.5,6.817V17.543H0V6.816A6.814,6.814,0,0,1,6.816,0Z" transform="translate(0 0)" fill="#d553a7"/>
          </g>
          <g id="Grupo_8" data-name="Grupo 8" transform="translate(12.494 10.148)">
            <path id="Trazado_14" data-name="Trazado 14" d="M59.995,25.823a2.8,2.8,0,0,0-2.319-1.912q-2.043-.264-4.085-.4a2.825,2.825,0,0,1-2.41-1.753c0-.011-.009-.022-.013-.033a2.823,2.823,0,0,1,.465-2.943q1.343-1.543,2.6-3.175a2.8,2.8,0,0,0,.287-2.992A14.56,14.56,0,0,0,48.108,6.2a2.8,2.8,0,0,0-2.992.287q-1.633,1.257-3.175,2.6A2.823,2.823,0,0,1,39,9.552l-.033-.013a2.825,2.825,0,0,1-1.753-2.41q-.139-2.041-.4-4.085A2.8,2.8,0,0,0,34.9.724a14.575,14.575,0,0,0-9.072,0,2.8,2.8,0,0,0-1.912,2.319q-.264,2.043-.4,4.085a2.825,2.825,0,0,1-1.753,2.41l-.033.013a2.823,2.823,0,0,1-2.943-.465q-1.543-1.343-3.175-2.6A2.8,2.8,0,0,0,12.611,6.2,14.56,14.56,0,0,0,6.2,12.61,2.8,2.8,0,0,0,6.484,15.6q1.257,1.633,2.6,3.175a2.823,2.823,0,0,1,.465,2.943c0,.011-.01.022-.013.033a2.825,2.825,0,0,1-2.41,1.753q-2.041.139-4.085.4A2.8,2.8,0,0,0,.724,25.822a14.575,14.575,0,0,0,0,9.072,2.8,2.8,0,0,0,2.319,1.912q2.043.264,4.085.4a2.825,2.825,0,0,1,2.41,1.753c0,.011.009.022.013.033a2.823,2.823,0,0,1-.465,2.943q-1.343,1.543-2.6,3.175A2.8,2.8,0,0,0,6.2,48.107a14.56,14.56,0,0,0,6.414,6.416,2.8,2.8,0,0,0,2.992-.287q1.633-1.257,3.175-2.6a2.823,2.823,0,0,1,2.943-.465l.033.013a2.825,2.825,0,0,1,1.753,2.41q.139,2.041.4,4.085A2.8,2.8,0,0,0,25.823,60,14.575,14.575,0,0,0,34.9,60a2.8,2.8,0,0,0,1.912-2.319q.264-2.043.4-4.085a2.825,2.825,0,0,1,1.753-2.41L39,51.168a2.823,2.823,0,0,1,2.943.465q1.543,1.343,3.175,2.6a2.8,2.8,0,0,0,2.992.287,14.56,14.56,0,0,0,6.414-6.414,2.8,2.8,0,0,0-.287-2.992q-1.257-1.633-2.6-3.175A2.823,2.823,0,0,1,51.167,39c0-.011.01-.022.013-.033a2.825,2.825,0,0,1,2.41-1.753q2.041-.139,4.085-.4A2.8,2.8,0,0,0,59.995,34.9a14.575,14.575,0,0,0,0-9.074ZM30.359,42.706A12.346,12.346,0,1,1,42.705,30.359,12.346,12.346,0,0,1,30.359,42.706Z" transform="translate(0)" fill="#f9f6f9"/>
            <path id="Trazado_15" data-name="Trazado 15" d="M9.557,48.672a3.021,3.021,0,0,1,.287-3.118q1.257-1.7,2.6-3.308a3.039,3.039,0,0,0,.464-3.066c0-.012-.01-.023-.013-.036a2.839,2.839,0,0,0-2.41-1.827Q8.445,37.172,6.4,36.9A2.836,2.836,0,0,1,4.082,34.9a15.8,15.8,0,0,1,0-9.454A2.836,2.836,0,0,1,6.4,23.457q2.043-.275,4.086-.422a2.839,2.839,0,0,0,2.41-1.827c0-.012.009-.023.013-.036a3.039,3.039,0,0,0-.465-3.066Q11.1,16.5,9.843,14.8a3.022,3.022,0,0,1-.287-3.118A14.926,14.926,0,0,1,14.62,5.812a2.773,2.773,0,0,0-2.011.2A14.554,14.554,0,0,0,6.2,12.427a2.8,2.8,0,0,0,.287,2.992q1.257,1.633,2.6,3.175a2.823,2.823,0,0,1,.465,2.943c0,.011-.01.022-.013.033a2.824,2.824,0,0,1-2.409,1.753q-2.041.139-4.086.4A2.8,2.8,0,0,0,.724,25.64a14.576,14.576,0,0,0,0,9.072,2.8,2.8,0,0,0,2.319,1.912q2.043.264,4.086.4a2.823,2.823,0,0,1,2.409,1.753c0,.011.009.022.013.033a2.823,2.823,0,0,1-.465,2.943q-1.341,1.543-2.6,3.175A2.8,2.8,0,0,0,6.2,47.925a14.554,14.554,0,0,0,6.413,6.413,2.773,2.773,0,0,0,2.011.2,14.926,14.926,0,0,1-5.064-5.869Zm17.714,9.972q-.264-2.129-.4-4.258a2.935,2.935,0,0,0-1.753-2.512l-.033-.013a2.741,2.741,0,0,0-2.183-.007,2.783,2.783,0,0,1,.61,1.554q.139,2.041.4,4.085a2.8,2.8,0,0,0,1.912,2.319,15.523,15.523,0,0,0,2.253.541,3,3,0,0,1-.8-1.709ZM25.823.541A2.8,2.8,0,0,0,23.911,2.86q-.264,2.043-.4,4.086A2.784,2.784,0,0,1,22.9,8.5a2.739,2.739,0,0,0,2.183-.007l.033-.013a2.937,2.937,0,0,0,1.753-2.512q.139-2.128.4-4.258A3,3,0,0,1,28.074,0a15.5,15.5,0,0,0-2.252.541Z" transform="translate(0 0.183)" fill="#e2dfe2"/>
          </g>
        </g>
      </g>
      <g id="Grupo_11" data-name="Grupo 11" transform="translate(0 0)">
        <path id="Trazado_16" data-name="Trazado 16" d="M89.759,28.1a2.223,2.223,0,1,0-4.442.2c.516,11.326.507,22.809-.026,34.128A24.047,24.047,0,0,1,72.037,82.788,18.753,18.753,0,0,0,61.959,97.3h-2.9V88.8a9.048,9.048,0,0,0-9.038-9.038h-9.89A9.048,9.048,0,0,0,31.088,88.8v8.5h-2.9A18.751,18.751,0,0,0,18.105,82.788,24.047,24.047,0,0,1,4.852,62.432a369.77,369.77,0,0,1,.2-38.541A20.048,20.048,0,0,1,23.941,5.052a369.47,369.47,0,0,1,42.259,0A20.011,20.011,0,0,1,84.46,19.937a2.223,2.223,0,1,0,4.3-1.134A24.447,24.447,0,0,0,66.458.612a373.771,373.771,0,0,0-42.77,0A24.493,24.493,0,0,0,.615,23.634a374.133,374.133,0,0,0-.2,39.008A28.5,28.5,0,0,0,16.118,86.766a14.309,14.309,0,0,1,7.756,12.758V109.7a13.151,13.151,0,0,0,3.48,8.924,2.223,2.223,0,1,0,3.273-3.01,8.722,8.722,0,0,1-2.018-3.692H61.536a8.753,8.753,0,0,1-8.451,6.512H37a2.223,2.223,0,0,0,0,4.446H53.086A13.2,13.2,0,0,0,66.27,109.7V99.523a14.31,14.31,0,0,1,7.755-12.758A28.5,28.5,0,0,0,89.732,62.641C90.272,51.185,90.281,39.565,89.759,28.1ZM35.534,88.8A4.6,4.6,0,0,1,40.126,84.2h9.891A4.6,4.6,0,0,1,54.609,88.8v8.5H35.534V88.8Zm26.29,18.683H28.32v-5.732h33.5Z" transform="translate(31.067 28.881)" fill="#303036"/>
        <path id="Trazado_17" data-name="Trazado 17" d="M14.569,0A14.569,14.569,0,1,0,29.139,14.569,14.569,14.569,0,0,0,14.569,0Zm0,24.691A10.123,10.123,0,1,1,24.693,14.568,10.123,10.123,0,0,1,14.569,24.691Z" transform="translate(61.569 57.04)" fill="#303036"/>
        <path id="Trazado_18" data-name="Trazado 18" d="M55.965,41.652c1.4-.1,2.822-.237,4.218-.418a5.043,5.043,0,0,0,4.15-3.44h0a16.8,16.8,0,0,0,0-10.425,5.042,5.042,0,0,0-4.15-3.44c-1.4-.181-2.816-.321-4.218-.418a.6.6,0,0,1-.508-.383l-.015-.036a.6.6,0,0,1,.087-.631c.925-1.061,1.829-2.164,2.687-3.278a5.041,5.041,0,0,0,.5-5.368,16.8,16.8,0,0,0-7.371-7.372,5.042,5.042,0,0,0-5.368.5c-1.115.86-2.218,1.764-3.278,2.687a.6.6,0,0,1-.631.087L42.034,9.7a.6.6,0,0,1-.383-.507c-.1-1.4-.237-2.819-.418-4.218A5.043,5.043,0,0,0,37.792.829a16.8,16.8,0,0,0-10.424,0,5.041,5.041,0,0,0-3.44,4.15c-.181,1.395-.321,2.814-.418,4.219a.6.6,0,0,1-.383.507l-.036.015a.6.6,0,0,1-.631-.087C21.4,8.707,20.3,7.8,19.181,6.945a5.041,5.041,0,0,0-5.368-.5,16.807,16.807,0,0,0-7.371,7.371,5.044,5.044,0,0,0,.5,5.368C7.8,20.3,8.708,21.4,9.631,22.46a.6.6,0,0,1,.094.615l-.021.052a.6.6,0,0,1-.507.383c-1.4.1-2.822.237-4.218.418a5.043,5.043,0,0,0-4.15,3.441,16.8,16.8,0,0,0,0,10.424,5.042,5.042,0,0,0,4.15,3.441c1.4.181,2.816.321,4.218.418a.6.6,0,0,1,.507.383l.015.036a.6.6,0,0,1-.087.631C8.708,43.762,7.8,44.865,6.944,45.98a5.043,5.043,0,0,0-.5,5.368,16.807,16.807,0,0,0,7.371,7.371,5.042,5.042,0,0,0,5.368-.5c1.113-.858,2.217-1.762,3.278-2.687a.6.6,0,0,1,.632-.087l.036.015a.6.6,0,0,1,.383.507c.1,1.4.237,2.824.418,4.218a5.043,5.043,0,0,0,3.441,4.15,16.8,16.8,0,0,0,10.424,0,5.042,5.042,0,0,0,3.441-4.15c.181-1.4.321-2.818.418-4.218a.6.6,0,0,1,.383-.507l.036-.015a.6.6,0,0,1,.631.089c1.06.923,2.164,1.827,3.278,2.687a5.042,5.042,0,0,0,5.368.5,16.8,16.8,0,0,0,7.371-7.371,5.043,5.043,0,0,0-.5-5.368c-.86-1.115-1.763-2.217-2.687-3.278a.6.6,0,0,1-.091-.622l.018-.044a.6.6,0,0,1,.508-.385Zm-4.617-1.314-.012.03a5.02,5.02,0,0,0,.842,5.255c.866.994,1.713,2.028,2.52,3.072a.58.58,0,0,1,.071.615,12.277,12.277,0,0,1-5.459,5.458.58.58,0,0,1-.615-.072c-1.045-.806-2.079-1.653-3.072-2.52a5.02,5.02,0,0,0-5.255-.842l-.03.012a5.019,5.019,0,0,0-3.122,4.313c-.089,1.312-.222,2.642-.392,3.953a.58.58,0,0,1-.385.486,12.277,12.277,0,0,1-7.718,0,.581.581,0,0,1-.385-.486c-.169-1.307-.3-2.638-.391-3.953a5.02,5.02,0,0,0-3.119-4.31l-.03-.012a5.116,5.116,0,0,0-1.964-.395,5,5,0,0,0-3.29,1.236c-1,.867-2.029,1.715-3.072,2.52a.58.58,0,0,1-.615.072A12.279,12.279,0,0,1,10.4,49.313a.581.581,0,0,1,.071-.615c.805-1.045,1.653-2.078,2.52-3.072a5.021,5.021,0,0,0,.842-5.255l-.012-.03a5.019,5.019,0,0,0-4.311-3.122c-1.315-.091-2.645-.222-3.954-.392a.58.58,0,0,1-.486-.385,12.278,12.278,0,0,1,0-7.718.58.58,0,0,1,.486-.385c1.309-.169,2.638-.3,3.954-.392a5.012,5.012,0,0,0,4.3-3.1l.02-.048a5.02,5.02,0,0,0-.842-5.255c-.866-.994-1.713-2.028-2.52-3.072a.58.58,0,0,1-.072-.616,12.279,12.279,0,0,1,5.458-5.458.58.58,0,0,1,.615.072c1.043.8,2.077,1.651,3.072,2.52a5.022,5.022,0,0,0,5.255.842l.03-.012A5.019,5.019,0,0,0,27.948,9.5c.091-1.316.222-2.646.392-3.953a.58.58,0,0,1,.385-.486,12.277,12.277,0,0,1,7.718,0,.58.58,0,0,1,.385.486c.17,1.312.3,2.642.392,3.954a5.009,5.009,0,0,0,3.1,4.3l.052.022a5.02,5.02,0,0,0,5.255-.842c.993-.865,2.027-1.712,3.072-2.52a.58.58,0,0,1,.615-.072,12.278,12.278,0,0,1,5.457,5.457.581.581,0,0,1-.072.616c-.8,1.044-1.652,2.078-2.52,3.072a5.022,5.022,0,0,0-.841,5.257l.011.028a5.02,5.02,0,0,0,4.311,3.122c1.315.089,2.645.222,3.953.392a.581.581,0,0,1,.486.385,12.279,12.279,0,0,1,0,7.718.581.581,0,0,1-.486.385c-1.309.169-2.638.3-3.954.392A5.022,5.022,0,0,0,51.35,40.34Z" transform="translate(43.558 39.028)" fill="#303036"/>
        <path id="Trazado_19" data-name="Trazado 19" d="M.637,17.358A7.833,7.833,0,0,0,8.43,24.634h.833a7.833,7.833,0,0,0,7.79-7.276l.618-9.014A7.809,7.809,0,0,0,9.879,0H7.81A7.81,7.81,0,0,0,.018,8.345ZM5.351,5.513A3.331,3.331,0,0,1,7.81,4.446H9.879A3.364,3.364,0,0,1,13.235,8.04l-.618,9.014a3.374,3.374,0,0,1-3.356,3.134H8.428a3.374,3.374,0,0,1-3.356-3.134L4.454,8.04a3.331,3.331,0,0,1,.9-2.526Z" transform="translate(67.038 0)" fill="#303036"/>
        <path id="Trazado_20" data-name="Trazado 20" d="M2.867,20.733a7.833,7.833,0,0,0,10.655.365l6.811-5.937a7.81,7.81,0,0,0,.391-11.41L19.26,2.288a7.81,7.81,0,0,0-11.41.391L1.914,9.49a7.834,7.834,0,0,0,.365,10.654Zm2.4-8.322L11.2,5.6a3.364,3.364,0,0,1,4.915-.168L17.579,6.9a3.364,3.364,0,0,1-.168,4.915L10.6,17.746a3.374,3.374,0,0,1-4.589-.157L5.423,17a3.374,3.374,0,0,1-.157-4.589Z" transform="translate(115.476 13.278)" fill="#303036"/>
        <path id="Trazado_21" data-name="Trazado 21" d="M22.154,2.1A7.837,7.837,0,0,0,16.289.018L7.276.636A7.833,7.833,0,0,0,0,8.429v.833a7.833,7.833,0,0,0,7.276,7.792l9.014.618q.265.018.529.018a7.809,7.809,0,0,0,7.815-7.811V7.81A7.838,7.838,0,0,0,22.154,2.1ZM20.188,9.879a3.364,3.364,0,0,1-3.594,3.356L7.58,12.617A3.374,3.374,0,0,1,4.446,9.26V8.429A3.374,3.374,0,0,1,7.58,5.073l9.014-.618q.12-.008.237-.008a3.365,3.365,0,0,1,3.357,3.363Z" transform="translate(127.131 67.039)" fill="#303036"/>
        <path id="Trazado_22" data-name="Trazado 22" d="M24.634,9.259v-.83A7.833,7.833,0,0,0,17.358.637L8.345.018A7.81,7.81,0,0,0,0,7.809V9.878a7.81,7.81,0,0,0,7.816,7.81q.263,0,.529-.018l9.013-.618a7.833,7.833,0,0,0,7.276-7.793ZM8.04,13.234A3.364,3.364,0,0,1,4.446,9.878V7.809A3.365,3.365,0,0,1,7.8,4.445q.12,0,.238.008l9.014.618a3.374,3.374,0,0,1,3.134,3.357v.833a3.374,3.374,0,0,1-3.134,3.356Z" transform="translate(0 67.039)" fill="#303036"/>
        <path id="Trazado_23" data-name="Trazado 23" d="M2.679,15.161,9.49,21.1a7.833,7.833,0,0,0,10.655-.365l.589-.589A7.833,7.833,0,0,0,21.1,9.489L15.161,2.679a7.81,7.81,0,0,0-11.41-.391L2.287,3.751a7.81,7.81,0,0,0,.391,11.41ZM5.432,6.895,6.895,5.432a3.328,3.328,0,0,1,2.375-.985c.04,0,.08,0,.119,0A3.331,3.331,0,0,1,11.809,5.6l5.936,6.811A3.374,3.374,0,0,1,17.588,17L17,17.588a3.374,3.374,0,0,1-4.589.157L5.6,11.81a3.365,3.365,0,0,1-.168-4.915Z" transform="translate(13.278 13.278)" fill="#303036"/>
        <path id="Trazado_24" data-name="Trazado 24" d="M20.144,2.279A7.833,7.833,0,0,0,9.49,1.914L2.679,7.851a7.81,7.81,0,0,0-.391,11.41l1.464,1.463a7.839,7.839,0,0,0,5.525,2.287c.089,0,.178,0,.265,0a7.836,7.836,0,0,0,5.62-2.674L21.1,13.522a7.834,7.834,0,0,0-.365-10.654Zm-2.4,8.322L11.81,17.412A3.364,3.364,0,0,1,6.9,17.58L5.432,16.117A3.364,3.364,0,0,1,5.6,11.2l6.811-5.936A3.374,3.374,0,0,1,17,5.423l.589.589a3.374,3.374,0,0,1,.157,4.589Z" transform="translate(13.278 111.029)" fill="#303036"/>
        <path id="Trazado_25" data-name="Trazado 25" d="M20.333,7.85,13.522,1.914a7.833,7.833,0,0,0-10.654.365l-.589.589a7.833,7.833,0,0,0-.365,10.654l5.936,6.811a7.837,7.837,0,0,0,5.62,2.674c.089,0,.178,0,.265,0a7.841,7.841,0,0,0,5.526-2.287l1.463-1.463A7.81,7.81,0,0,0,20.333,7.85ZM17.58,16.117,16.117,17.58a3.364,3.364,0,0,1-4.915-.168L5.266,10.6a3.374,3.374,0,0,1,.157-4.589l.589-.589A3.374,3.374,0,0,1,10.6,5.266L17.412,11.2a3.364,3.364,0,0,1,.168,4.915Z" transform="translate(115.476 111.029)" fill="#303036"/>
      </g>
    </g>
  </g>
</svg>
