<svg xmlns="http://www.w3.org/2000/svg" width="87.91" height="53.061" viewBox="0 0 87.91 53.061">
  <g id="logo_DR" transform="translate(-7540.542 2104.661)">
    <g id="social-media" transform="translate(7552.957 -2104.661) rotate(16.985)">
      <g id="Grupo_42" data-name="Grupo 42" transform="translate(0.623 0.623)">
        <g id="Grupo_37" data-name="Grupo 37" transform="translate(19.479 0)">
          <path id="Trazado_124" data-name="Trazado 124" d="M20.135,0H1.661A1.661,1.661,0,0,0,0,1.661V15.31a1.661,1.661,0,0,0,1.661,1.661h13.4l3.182,3.182V16.971h1.89A1.661,1.661,0,0,0,21.8,15.31V1.661A1.661,1.661,0,0,0,20.135,0Z" transform="translate(0)" fill="#fff"/>
          <path id="Trazado_125" data-name="Trazado 125" d="M5.072,0H2.58A1.661,1.661,0,0,1,4.241,1.661V15.31A1.661,1.661,0,0,1,2.58,16.971H0l3.182,3.182V16.971h1.89A1.661,1.661,0,0,0,6.733,15.31V1.661A1.661,1.661,0,0,0,5.072,0Z" transform="translate(15.063 0)" fill="#fff"/>
          <g id="Grupo_36" data-name="Grupo 36" transform="translate(5.051 2.799)">
            <path id="Trazado_126" data-name="Trazado 126" d="M0,4.055a1.614,1.614,0,0,0,1.489-.991L3.12,0A1.631,1.631,0,0,1,4.751,1.631V3.059a.888.888,0,0,0,.888.888H8.048a1.126,1.126,0,0,1,1.1,1.372L8.013,9.606a1.3,1.3,0,0,1-1.253.965H1.479A2.52,2.52,0,0,1,0,10.088Z" transform="translate(2.853 0)" fill="#11a793"/>
            <path id="Trazado_127" data-name="Trazado 127" d="M1.95,8.091H.9a.9.9,0,0,1-.9-.9V.9A.9.9,0,0,1,.9,0H1.95a.9.9,0,0,1,.9.9V7.188a.9.9,0,0,1-.9.9Z" transform="translate(0 3.248)" fill="#11a793"/>
          </g>
        </g>
        <path id="Trazado_128" data-name="Trazado 128" d="M1.661,0H20.135A1.661,1.661,0,0,1,21.8,1.661V15.31a1.661,1.661,0,0,1-1.661,1.661H6.733L3.551,20.152V16.971H1.661A1.661,1.661,0,0,1,0,15.31V1.661A1.661,1.661,0,0,1,1.661,0Z" transform="translate(0 10.076)" fill="#11a793"/>
        <g id="Grupo_38" data-name="Grupo 38" transform="translate(4.222 13.285)">
          <path id="Trazado_129" data-name="Trazado 129" d="M9.823,0a3.523,3.523,0,0,0-3.146,1.96A3.523,3.523,0,0,0,3.53,0,3.558,3.558,0,0,0,0,3.586c0,4.837,6.676,7.433,6.676,7.433s6.676-2.595,6.677-7.432A3.558,3.558,0,0,0,9.823,0Z" transform="translate(0 0)" fill="#fff"/>
        </g>
        <g id="Grupo_39" data-name="Grupo 39" transform="translate(9.652 13.286)">
          <path id="Trazado_130" data-name="Trazado 130" d="M4.393,0A3.47,3.47,0,0,0,3.147.23,3.585,3.585,0,0,1,5.431,3.586c0,3.5-3.5,5.828-5.431,6.845a13.363,13.363,0,0,0,1.246.586S7.922,8.423,7.923,3.586A3.558,3.558,0,0,0,4.393,0Z" transform="translate(0 0)" fill="#fff"/>
        </g>
        <g id="Grupo_41" data-name="Grupo 41" transform="translate(12.511 21.122)">
          <path id="Trazado_131" data-name="Trazado 131" d="M20.135,0H1.661A1.661,1.661,0,0,0,0,1.661V15.31a1.661,1.661,0,0,0,1.661,1.661h13.4l3.182,3.182V16.971h1.89A1.661,1.661,0,0,0,21.8,15.31V1.661A1.661,1.661,0,0,0,20.135,0Z" transform="translate(0 0)" fill="#fff"/>
          <path id="Trazado_132" data-name="Trazado 132" d="M5.072,0H2.58A1.661,1.661,0,0,1,4.241,1.661V15.31A1.661,1.661,0,0,1,2.58,16.971H0l3.182,3.182V16.971h1.89A1.661,1.661,0,0,0,6.733,15.31V1.661A1.661,1.661,0,0,0,5.072,0Z" transform="translate(15.063 0)" fill="#fff"/>
          <g id="Grupo_40" data-name="Grupo 40" transform="translate(3.942 7.072)">
            <circle id="Elipse_5" data-name="Elipse 5" cx="1.585" cy="1.585" r="1.585" transform="translate(0 0)" fill="#fff"/>
            <circle id="Elipse_6" data-name="Elipse 6" cx="1.585" cy="1.585" r="1.585" transform="translate(5.371 0)" fill="#fff"/>
            <circle id="Elipse_7" data-name="Elipse 7" cx="1.585" cy="1.585" r="1.585" transform="translate(10.741 0)" fill="#fff"/>
          </g>
        </g>
      </g>
      <g id="Grupo_43" data-name="Grupo 43" transform="translate(0 0)">
        <path id="Trazado_133" data-name="Trazado 133" d="M40.237,0H37.594a.623.623,0,0,0,0,1.246h2.642a1.039,1.039,0,0,1,1.038,1.038V15.932a1.039,1.039,0,0,1-1.038,1.038h-1.89a.623.623,0,0,0-.623.623v1.678l-2.118-2.118a.623.623,0,0,0-.44-.183H23.041V12.36a2.287,2.287,0,0,0-2.317-2.284V2.284a1.039,1.039,0,0,1,1.038-1.038H34.049a.623.623,0,0,0,0-1.246H21.763a2.286,2.286,0,0,0-2.284,2.284v7.792H2.284A2.286,2.286,0,0,0,0,12.36V26.008a2.286,2.286,0,0,0,2.284,2.284H3.551v2.559a.626.626,0,0,0,1.063.44l3-3h4.9v8.763a2.286,2.286,0,0,0,2.284,2.284H27.939l3,3A.626.626,0,0,0,32,41.9V39.339h1.267a2.286,2.286,0,0,0,2.284-2.284V23.406a2.286,2.286,0,0,0-2.284-2.284H23.041V18.216H34.907l3,3a.626.626,0,0,0,1.063-.44V18.216h1.268a2.286,2.286,0,0,0,2.284-2.284V2.284A2.286,2.286,0,0,0,40.237,0ZM12.511,23.406v.364c-.427.226-.778.387-.991.481a15.66,15.66,0,0,1-2.312-1.265.623.623,0,0,0-.689,1.038,16.105,16.105,0,0,0,2.775,1.483.623.623,0,0,0,.451,0c.019-.007.31-.122.766-.34v1.88H7.356a.623.623,0,0,0-.44.183L4.8,29.348V27.67a.623.623,0,0,0-.623-.623H2.284a1.039,1.039,0,0,1-1.038-1.038V12.36a1.039,1.039,0,0,1,1.038-1.038H20.758A1.039,1.039,0,0,1,21.8,12.36v8.763H17.617a6.272,6.272,0,0,0,1.2-3.628,4.186,4.186,0,0,0-4.152-4.209,4.109,4.109,0,0,0-3.146,1.46,4.11,4.11,0,0,0-3.146-1.46,4.186,4.186,0,0,0-4.153,4.208A6.543,6.543,0,0,0,5.9,21.745c.5.6,1.478-.176.954-.8a5.335,5.335,0,0,1-1.388-3.45,2.939,2.939,0,0,1,2.907-2.963,2.891,2.891,0,0,1,2.589,1.617.67.67,0,0,0,.556.344.623.623,0,0,0,.556-.344,2.9,2.9,0,0,1,5.5,1.347,5.436,5.436,0,0,1-1.543,3.628H14.8a2.287,2.287,0,0,0-2.284,2.284Zm20.757-1.038a1.039,1.039,0,0,1,1.038,1.038V37.055a1.039,1.039,0,0,1-1.038,1.038h-1.89a.623.623,0,0,0-.623.623v1.678l-2.118-2.118a.623.623,0,0,0-.44-.183H14.8a1.039,1.039,0,0,1-1.038-1.038V23.406A1.039,1.039,0,0,1,14.8,22.368Z" transform="translate(0 0)" fill="#303036"/>
        <path id="Trazado_134" data-name="Trazado 134" d="M6.6,0a.623.623,0,0,0-.55.33L4.415,3.394a1.132,1.132,0,0,1-.544.578,1.526,1.526,0,0,0-1.3-.724H1.525A1.527,1.527,0,0,0,0,4.773v6.286a1.527,1.527,0,0,0,1.525,1.526H2.573a1.528,1.528,0,0,0,1.4-.926,2.886,2.886,0,0,0,.979.159h5.282a1.92,1.92,0,0,0,1.855-1.428L13.224,6.1a1.769,1.769,0,0,0-1.7-2.154H9.115a.266.266,0,0,1-.265-.265V2.254A2.256,2.256,0,0,0,6.6,0ZM2.853,11.059a.28.28,0,0,1-.28.28H1.526a.28.28,0,0,1-.28-.28V4.773a.28.28,0,0,1,.28-.28H2.573a.28.28,0,0,1,.28.28ZM9.115,5.193h2.408a.5.5,0,0,1,.492.6L10.886,10.07a.673.673,0,0,1-.65.5H4.955a1.628,1.628,0,0,1-.856-.219V5.212A2.231,2.231,0,0,0,5.527,3.956l1.411-2.65a1.01,1.01,0,0,1,.666.948V3.682A1.513,1.513,0,0,0,9.115,5.193Z" transform="translate(24.53 2.799)" fill="#303036"/>
        <path id="Trazado_135" data-name="Trazado 135" d="M2.208,4.4A2.208,2.208,0,1,0,0,2.2,2.21,2.21,0,0,0,2.208,4.4Zm0-3.17a.962.962,0,1,1-.962.962.963.963,0,0,1,.962-.962Z" transform="translate(16.454 28.206)" fill="#303036"/>
        <path id="Trazado_136" data-name="Trazado 136" d="M2.208,4.4A2.208,2.208,0,1,0,0,2.2,2.21,2.21,0,0,0,2.208,4.4Zm0-3.17a.962.962,0,1,1-.962.962A.963.963,0,0,1,2.208,1.234Z" transform="translate(21.824 28.206)" fill="#303036"/>
        <path id="Trazado_137" data-name="Trazado 137" d="M2.208,4.4A2.208,2.208,0,1,0,0,2.2,2.21,2.21,0,0,0,2.208,4.4Zm0-3.17a.962.962,0,1,1-.962.962.963.963,0,0,1,.962-.962Z" transform="translate(27.195 28.206)" fill="#303036"/>
      </g>
    </g>
    <g id="Trazado_138" data-name="Trazado 138" transform="translate(7584.783 -2096.554) rotate(4.992)">
      <path id="Trazado_494" data-name="Trazado 494" d="M25.951,25.029a5.569,5.569,0,0,1-1.629-.256,6.761,6.761,0,0,1-1.513-.672,5.324,5.324,0,0,1-1.243-1.027,2.93,2.93,0,0,1-.728-1.464,1.913,1.913,0,0,1,.215-1.247,4.055,4.055,0,0,1,.724-1,4.509,4.509,0,0,1,1.033-.793l.115-.062q-.112-.088-.22-.182a4.948,4.948,0,0,1-.361-.349,9.493,9.493,0,0,1-1.386.822,4.574,4.574,0,0,1-1.978.529,3.044,3.044,0,0,1-2.174-.673,3.218,3.218,0,0,1-.884-1.849,9.706,9.706,0,0,1-.138-1.356,14.021,14.021,0,0,1,.016-1.465,9.465,9.465,0,0,1-3.527,3.855,8.9,8.9,0,0,1-2.94,1.147c-.337.067-.672.118-1.006.151s-.678.05-1.029.05q-.192,0-.4,0a1.528,1.528,0,0,1-.467.489,2.134,2.134,0,0,1-1.211.3,2.882,2.882,0,0,1-2.566-1.3c-.033-.058-.063-.113-.091-.165a4.925,4.925,0,0,1-.654-.324A1.894,1.894,0,0,1,.9,16.533a1.416,1.416,0,0,1,.869-1.306l.007,0q-.019-.231-.032-.47c-.04-.728-.048-1.493-.024-2.275s.076-1.553.154-2.3.179-1.462.3-2.125c.1-.553.208-1.05.325-1.481a3.745,3.745,0,0,1-1.2-.224A2.054,2.054,0,0,1,.31,5.593,1.821,1.821,0,0,1,0,4.585V4.066A2.409,2.409,0,0,1,.6,2.4,4.9,4.9,0,0,1,1.987,1.3,8.611,8.611,0,0,1,3.84.554,15.494,15.494,0,0,1,5.9.127,13.416,13.416,0,0,1,7.728,0l.3,0A11.777,11.777,0,0,1,9.995.2,8.17,8.17,0,0,1,13.43,1.66a8.469,8.469,0,0,1,2.25,2.521A9.234,9.234,0,0,1,16.8,7.325a10.832,10.832,0,0,1,.138,2.1,4.175,4.175,0,0,1,.7-.866,2.527,2.527,0,0,1,1.778-.684h.04q-.055-.03-.109-.062a2.57,2.57,0,0,1-.751-.7A2.752,2.752,0,0,1,18.14,6a4.646,4.646,0,0,1,0-1.628,3.842,3.842,0,0,1,.491-1.309,2.906,2.906,0,0,1,.906-.932,2.249,2.249,0,0,1,1.219-.372,4.749,4.749,0,0,1,.982.122,6.051,6.051,0,0,1,1.1.348,4.869,4.869,0,0,1,.974.545,1.672,1.672,0,0,1,.722,1.1,1.524,1.524,0,0,1-.676,1.494,1,1,0,0,0-.272.362q-.216.42-.431.862a6.141,6.141,0,0,1-.536.908,1.534,1.534,0,0,1-1.123.7l-.254-.816.1.824-.094.01a1.994,1.994,0,0,1,.793.623,2.067,2.067,0,0,1,.358.793,3.939,3.939,0,0,1,.06.951,3.754,3.754,0,0,1-.162.831q-.111.359-.285.805L22,12.246a8.137,8.137,0,0,1,.895-1.254,9.442,9.442,0,0,1,2.05-1.772,7.743,7.743,0,0,1,2.406-1.045c.106-.024.209-.043.31-.059a2.478,2.478,0,0,1,.3-.632,3.093,3.093,0,0,1,.668-.739,2.139,2.139,0,0,1,.832-.407,2.627,2.627,0,0,1,.577-.078,4.282,4.282,0,0,1,.938.137,9.591,9.591,0,0,1,1.1.329,5.764,5.764,0,0,1,1.1.58,1.822,1.822,0,0,1,.816,1.111,1.93,1.93,0,0,1,.028.518q-.013.2-.039.406c-.015.2-.036.431-.063.676L33.921,10A4.455,4.455,0,0,1,34.932,8.56a2.527,2.527,0,0,1,1.778-.684h.04q-.055-.03-.109-.062a2.57,2.57,0,0,1-.751-.7A2.752,2.752,0,0,1,35.432,6a4.646,4.646,0,0,1,0-1.628,3.842,3.842,0,0,1,.491-1.309,2.906,2.906,0,0,1,.906-.932,2.249,2.249,0,0,1,1.219-.372,4.749,4.749,0,0,1,.982.122,6.051,6.051,0,0,1,1.1.348,4.869,4.869,0,0,1,.974.545,1.671,1.671,0,0,1,.722,1.1,1.524,1.524,0,0,1-.676,1.494,1,1,0,0,0-.272.362q-.216.42-.431.862a6.133,6.133,0,0,1-.536.908,1.534,1.534,0,0,1-1.123.7l-.254-.816.1.824-.094.01a1.994,1.994,0,0,1,.793.623,2.068,2.068,0,0,1,.358.793,3.939,3.939,0,0,1,.06.951,3.754,3.754,0,0,1-.162.831q-.111.359-.285.805-.153.392-.327.959c-.073.256-.149.563-.226.911q.484-.492,1.013-1.07a1.1,1.1,0,0,1,.8-.339,1.715,1.715,0,0,1,1.014.431,1.639,1.639,0,0,1,.567.979A2.551,2.551,0,0,1,41.6,16.04a7.96,7.96,0,0,1-1.468,1.553,9.505,9.505,0,0,1-1.885,1.2,4.574,4.574,0,0,1-1.978.529,3.044,3.044,0,0,1-2.174-.673,2.591,2.591,0,0,1-.544-.753h0a7.833,7.833,0,0,1-1.149.577,20.169,20.169,0,0,1-.651,2.1,8.681,8.681,0,0,1-1.214,2.233,5.783,5.783,0,0,1-1.9,1.615A5.683,5.683,0,0,1,25.951,25.029Zm-.246-5.63.277.568a2.317,2.317,0,0,0,.453.631.7.7,0,0,0,.394.126,3.243,3.243,0,0,0,.122-.606,9.936,9.936,0,0,0,.063-1.066L27,19.059a5.658,5.658,0,0,1-.812.257A4.019,4.019,0,0,1,25.705,19.4ZM9.381,6.048c-.022.081-.049.165-.081.253q-.148.406-.32.8a16.665,16.665,0,0,0-.818,2.221c-.238.81-.441,1.65-.6,2.5s-.288,1.707-.37,2.554q-.031.322-.054.634l.027,0A6.891,6.891,0,0,0,8,14.85,3.987,3.987,0,0,0,10.319,13.4a4.953,4.953,0,0,0,.834-3.052,7.156,7.156,0,0,0-.321-2.1,4.765,4.765,0,0,0-.891-1.693A2.7,2.7,0,0,0,9.381,6.048Zm17.993,6.585q-.129.183-.242.379a3.791,3.791,0,0,0-.37.861,1.779,1.779,0,0,0-.077.657.785.785,0,0,0,.121.322c.006,0,.022.019.092.019a.648.648,0,0,0,.24-.047l.021-.008q.127-1.1.2-2.045Q27.369,12.7,27.374,12.633Z" transform="translate(0.831 0.83)" fill="#fff"/>
      <path id="Trazado_495" data-name="Trazado 495" d="M8.559,1.661a12.527,12.527,0,0,0-1.713.119,14.608,14.608,0,0,0-1.951.4,7.748,7.748,0,0,0-1.674.67,4.064,4.064,0,0,0-1.154.912,1.616,1.616,0,0,0-.4,1.131v.519a1,1,0,0,0,.173.554,1.248,1.248,0,0,0,.6.439,3.683,3.683,0,0,0,1.3.173,6.53,6.53,0,0,0,.745-.043A5.248,5.248,0,0,1,5.207,5.2a2,2,0,0,1,1.674-.716,2.115,2.115,0,0,1,.727.15,4.157,4.157,0,0,1,.785.392,3.18,3.18,0,0,1,.67.566l.031.036a2.847,2.847,0,0,1,.581.1,3.484,3.484,0,0,1,1.732,1.12,5.562,5.562,0,0,1,1.05,1.986,7.946,7.946,0,0,1,.358,2.343,5.721,5.721,0,0,1-1,3.555,4.825,4.825,0,0,1-2.782,1.755,7.692,7.692,0,0,1-.935.173,8.306,8.306,0,0,1-1,.058H7.083q-.018.46-.018.9.046.554.081.981a2.826,2.826,0,0,1,0,.562q.54.027.986.027.485,0,.947-.046T10,19a8.037,8.037,0,0,0,2.667-1.039,8.655,8.655,0,0,0,3.452-4.017,10.1,10.1,0,0,0,.716-2.563,9.932,9.932,0,0,0-.023-3.094,8.37,8.37,0,0,0-1.016-2.863,7.61,7.61,0,0,0-2.032-2.274,7.321,7.321,0,0,0-3.094-1.3,10.906,10.906,0,0,0-1.824-.185q-.142,0-.284,0M21.587,3.419a1.426,1.426,0,0,0-.773.242,2.074,2.074,0,0,0-.646.67,3.007,3.007,0,0,0-.381,1.027,3.771,3.771,0,0,0,0,1.316,1.928,1.928,0,0,0,.312.785,1.737,1.737,0,0,0,.508.473,1.793,1.793,0,0,0,.612.231,3.805,3.805,0,0,0,.67.058,1.482,1.482,0,0,0,.185-.012,1.482,1.482,0,0,1,.185-.012.746.746,0,0,0,.519-.358,5.286,5.286,0,0,0,.462-.785q.219-.45.439-.877a1.808,1.808,0,0,1,.5-.635.75.75,0,0,0,.369-.716.875.875,0,0,0-.392-.554,4.017,4.017,0,0,0-.808-.45,5.2,5.2,0,0,0-.947-.3,3.99,3.99,0,0,0-.808-.1m17.292,0a1.426,1.426,0,0,0-.773.242,2.073,2.073,0,0,0-.646.67,3.007,3.007,0,0,0-.381,1.027,3.771,3.771,0,0,0,0,1.316,1.928,1.928,0,0,0,.312.785,1.737,1.737,0,0,0,.508.473,1.793,1.793,0,0,0,.612.231,3.805,3.805,0,0,0,.67.058,1.482,1.482,0,0,0,.185-.012,1.482,1.482,0,0,1,.185-.012.746.746,0,0,0,.519-.358,5.286,5.286,0,0,0,.462-.785q.219-.45.439-.877a1.809,1.809,0,0,1,.5-.635.75.75,0,0,0,.369-.716.875.875,0,0,0-.392-.554,4.017,4.017,0,0,0-.808-.45,5.2,5.2,0,0,0-.947-.3,3.99,3.99,0,0,0-.808-.1M8.858,5.616a4.561,4.561,0,0,0-1.585.319q-.9.185-1.789.416a7.271,7.271,0,0,1-1,.188q-.148.379-.283.828a15.126,15.126,0,0,0-.381,1.662Q3.649,10,3.533,11.1t-.15,2.239q-.035,1.143.023,2.2.033.6.105,1.148.261-.017.6-.017.231,0,.681.012t.912.012q.462,0,.854.012t.526.012q.03-.769.109-1.593.127-1.316.381-2.632T8.2,9.918A17.359,17.359,0,0,1,9.051,7.6q.162-.369.3-.75a1.129,1.129,0,0,0,.092-.589,1.622,1.622,0,0,0-.35-.634q-.116-.009-.236-.009m22.01,2.3a1.913,1.913,0,0,0-.392.058,1.313,1.313,0,0,0-.508.254,2.262,2.262,0,0,0-.485.543,2.108,2.108,0,0,0-.3.923l-.392.046a3.886,3.886,0,0,0-.416.069,6.886,6.886,0,0,0-2.147.935,8.573,8.573,0,0,0-1.87,1.616,7,7,0,0,0-1.235,2.02,4.2,4.2,0,0,0-.283,1.161q.514-.521,1.08-1.138a.25.25,0,0,1,.185-.069.876.876,0,0,1,.473.231.8.8,0,0,1,.289.485,1.767,1.767,0,0,1-.4,1.337,6.939,6.939,0,0,1-1.146,1.246,4.1,4.1,0,0,0,.765.892,3.994,3.994,0,0,0,1,.646,2.666,2.666,0,0,0,1.1.242,2.855,2.855,0,0,0,.646-.081,4.8,4.8,0,0,0,.693-.219,6.288,6.288,0,0,0,.646-.3,5.358,5.358,0,0,0,.531-.323q-.023.6-.023,1.281a10.9,10.9,0,0,1-.069,1.27,3.59,3.59,0,0,1-.231.97.523.523,0,0,1-.485.381,1.659,1.659,0,0,1-1.212-.381,3.162,3.162,0,0,1-.612-.854l-.427-.877a.769.769,0,0,0-.658-.45,2.122,2.122,0,0,0-.935.289,3.662,3.662,0,0,0-.843.646,3.216,3.216,0,0,0-.577.8,1.129,1.129,0,0,0-.139.739,2.105,2.105,0,0,0,.531,1.05,4.476,4.476,0,0,0,1.05.866,5.9,5.9,0,0,0,1.328.589,4.718,4.718,0,0,0,1.385.219,4.844,4.844,0,0,0,2.3-.508,4.936,4.936,0,0,0,1.628-1.385,7.814,7.814,0,0,0,1.1-2.02,19.63,19.63,0,0,0,.727-2.436,6.715,6.715,0,0,0,1.42-.658,9.288,9.288,0,0,0,.9-.616,9.61,9.61,0,0,1-.111-1.164q-.026-.571.006-1.207-.3.288-.537.5a5.227,5.227,0,0,1-.658.508q-.162.115-.3.2a1.478,1.478,0,0,1-.277.127q.139-.831.3-1.685t.312-1.674q.15-.82.254-1.57t.15-1.374q.023-.185.035-.358a1.124,1.124,0,0,0-.012-.289,1.027,1.027,0,0,0-.473-.6,4.862,4.862,0,0,0-.912-.485,8.715,8.715,0,0,0-1-.3,3.632,3.632,0,0,0-.75-.115m-3.14,8.612a.939.939,0,0,1-.658-.242,1.511,1.511,0,0,1-.381-.843,2.58,2.58,0,0,1,.1-.97,4.6,4.6,0,0,1,.45-1.05,5.732,5.732,0,0,1,.693-.958,3.707,3.707,0,0,1,.854-.716,2.41,2.41,0,0,1,.242-.127q.127-.058.242-.1-.162,1.016-.254,2.147t-.254,2.47a1.9,1.9,0,0,1-.5.289,1.477,1.477,0,0,1-.543.1m-7.48-7A1.714,1.714,0,0,0,19.036,10a3.614,3.614,0,0,0-.82,1.177,7.241,7.241,0,0,0-.5,1.616,16.088,16.088,0,0,0-.242,1.789,13.591,13.591,0,0,0-.035,1.66,9.033,9.033,0,0,0,.127,1.252,2.413,2.413,0,0,0,.635,1.385,2.312,2.312,0,0,0,1.6.446,3.818,3.818,0,0,0,1.616-.446,8.636,8.636,0,0,0,1.72-1.1q.087-.071.17-.143l-.02-.032a2.938,2.938,0,0,1-.416-1.1,3.614,3.614,0,0,1-.041-.963q-.179.181-.352.351a1.836,1.836,0,0,1-1.108.658q-.185,0-.185-.139.115-.877.254-1.524t.277-1.131q.185-.6.346-1.016t.266-.75a2.905,2.905,0,0,0,.127-.646,3.1,3.1,0,0,0-.046-.727,1.243,1.243,0,0,0-.219-.473,1.4,1.4,0,0,0-.635-.427,3.918,3.918,0,0,0-1.316-.185m17.292,0A1.714,1.714,0,0,0,36.329,10a3.614,3.614,0,0,0-.82,1.177,7.242,7.242,0,0,0-.5,1.616,16.087,16.087,0,0,0-.242,1.789q-.018.231-.029.453l.237-.234a1,1,0,0,1,.716-.439.789.789,0,0,1,.635.289,1.8,1.8,0,0,1,.312.473,2.287,2.287,0,0,1-.45.935,6.525,6.525,0,0,1-.958,1.027q-.186.164-.386.319.008.045.016.088A2.413,2.413,0,0,0,35.5,18.88a2.312,2.312,0,0,0,1.6.446,3.818,3.818,0,0,0,1.616-.446,8.636,8.636,0,0,0,1.72-1.1,7.1,7.1,0,0,0,1.316-1.389,1.767,1.767,0,0,0,.4-1.337.8.8,0,0,0-.289-.485.876.876,0,0,0-.473-.231.25.25,0,0,0-.185.069q-.762.831-1.431,1.489a1.836,1.836,0,0,1-1.108.658q-.185,0-.185-.139.115-.877.254-1.524t.277-1.131q.185-.6.346-1.016T39.63,12a2.9,2.9,0,0,0,.127-.646,3.1,3.1,0,0,0-.046-.727,1.243,1.243,0,0,0-.219-.473,1.4,1.4,0,0,0-.635-.427,3.918,3.918,0,0,0-1.316-.185M3.511,16.688l-.082.006a1.293,1.293,0,0,0-.473.115.592.592,0,0,0-.392.554,1.064,1.064,0,0,0,.6.935A4.366,4.366,0,0,0,4,18.676a5.99,5.99,0,0,1-.349-1.162q-.081-.4-.137-.826M4,18.676a4.017,4.017,0,0,0,.182.373,2.071,2.071,0,0,0,1.87.923,1.375,1.375,0,0,0,.75-.162.735.735,0,0,0,.312-.473q.019-.084.03-.177-.327-.016-.688-.042a12.236,12.236,0,0,1-1.824-.266A6.3,6.3,0,0,1,4,18.676M8.559,0l.323,0a12.615,12.615,0,0,1,2.1.215,8.984,8.984,0,0,1,3.777,1.609A9.3,9.3,0,0,1,17.23,4.6a9.913,9.913,0,0,1,.87,1.971,5.232,5.232,0,0,1,.056-1.521,4.667,4.667,0,0,1,.6-1.591A3.729,3.729,0,0,1,19.922,2.26a3.066,3.066,0,0,1,1.665-.5,5.55,5.55,0,0,1,1.156.141,6.894,6.894,0,0,1,1.248.4,5.7,5.7,0,0,1,1.141.639,2.485,2.485,0,0,1,1.052,1.641,2.339,2.339,0,0,1-.977,2.268c0,.007-.025.039-.053.094q-.211.412-.423.846a6.973,6.973,0,0,1-.61,1.032,2.839,2.839,0,0,1-.473.514,2.829,2.829,0,0,1,.4.968l0,.022a10.4,10.4,0,0,1,1.28-.967,8.619,8.619,0,0,1,2.56-1.129,3.091,3.091,0,0,1,.21-.368,3.919,3.919,0,0,1,.851-.936,2.964,2.964,0,0,1,1.155-.559,3.416,3.416,0,0,1,.761-.1,5.049,5.049,0,0,1,1.127.159,10.412,10.412,0,0,1,1.2.357,6.658,6.658,0,0,1,1.284.676,2.815,2.815,0,0,1,.984,1.111,3.336,3.336,0,0,1,.472-.3,3.69,3.69,0,0,1-.483-1.277,5.507,5.507,0,0,1,0-1.94,4.667,4.667,0,0,1,.6-1.591A3.729,3.729,0,0,1,37.215,2.26a3.066,3.066,0,0,1,1.665-.5,5.55,5.55,0,0,1,1.156.141,6.894,6.894,0,0,1,1.248.4,5.7,5.7,0,0,1,1.141.639,2.485,2.485,0,0,1,1.052,1.641A2.339,2.339,0,0,1,42.5,6.842c0,.007-.025.039-.053.094q-.212.412-.423.846a6.973,6.973,0,0,1-.61,1.032,2.839,2.839,0,0,1-.473.514,2.829,2.829,0,0,1,.4.968,4.8,4.8,0,0,1,.074,1.176,4.577,4.577,0,0,1-.2,1.016q-.031.1-.066.205a1.969,1.969,0,0,1,.246-.015h.083l.082.008a2.5,2.5,0,0,1,1.389.622,2.458,2.458,0,0,1,.846,1.473,3.334,3.334,0,0,1-.685,2.567,8.784,8.784,0,0,1-1.621,1.716,10.34,10.34,0,0,1-2.05,1.31,5.373,5.373,0,0,1-2.339.612,3.817,3.817,0,0,1-2.744-.9,3.172,3.172,0,0,1-.248-.262l-.177.084c-.169.62-.361,1.218-.574,1.786a9.506,9.506,0,0,1-1.332,2.446,6.607,6.607,0,0,1-2.17,1.845,6.5,6.5,0,0,1-3.075.7A6.4,6.4,0,0,1,24.91,26.4a7.59,7.59,0,0,1-1.7-.755,6.156,6.156,0,0,1-1.437-1.188,3.747,3.747,0,0,1-.925-1.877,2.694,2.694,0,0,1,.291-1.755l.028-.056a4.568,4.568,0,0,1-1.359.22,3.817,3.817,0,0,1-2.744-.9,4.021,4.021,0,0,1-1.132-2.312q-.032-.167-.059-.364a10.462,10.462,0,0,1-2.334,1.963,9.727,9.727,0,0,1-3.213,1.256c-.366.073-.728.127-1.089.164s-.733.054-1.108.054a2.4,2.4,0,0,1-.41.344,2.927,2.927,0,0,1-1.672.441,3.744,3.744,0,0,1-3.241-1.647,5.544,5.544,0,0,1-.5-.261A2.7,2.7,0,0,1,.9,17.364a2.208,2.208,0,0,1,.271-1.071l-.165-.386.341.116a2.294,2.294,0,0,1,.4-.406c-.04-.747-.048-1.532-.024-2.332s.078-1.594.158-2.363.183-1.5.305-2.184q.059-.329.122-.633a3.389,3.389,0,0,1-.5-.156A2.864,2.864,0,0,1,.445,6.877,2.674,2.674,0,0,1,0,5.416V4.9A3.238,3.238,0,0,1,.8,2.7,5.726,5.726,0,0,1,2.415,1.4,9.438,9.438,0,0,1,4.447.584,16.332,16.332,0,0,1,6.619.134,14.24,14.24,0,0,1,8.559,0ZM18.638,8.262a3.247,3.247,0,0,1-.221-.419q.016.088.031.177.026.16.048.32Q18.565,8.3,18.638,8.262ZM8.9,14.8a3.085,3.085,0,0,0,1.592-1.075,4.168,4.168,0,0,0,.664-2.548,6.326,6.326,0,0,0-.285-1.856,4.438,4.438,0,0,0-.373-.883,16.1,16.1,0,0,0-.7,1.949c-.23.785-.428,1.6-.586,2.421C9.077,13.468,8.974,14.136,8.9,14.8Z" transform="translate(0 0)" fill="#303036"/>
    </g>
    <g id="Trazado_139" data-name="Trazado 139" transform="translate(7570.423 -2081.642) rotate(4.992)">
      <path id="Trazado_496" data-name="Trazado 496" d="M4.212,19.88A2.864,2.864,0,0,1,1.7,18.613a6.29,6.29,0,0,1-.629-1.789,14.189,14.189,0,0,1-.257-2.053C.778,14.06.77,13.313.794,12.548S.869,11.031.948,10.3s.174-1.418.283-2.054a14.9,14.9,0,0,1,.391-1.719q.071-.222.143-.426l-.093-.04A3.132,3.132,0,0,1,.8,5.479,2.706,2.706,0,0,1,.22,4.7,2.078,2.078,0,0,1,0,3.8,2.382,2.382,0,0,1,1,1.907,6.847,6.847,0,0,1,3.017.841,14.433,14.433,0,0,1,5.605.217,18.9,18.9,0,0,1,8.445,0a8.468,8.468,0,0,1,3.378.632,7.945,7.945,0,0,1,2.4,1.558,6.549,6.549,0,0,1,1.445,2.018,4.9,4.9,0,0,1,.486,1.982,4.786,4.786,0,0,1-.527,2.181,6.931,6.931,0,0,1-1.331,1.8,9.1,9.1,0,0,1-1.873,1.406q-.439.251-.9.459.132.152.263.317.589.743,1.108,1.473.49.691.891,1.193l.04.049c.143-.164.281-.321.431-.488a5.765,5.765,0,0,1,.715-.669,7.155,7.155,0,0,1,.019-1.157,5.793,5.793,0,0,1,.686-2.253,5.357,5.357,0,0,1,2.216-2.133,7.782,7.782,0,0,1,3.733-.8,4.362,4.362,0,0,1,2.568.653,1.73,1.73,0,0,1,.084-.464,1.479,1.479,0,0,1,.671-.824,2.335,2.335,0,0,1,.887-.277q.272-.035.6-.07c.123-.36.26-.709.409-1.043a8.253,8.253,0,0,1,.761-1.369,4.14,4.14,0,0,1,1-1.033A2.387,2.387,0,0,1,30,2.691a3.925,3.925,0,0,1,1.6.348,4.524,4.524,0,0,1,1.324.833,2.5,2.5,0,0,1,.835,1.41,1.452,1.452,0,0,1-.13.965A2.311,2.311,0,0,1,33.4,6.6a1.364,1.364,0,0,1,.71.779,4.226,4.226,0,0,1,.227.761,2.155,2.155,0,0,1-.1,1.052,3.236,3.236,0,0,1-.433.836,3.115,3.115,0,0,1-.659.674,1.889,1.889,0,0,1-.981.393,2.8,2.8,0,0,1-.4.026,3.548,3.548,0,0,1-.454-.03l-.116-.015c-.07.235-.134.471-.19.707q-.166.7-.277,1.331t-.164,1.16c-.031.306-.049.565-.053.776h.02a1.394,1.394,0,0,0,.48-.177,3.193,3.193,0,0,0,.7-.5A5.921,5.921,0,0,1,32.067,13,8.721,8.721,0,0,1,33.6,10.454a8.973,8.973,0,0,1,2.244-1.875,5.217,5.217,0,0,1,2.64-.781l.174,0,.017-.045a1.346,1.346,0,0,1,.651-.671,1.731,1.731,0,0,1,.837-.229A4.024,4.024,0,0,1,41.184,7a4.982,4.982,0,0,1,1.008.387,4.6,4.6,0,0,1,.9.6,2.729,2.729,0,0,1,.4.429h.356v.672l.04.1-.065.261,0,.082q-.024.229-.108.795-.082.551-.246,1.452T43,14.012l-.035.154q.248-.26.531-.585l.662-.776a1.548,1.548,0,0,1,1.161-.568,1.238,1.238,0,0,1,1.085.688,2.64,2.64,0,0,1,.3.677,2.159,2.159,0,0,1-.2,1.367,5.756,5.756,0,0,1-.725,1.145A9.445,9.445,0,0,1,44.753,17.2a10.324,10.324,0,0,1-1.189.938,7.725,7.725,0,0,1-1.264.7,3.366,3.366,0,0,1-1.328.309,4.32,4.32,0,0,1-1.919-.407,2.275,2.275,0,0,1-.676-.506,5.1,5.1,0,0,1-1.617.905,3.749,3.749,0,0,1-.932.19h-.011a4.324,4.324,0,0,1-2.64-.792,3.082,3.082,0,0,1-.592-.572,10.3,10.3,0,0,1-1.76.843,6.674,6.674,0,0,1-2.283.454,3.236,3.236,0,0,1-1.818-.6,3.927,3.927,0,0,1-1.1-1.117l-.009.006a8.956,8.956,0,0,1-2.256,1.181,7.937,7.937,0,0,1-2.7.463,6.518,6.518,0,0,1-1.924-.279A5.484,5.484,0,0,1,17.1,18.1a5.17,5.17,0,0,1-.545-.462q-.075.085-.155.169a6.681,6.681,0,0,1-1.785,1.316,5.346,5.346,0,0,1-2.487.576,4.066,4.066,0,0,1-2.415-.615,4.249,4.249,0,0,1-1.358-1.789c-.292-.567-.57-1.138-.813-1.67-.225-.494-.456-.945-.687-1.342a4.148,4.148,0,0,0-.592-.8q-.061.466-.107.93c-.081.828-.123,1.613-.123,2.334l.078.888a3.185,3.185,0,0,1-.053.978,1.573,1.573,0,0,1-.632.954A2.064,2.064,0,0,1,4.212,19.88Zm20.957-7.349a4.621,4.621,0,0,1-1.111,1.343,6.584,6.584,0,0,1-1.8,1.053q-.256.1-.523.187a3.4,3.4,0,0,0,1.895-.7,8.425,8.425,0,0,0,1.5-1.44C25.141,12.823,25.154,12.677,25.169,12.531Zm12.789-.123q-.065.117-.124.239a4.785,4.785,0,0,0-.373,1.088,2.86,2.86,0,0,0-.066.837.444.444,0,0,0,.106-.024,1.133,1.133,0,0,0,.141-.438,7.293,7.293,0,0,1,.156-.8ZM7.178,9.24q.132.007.278.007a3.213,3.213,0,0,0,1.052-.173,2.977,2.977,0,0,0,.855-.447,2,2,0,0,0,.524-.6,1.225,1.225,0,0,0,.167-.623,3.154,3.154,0,0,0-.093-.7,1.781,1.781,0,0,0-.285-.631,1.543,1.543,0,0,0-.55-.457,1.948,1.948,0,0,0-.83-.187L8.3,5.47a1.843,1.843,0,0,1-.117,1.081l-.276.736A18.729,18.729,0,0,0,7.178,9.24Zm19.705-1.93.018.065-.01-.063Z" transform="translate(0.83 0.83)" fill="#fff"/>
      <path id="Trazado_497" data-name="Trazado 497" d="M9.275,1.661a17.976,17.976,0,0,0-2.714.207,13.546,13.546,0,0,0-2.438.587,6,6,0,0,0-1.771.932,1.582,1.582,0,0,0-.69,1.242,1.254,1.254,0,0,0,.138.541,1.873,1.873,0,0,0,.4.541,2.3,2.3,0,0,0,.644.426,2.12,2.12,0,0,0,.883.173,3.338,3.338,0,0,1,.509-.828,1.949,1.949,0,0,1,.69-.518,2.265,2.265,0,0,1,.92-.172,2.162,2.162,0,0,1,.713.138,3.27,3.27,0,0,1,.748.38,3.769,3.769,0,0,1,.356.273q.162-.03.323-.055.253-.046.495-.069t.495-.023a2.9,2.9,0,0,1,1.369.288,2.35,2.35,0,0,1,.84.713,2.619,2.619,0,0,1,.414.92,3.956,3.956,0,0,1,.115.886,2.053,2.053,0,0,1-.276,1.035,2.84,2.84,0,0,1-.736.84,3.786,3.786,0,0,1-1.093.575,4.022,4.022,0,0,1-1.323.219,4.821,4.821,0,0,1-.7-.046l-.61-.092-.034-.005q-.24.893-.414,1.823-.039.206-.074.411a2.608,2.608,0,0,1,1.109.612,4.834,4.834,0,0,1,.84,1.081q.368.633.725,1.415t.817,1.679a3.427,3.427,0,0,0,1.081,1.449,3.326,3.326,0,0,0,1.932.46,4.5,4.5,0,0,0,2.1-.483,5.827,5.827,0,0,0,1.564-1.15,5.041,5.041,0,0,0,.717-.949,3.932,3.932,0,0,1-.545-1.328q-.074-.308-.117-.615a1.369,1.369,0,0,0-.286.167,4.929,4.929,0,0,0-.69.633q-.311.345-.552.633a.655.655,0,0,1-.472.288q-.3,0-.713-.518t-.92-1.231q-.506-.713-1.081-1.438a5.936,5.936,0,0,0-1.15-1.139,9.846,9.846,0,0,0,2.024-.874,8.231,8.231,0,0,0,1.7-1.277,6.077,6.077,0,0,0,1.173-1.587,3.944,3.944,0,0,0,.437-1.806,4.14,4.14,0,0,0-.414-1.645,5.7,5.7,0,0,0-1.265-1.76,7.09,7.09,0,0,0-2.151-1.392,7.614,7.614,0,0,0-3.048-.564M30.83,4.352a1.565,1.565,0,0,0-.912.3,3.3,3.3,0,0,0-.8.828,7.392,7.392,0,0,0-.683,1.231,12.036,12.036,0,0,0-.544,1.484,1,1,0,0,0-.162.012.854.854,0,0,1-.139.011q-.463.046-.821.092a1.548,1.548,0,0,0-.576.172.648.648,0,0,0-.3.368,1.4,1.4,0,0,0-.012.656,1.061,1.061,0,0,0,.449.713,3.028,3.028,0,0,0,.912.437q-.185.9-.3,1.771t-.174,1.645l0,.047q.1-.131.2-.266a.386.386,0,0,1,.138-.08.471.471,0,0,1,.161-.034.89.89,0,0,1,.725.265.808.808,0,0,1,.15.679,3.934,3.934,0,0,1-.713,1.564,5.977,5.977,0,0,1-.668.78l.013.048a3.941,3.941,0,0,0,.2.529,3.1,3.1,0,0,0,1.053,1.2,2.414,2.414,0,0,0,1.354.46,5.829,5.829,0,0,0,2-.4A9.324,9.324,0,0,0,33.4,17.821q.147-.1.285-.2a4.612,4.612,0,0,1-.3-1.051,4.052,4.052,0,0,1-.052-.981l-.017.015a4.386,4.386,0,0,1-1.1.84,2.053,2.053,0,0,1-.851.265,1.231,1.231,0,0,1-.6-.138q-.253-.138-.253-.621,0-.368.058-.932t.172-1.219q.115-.656.288-1.38a13.985,13.985,0,0,1,.426-1.438q.437.069.794.115a2.717,2.717,0,0,0,.348.023,2.336,2.336,0,0,0,.331-.023,1.071,1.071,0,0,0,.552-.23,2.275,2.275,0,0,0,.483-.495,2.39,2.39,0,0,0,.322-.621,1.313,1.313,0,0,0,.069-.633,3.459,3.459,0,0,0-.184-.61.477.477,0,0,0-.46-.357H32.6a3.579,3.579,0,0,1,.46-.667q.23-.253.4-.437a1.705,1.705,0,0,0,.265-.357.643.643,0,0,0,.046-.426,1.69,1.69,0,0,0-.575-.943,3.726,3.726,0,0,0-1.1-.69,3.087,3.087,0,0,0-1.265-.276M7.665,5.58q-.577.106-1.161.267A13.18,13.18,0,0,1,5.02,6.17l-.644.092a4.553,4.553,0,0,1-.644.046h0l-.02.046q-.23.529-.46,1.242A14.013,14.013,0,0,0,2.88,9.218q-.161.932-.276,2T2.455,13.4q-.035,1.116.023,2.151a13.3,13.3,0,0,0,.242,1.932,5.5,5.5,0,0,0,.506,1.5,2.035,2.035,0,0,0,1.817.9,1.309,1.309,0,0,0,.736-.161.742.742,0,0,0,.3-.46,2.4,2.4,0,0,0,.035-.725q-.035-.426-.081-.955,0-1.127.127-2.415.106-1.083.294-2.165l-.075-.02a1.79,1.79,0,0,1-.955-.472,2.345,2.345,0,0,1-.575-.794.949.949,0,0,1-.035-.748q.138-.334.69-.334a6.381,6.381,0,0,1,.828.046q.325.043.61.087.093-.345.2-.685a19.252,19.252,0,0,1,.828-2.254L8.24,7.09a1.078,1.078,0,0,0,.092-.575,1.558,1.558,0,0,0-.38-.656,3.661,3.661,0,0,0-.288-.279M41,8.516a.91.91,0,0,0-.437.127.589.589,0,0,0-.276.242l-.23.6q-.184,0-.368-.012t-.368-.011a4.383,4.383,0,0,0-2.22.667,8.106,8.106,0,0,0-2.036,1.7,7.857,7.857,0,0,0-1.392,2.3,4.9,4.9,0,0,0-.339,1.458,3.293,3.293,0,0,0,.3-.307q.184-.207.38-.414t.368-.357a.494.494,0,0,1,.265-.15,1.033,1.033,0,0,1,.449.184.646.646,0,0,1,.288.46,1.833,1.833,0,0,1-.472,1.438,6.4,6.4,0,0,1-1.233,1.178A2.538,2.538,0,0,0,34.5,18.7a3.461,3.461,0,0,0,2.1.633,2.907,2.907,0,0,0,.725-.15,4.158,4.158,0,0,0,.759-.345,4.22,4.22,0,0,0,.713-.518,3.4,3.4,0,0,0,.587-.69,1.664,1.664,0,0,0,.863,1.2,3.486,3.486,0,0,0,1.553.322,2.59,2.59,0,0,0,1-.242,6.861,6.861,0,0,0,1.127-.621,9.448,9.448,0,0,0,1.093-.863,8.572,8.572,0,0,0,.932-.989,4.91,4.91,0,0,0,.621-.978,1.344,1.344,0,0,0,.149-.817,1.871,1.871,0,0,0-.207-.46q-.161-.276-.368-.276a.724.724,0,0,0-.529.276l-.667.782A13.528,13.528,0,0,1,43.862,16.1a1.409,1.409,0,0,1-.932.426.24.24,0,0,1-.276-.23l.368-1.633q.3-1.311.46-2.2t.242-1.426q.08-.541.1-.759.019-.185.022-.2a1.649,1.649,0,0,0-.471-.631,3.747,3.747,0,0,0-.736-.495,4.126,4.126,0,0,0-.84-.322A3.183,3.183,0,0,0,41,8.516m-2.991,7.729a.538.538,0,0,1-.38-.138.95.95,0,0,1-.219-.529,3.546,3.546,0,0,1,.069-1.185,5.587,5.587,0,0,1,.437-1.277A4.854,4.854,0,0,1,38.652,12a2.278,2.278,0,0,1,.989-.679.867.867,0,0,1,.345-.069l-.552,3.083a6.454,6.454,0,0,0-.138.713,2.283,2.283,0,0,1-.161.61.941.941,0,0,1-.368.426,1.434,1.434,0,0,1-.759.161M22.457,9.229a6.945,6.945,0,0,0-3.336.7,4.528,4.528,0,0,0-1.886,1.806,4.945,4.945,0,0,0-.587,1.932,6.307,6.307,0,0,0,.032,1.5,1.558,1.558,0,0,1,.623-.121.452.452,0,0,1,.345.1.667.667,0,0,1,.138.265,2.245,2.245,0,0,1-.219,1.242,4.106,4.106,0,0,1-.226.454l.042.064a4.339,4.339,0,0,0,1.035,1.081,4.633,4.633,0,0,0,1.392.69,5.663,5.663,0,0,0,1.679.242,7.076,7.076,0,0,0,2.415-.414,8.091,8.091,0,0,0,2.047-1.07,7.139,7.139,0,0,0,.8-.68,2.144,2.144,0,0,1-.068-.55q-.023-.391,0-1.012.022-.6.077-1.345a9.272,9.272,0,0,1-1.814,1.789,4.255,4.255,0,0,1-2.519.868,1.735,1.735,0,0,1-1.058-.39,2.177,2.177,0,0,1-.6-.917,7.518,7.518,0,0,0,2-.482,5.73,5.73,0,0,0,1.576-.917,3.721,3.721,0,0,0,.989-1.25,2.332,2.332,0,0,0,.2-1.456,2.517,2.517,0,0,0-.9-1.56,3.455,3.455,0,0,0-2.185-.573M20.57,13.784a3.545,3.545,0,0,1,.138-1,2.963,2.963,0,0,1,.368-.817,2.217,2.217,0,0,1,.506-.552.918.918,0,0,1,.552-.207.32.32,0,0,1,.311.15,1.382,1.382,0,0,1,.127.357,1.345,1.345,0,0,1-.08.656,2.118,2.118,0,0,1-.391.667,2.2,2.2,0,0,1-.656.518,2.052,2.052,0,0,1-.874.23m23.28-3.706h0s0,0,0,0M9.275,0a9.289,9.289,0,0,1,3.709.7,8.767,8.767,0,0,1,2.648,1.725A7.371,7.371,0,0,1,17.257,4.7a5.7,5.7,0,0,1,.557,2.319,5.569,5.569,0,0,1-.378,2.021,7.283,7.283,0,0,1,.89-.569,8.59,8.59,0,0,1,4.13-.9,6.266,6.266,0,0,1,2.067.306,2.294,2.294,0,0,1,.839-.83,3.144,3.144,0,0,1,1.2-.383l.106-.013q.121-.314.255-.614a9.07,9.07,0,0,1,.839-1.507A4.962,4.962,0,0,1,28.967,3.29a3.2,3.2,0,0,1,1.863-.6,4.751,4.751,0,0,1,1.94.419,5.308,5.308,0,0,1,1.544.976,3.312,3.312,0,0,1,1.095,1.878,2.328,2.328,0,0,1-.1,1.255,2.343,2.343,0,0,1,.407.686,5.032,5.032,0,0,1,.269.912l.006.04q.133-.084.269-.164a6.163,6.163,0,0,1,2.751-.886,2.393,2.393,0,0,1,.751-.62A2.551,2.551,0,0,1,41,6.855a4.849,4.849,0,0,1,1.228.17,5.81,5.81,0,0,1,1.177.451,5.424,5.424,0,0,1,1.061.714q.128.11.242.228h.806V9.76l.08.2-.1.419-.008.071q-.025.239-.113.83-.07.47-.2,1.191a2.187,2.187,0,0,1,.983-.233,2.077,2.077,0,0,1,1.8,1.1,3.444,3.444,0,0,1,.384.894,2.989,2.989,0,0,1-.254,1.918,6.582,6.582,0,0,1-.828,1.313,10.267,10.267,0,0,1-1.112,1.182,11.163,11.163,0,0,1-1.285,1.014,8.557,8.557,0,0,1-1.4.77,4.172,4.172,0,0,1-1.655.376,5.14,5.14,0,0,1-2.285-.492,3.167,3.167,0,0,1-.344-.2q-.127.082-.257.157a5.844,5.844,0,0,1-1.063.481,4.579,4.579,0,0,1-1.139.231l-.055,0H36.6a5.1,5.1,0,0,1-3.087-.954q-.131-.1-.254-.2a11.243,11.243,0,0,1-1.319.584,7.494,7.494,0,0,1-2.57.5,4.05,4.05,0,0,1-2.282-.744,4.819,4.819,0,0,1-.817-.692,10.129,10.129,0,0,1-1.807.854,8.765,8.765,0,0,1-2.978.512,7.346,7.346,0,0,1-2.169-.315,6.312,6.312,0,0,1-1.886-.939l0,0a7.784,7.784,0,0,1-1.605,1.095,6.168,6.168,0,0,1-2.869.67,4.849,4.849,0,0,1-2.9-.769A5.031,5.031,0,0,1,8.444,18.5q-.411-.8-.742-1.518-.008.268-.009.525l.075.889A4,4,0,0,1,7.7,19.633a2.39,2.39,0,0,1-.965,1.447,2.853,2.853,0,0,1-1.689.461,3.707,3.707,0,0,1-3.2-1.637L1.8,19.839l-.037-.069a7.06,7.06,0,0,1-.671-1.949,15.02,15.02,0,0,1-.273-2.174C.778,14.913.77,14.141.794,13.353s.077-1.56.158-2.312.178-1.454.291-2.107c.1-.59.22-1.126.351-1.6a3.758,3.758,0,0,1-.541-.428A3.535,3.535,0,0,1,.3,5.888,2.9,2.9,0,0,1,0,4.628,3.185,3.185,0,0,1,1.313,2.089,7.667,7.667,0,0,1,3.572.887,15.255,15.255,0,0,1,6.31.226,19.727,19.727,0,0,1,9.275,0ZM9.251,9.049A1.953,1.953,0,0,0,9.684,8.8,1.184,1.184,0,0,0,10,8.451a.4.4,0,0,0,.057-.211,2.312,2.312,0,0,0-.072-.509.945.945,0,0,0-.111-.274q-.033.107-.074.217l-.276.736L9.5,8.455l-.02.045Q9.364,8.767,9.251,9.049Zm5.707,5.322A7.959,7.959,0,0,1,15,13.507a6.832,6.832,0,0,1,.335-1.558,10.128,10.128,0,0,1-1.665,1.183l-.025.014q.4.519.763,1.033.159.223.307.426Q14.83,14.486,14.958,14.372Z" transform="translate(0 0)" fill="#303036"/>
    </g>
  </g>
</svg>
