<svg xmlns="http://www.w3.org/2000/svg" width="410.239" height="426.888" viewBox="0 0 410.239 426.888">
  <g id="mando" transform="translate(-174.149)">
    <g id="Layer_1_1_" transform="translate(177.284)">
      <path id="Trazado_550" data-name="Trazado 550" d="M498.464,414.781H262.3a82.036,82.036,0,1,0,73.091,119.324h89.983a82.043,82.043,0,1,0,73.089-119.324Z" transform="translate(-178.42 -157.002)" stroke="#000" stroke-linecap="round" stroke-linejoin="round" stroke-width="10" opacity="0.41"/>
      <g id="Grupo_1206" data-name="Grupo 1206" transform="translate(51.561 2.486)" opacity="0.41">
        <path id="Trazado_551" data-name="Trazado 551" d="M410.651,242.364a3.108,3.108,0,0,1-3.107-3.107V165.016a12.289,12.289,0,0,0-12.275-12.275H278.739a18.489,18.489,0,0,1,0-36.979h247.04a12.275,12.275,0,0,0,0-24.55H426.03a18.511,18.511,0,0,1-18.49-18.488V7.107a3.107,3.107,0,1,1,6.215,0V72.723A12.289,12.289,0,0,0,426.03,85h99.748a18.489,18.489,0,1,1,0,36.979H278.739a12.275,12.275,0,1,0,0,24.549H395.267a18.511,18.511,0,0,1,18.492,18.49v74.241A3.107,3.107,0,0,1,410.651,242.364Z" transform="translate(-260.249 -4)"/>
      </g>
      <g id="Grupo_1207" data-name="Grupo 1207" transform="translate(51.561)">
        <path id="Trazado_552" data-name="Trazado 552" d="M413.758,229.457h-6.215V155.216a12.274,12.274,0,0,0-12.274-12.275H278.739a18.489,18.489,0,1,1,0-36.978H525.778a12.274,12.274,0,1,0,0-24.549H426.03a18.511,18.511,0,0,1-18.49-18.49V0h6.215V62.924A12.289,12.289,0,0,0,426.03,75.2h99.748a18.489,18.489,0,1,1,0,36.978H278.741a12.274,12.274,0,1,0,0,24.549H395.267a18.488,18.488,0,0,1,18.492,18.49v74.241Z" transform="translate(-260.249)" fill="#292929"/>
      </g>
      <rect id="Rectángulo_428" data-name="Rectángulo 428" width="36.046" height="7.768" transform="translate(183.94 235.542)" fill="#292929"/>
      <rect id="Rectángulo_429" data-name="Rectángulo 429" width="25.787" height="6.086" transform="translate(189.07 231.657)" fill="#292929"/>
      <rect id="Rectángulo_430" data-name="Rectángulo 430" width="18.95" height="5.826" transform="translate(192.488 227.774)" fill="#292929"/>
      <path id="Trazado_553" data-name="Trazado 553" d="M498.464,391.781H262.3a82.036,82.036,0,1,0,73.091,119.324h89.983a82.043,82.043,0,1,0,73.089-119.324Z" transform="translate(-178.42 -148.296)" fill="#ee4266"/>
      <path id="Trazado_554" data-name="Trazado 554" d="M452.232,435.583h17.4a2.486,2.486,0,0,1,2.486,2.486h0a2.486,2.486,0,0,1-2.486,2.486h-17.4a2.486,2.486,0,0,1-2.486-2.486h0A2.486,2.486,0,0,1,452.232,435.583Z" transform="translate(-280.416 -164.876)" fill="#dc1f47"/>
      <path id="Trazado_555" data-name="Trazado 555" d="M501.986,435.912h35.39a2.486,2.486,0,0,1,2.486,2.486h0a2.486,2.486,0,0,1-2.486,2.486h-35.39A2.486,2.486,0,0,1,499.5,438.4h0A2.486,2.486,0,0,1,501.986,435.912Z" transform="translate(-299.249 -165.001)" fill="#dc1f47"/>
      <path id="Trazado_556" data-name="Trazado 556" d="M452.106,452.417h66.35a2.486,2.486,0,0,1,2.486,2.486h0a2.486,2.486,0,0,1-2.486,2.486h-66.35a2.486,2.486,0,0,1-2.486-2.486h0A2.486,2.486,0,0,1,452.106,452.417Z" transform="translate(-280.368 -171.248)" fill="#dc1f47"/>
      <path id="Trazado_557" data-name="Trazado 557" d="M477.751,499.3h0a5.593,5.593,0,0,1,0,7.91l-18.457,18.457a5.593,5.593,0,0,1-7.91,0h0a5.593,5.593,0,0,1,0-7.91L469.841,499.3A5.594,5.594,0,0,1,477.751,499.3Z" transform="translate(-280.416 -188.374)" fill="#dc1f47"/>
      <path id="Trazado_558" data-name="Trazado 558" d="M544.751,499.3h0a5.593,5.593,0,0,1,0,7.91l-18.457,18.457a5.593,5.593,0,0,1-7.91,0h0a5.593,5.593,0,0,1,0-7.91L536.841,499.3A5.6,5.6,0,0,1,544.751,499.3Z" transform="translate(-305.776 -188.374)" fill="#dc1f47"/>
      <path id="Trazado_559" data-name="Trazado 559" d="M262.29,398.96H498.453c44.333,0,80.446,34.562,81.979,77.763.034-.965.057-1.933.057-2.907a82.035,82.035,0,0,0-82.036-82.036H262.29a82.035,82.035,0,0,0-82.036,82.036c0,.974.023,1.942.057,2.907C181.843,433.522,217.956,398.96,262.29,398.96Z" transform="translate(-178.408 -148.296)" fill="#dc1f47"/>
      <path id="Trazado_560" data-name="Trazado 560" d="M498.453,592.034c-31.882,0-57.647-13.213-71.226-39.775H333.515c-13.579,26.562-39.346,39.775-71.226,39.775a82.036,82.036,0,0,1-81.862-76.753c-.111,1.747-.174,3.508-.174,5.283A82.047,82.047,0,0,0,335.38,557.852h89.983a82.047,82.047,0,0,0,155.126-37.289c0-1.775-.062-3.536-.174-5.283A82.035,82.035,0,0,1,498.453,592.034Z" transform="translate(-178.408 -195.043)" fill="#dc1f47"/>
      <circle id="Elipse_12" data-name="Elipse 12" cx="52.826" cy="52.826" r="52.826" transform="translate(31.371 277.181)" fill="#dc1f47"/>
      <circle id="Elipse_13" data-name="Elipse 13" cx="52.204" cy="52.204" r="52.204" transform="translate(31.993 273.316)" fill="#835559"/>
      <circle id="Elipse_14" data-name="Elipse 14" cx="44.125" cy="44.125" r="44.125" transform="translate(40.072 281.395)" fill="#95676b"/>
      <path id="Trazado_561" data-name="Trazado 561" d="M323.265,493.019H301.886V471.64a2.859,2.859,0,0,0-2.859-2.859H284.862A2.859,2.859,0,0,0,282,471.64h0v21.379H260.624a2.859,2.859,0,0,0-2.859,2.859v14.165a2.859,2.859,0,0,0,2.859,2.859H282V534.28a2.859,2.859,0,0,0,2.859,2.859h14.165a2.859,2.859,0,0,0,2.859-2.859V512.9h21.379a2.859,2.859,0,0,0,2.859-2.859V495.88a2.859,2.859,0,0,0-2.856-2.861Z" transform="translate(-207.748 -177.442)" fill="#663c3b"/>
      <g id="Grupo_1208" data-name="Grupo 1208" transform="translate(30.128 271.451)">
        <path id="Trazado_562" data-name="Trazado 562" d="M279.831,544.919A54.069,54.069,0,1,1,333.9,490.85,54.13,54.13,0,0,1,279.831,544.919Zm0-104.409a50.34,50.34,0,1,0,50.34,50.34A50.4,50.4,0,0,0,279.831,440.51Z" transform="translate(-225.762 -436.781)" fill="#292929"/>
      </g>
      <circle id="Elipse_15" data-name="Elipse 15" cx="52.826" cy="52.826" r="52.826" transform="translate(267.534 277.181)" fill="#dc1f47"/>
      <circle id="Elipse_16" data-name="Elipse 16" cx="52.204" cy="52.204" r="52.204" transform="translate(268.156 273.316)" fill="#835559"/>
      <circle id="Elipse_17" data-name="Elipse 17" cx="44.125" cy="44.125" r="44.125" transform="translate(276.235 281.395)" fill="#95676b"/>
      <g id="Grupo_1209" data-name="Grupo 1209" transform="translate(266.291 271.451)">
        <path id="Trazado_563" data-name="Trazado 563" d="M659.831,544.919A54.069,54.069,0,1,1,713.9,490.85,54.13,54.13,0,0,1,659.831,544.919Zm0-104.409a50.34,50.34,0,1,0,50.34,50.34A50.4,50.4,0,0,0,659.831,440.51Z" transform="translate(-605.762 -436.781)" fill="#292929"/>
      </g>
      <path id="Trazado_564" data-name="Trazado 564" d="M306.255,483.375,309.7,477.4a.651.651,0,0,1,1.127,0l3.447,5.971a.65.65,0,0,1-.563.976h-6.895a.651.651,0,0,1-.564-.976Z" transform="translate(-226.069 -180.583)" fill="#ee4266"/>
      <path id="Trazado_565" data-name="Trazado 565" d="M306.255,559.758l3.447,5.971a.651.651,0,0,0,1.127,0l3.447-5.971a.65.65,0,0,0-.563-.976h-6.895a.651.651,0,0,0-.564.976Z" transform="translate(-226.069 -211.509)" fill="#ee4266"/>
      <g id="Grupo_1210" data-name="Grupo 1210" transform="translate(49.085 290.406)">
        <path id="Trazado_566" data-name="Trazado 566" d="M298.459,537.5H284.294a3.8,3.8,0,0,1-3.791-3.792V513.265H260.056a3.8,3.8,0,0,1-3.791-3.792V495.309a3.8,3.8,0,0,1,3.791-3.791H280.5V471.071a3.8,3.8,0,0,1,3.791-3.791h14.165a3.8,3.8,0,0,1,3.791,3.791v20.447H322.7a3.791,3.791,0,0,1,3.789,3.794v14.162a3.8,3.8,0,0,1-3.791,3.792H302.25v20.446A3.8,3.8,0,0,1,298.459,537.5Zm-38.4-44.12a1.929,1.929,0,0,0-1.927,1.927v14.165a1.929,1.929,0,0,0,1.927,1.927h21.379a.932.932,0,0,1,.932.932v21.378a1.929,1.929,0,0,0,1.927,1.927h14.165a1.929,1.929,0,0,0,1.927-1.927V512.334a.932.932,0,0,1,.932-.932H322.7a1.929,1.929,0,0,0,1.927-1.927V495.312a1.927,1.927,0,0,0-1.925-1.928l0-.932v.932H301.318a.932.932,0,0,1-.932-.932V471.072a1.929,1.929,0,0,0-1.927-1.927H284.294a1.929,1.929,0,0,0-1.927,1.927v21.379a.932.932,0,0,1-.932.932H260.056Z" transform="translate(-256.265 -467.28)" fill="#663c3b"/>
      </g>
      <path id="Trazado_567" data-name="Trazado 567" d="M347.024,517.275l5.971,3.447a.65.65,0,0,1,0,1.126l-5.971,3.448a.651.651,0,0,1-.976-.564v-6.895a.65.65,0,0,1,.976-.563Z" transform="translate(-241.164 -195.765)" fill="#ee4266"/>
      <path id="Trazado_568" data-name="Trazado 568" d="M272.356,517.275l-5.971,3.447a.65.65,0,0,0,0,1.126l5.971,3.448a.651.651,0,0,0,.976-.564v-6.895a.65.65,0,0,0-.976-.563Z" transform="translate(-210.887 -195.765)" fill="#ee4266"/>
      <g id="Grupo_1211" data-name="Grupo 1211" transform="translate(261.467 237.27)">
        <path id="Trazado_569" data-name="Trazado 569" d="M691.073,393.862a2.478,2.478,0,0,1-.993-.208,82.26,82.26,0,0,0-33.185-6.9h-56.41a2.486,2.486,0,1,1,0-4.972h56.509a87.237,87.237,0,0,1,35.073,7.315,2.486,2.486,0,0,1-.995,4.765Z" transform="translate(-598 -381.782)" fill="#292929"/>
      </g>
      <g id="Grupo_1212" data-name="Grupo 1212" transform="translate(47.529 237.27)">
        <path id="Trazado_570" data-name="Trazado 570" d="M256.248,393.861a2.486,2.486,0,0,1-.994-4.765,87.467,87.467,0,0,1,35.178-7.314h55.457a2.486,2.486,0,1,1,0,4.972h-55.46a82.7,82.7,0,0,0-33.188,6.9A2.491,2.491,0,0,1,256.248,393.861Z" transform="translate(-253.761 -381.782)" fill="#292929"/>
      </g>
      <g id="Grupo_1213" data-name="Grupo 1213" transform="translate(0 241.62)">
        <path id="Trazado_571" data-name="Trazado 571" d="M497.41,556.638a84.145,84.145,0,0,1-74.3-44.8H335.388A83.9,83.9,0,0,1,261.2,556.581h-.019a83.9,83.9,0,0,1-.019-167.8H497.328a83.928,83.928,0,0,1,.083,167.857ZM334.255,508.105h89.984a1.865,1.865,0,0,1,1.661,1.017,80.178,80.178,0,1,0,71.429-116.612H261.166a80.171,80.171,0,0,0,.019,160.342h.019a79.829,79.829,0,0,0,71.391-43.729A1.863,1.863,0,0,1,334.255,508.105Z" transform="translate(-177.284 -388.781)" fill="#292929"/>
      </g>
      <path id="Trazado_572" data-name="Trazado 572" d="M633.169,502.526l24.609-24.609a13.672,13.672,0,0,1,19.336,0h0a13.672,13.672,0,0,1,0,19.336L652.5,521.862a13.672,13.672,0,0,1-19.336,0h0A13.672,13.672,0,0,1,633.169,502.526Z" transform="translate(-348.329 -179.384)" opacity="0.17"/>
      <path id="Trazado_573" data-name="Trazado 573" d="M631.168,498.526l24.609-24.609a13.672,13.672,0,0,1,19.336,0h0a13.672,13.672,0,0,1,0,19.336L650.5,517.862a13.672,13.672,0,0,1-19.336,0h0A13.674,13.674,0,0,1,631.168,498.526Z" transform="translate(-347.572 -177.87)" fill="#ee4266"/>
      <g id="Grupo_1214" data-name="Grupo 1214" transform="translate(278.66 291.117)">
        <path id="Trazado_574" data-name="Trazado 574" d="M640.269,522.229A14.6,14.6,0,0,1,629.942,497.3l24.609-24.609a14.6,14.6,0,0,1,20.654,20.654L650.6,517.958A14.564,14.564,0,0,1,640.269,522.229Zm24.609-51.942a12.7,12.7,0,0,0-9.009,3.726L631.26,498.622h0a12.74,12.74,0,0,0,18.017,18.017l24.61-24.609a12.734,12.734,0,0,0-9.009-21.743ZM630.6,497.963h0Z" transform="translate(-625.664 -468.424)" fill="#663c3b"/>
      </g>
      <circle id="Elipse_18" data-name="Elipse 18" cx="8.701" cy="8.701" r="8.701" transform="translate(284.564 321.623)" fill="#32b94d"/>
      <g id="Grupo_1215" data-name="Grupo 1215" transform="translate(287.072 324.109)">
        <path id="Trazado_575" data-name="Trazado 575" d="M639.822,527.859a.546.546,0,0,1-.055,0,.621.621,0,0,1-.565-.673,6.225,6.225,0,0,1,6.732-5.65.621.621,0,1,1-.108,1.238,4.972,4.972,0,0,0-5.386,4.519A.622.622,0,0,1,639.822,527.859Z" transform="translate(-639.2 -521.511)" fill="#663c3b"/>
      </g>
      <g id="Grupo_1216" data-name="Grupo 1216" transform="translate(283.632 320.691)">
        <path id="Trazado_576" data-name="Trazado 576" d="M643.3,535.276a9.633,9.633,0,1,1,9.633-9.633A9.644,9.644,0,0,1,643.3,535.276Zm0-17.4a7.769,7.769,0,1,0,7.768,7.769A7.777,7.777,0,0,0,643.3,517.874Z" transform="translate(-633.664 -516.01)" fill="#663c3b"/>
      </g>
      <circle id="Elipse_19" data-name="Elipse 19" cx="8.701" cy="8.701" r="8.701" transform="translate(309.173 297.014)" fill="#8bd8f5"/>
      <g id="Grupo_1217" data-name="Grupo 1217" transform="translate(311.659 299.499)">
        <path id="Trazado_577" data-name="Trazado 577" d="M679.384,488.748a.621.621,0,0,1-.622-.621,6.222,6.222,0,0,1,6.215-6.215.621.621,0,0,1,0,1.243,4.978,4.978,0,0,0-4.972,4.972A.622.622,0,0,1,679.384,488.748Z" transform="translate(-678.762 -481.912)" fill="#663c3b"/>
      </g>
      <g id="Grupo_1218" data-name="Grupo 1218" transform="translate(308.241 296.081)">
        <path id="Trazado_578" data-name="Trazado 578" d="M682.9,495.678a9.633,9.633,0,1,1,9.633-9.633A9.644,9.644,0,0,1,682.9,495.678Zm0-17.4a7.769,7.769,0,1,0,7.768,7.768A7.777,7.777,0,0,0,682.9,478.276Z" transform="translate(-673.262 -476.412)" fill="#663c3b"/>
      </g>
      <path id="Trazado_579" data-name="Trazado 579" d="M679.766,528.8l24.609-24.609a13.672,13.672,0,0,1,19.336,0h0a13.672,13.672,0,0,1,0,19.336L699.1,548.133a13.673,13.673,0,0,1-19.336,0h0A13.672,13.672,0,0,1,679.766,528.8Z" transform="translate(-365.967 -189.328)" opacity="0.17"/>
      <path id="Trazado_580" data-name="Trazado 580" d="M678.766,523.8l24.609-24.609a13.672,13.672,0,0,1,19.336,0h0a13.673,13.673,0,0,1,0,19.336L698.1,543.132a13.672,13.672,0,0,1-19.336,0h0A13.674,13.674,0,0,1,678.766,523.8Z" transform="translate(-365.588 -187.435)" fill="#ee4266"/>
      <g id="Grupo_1219" data-name="Grupo 1219" transform="translate(308.248 306.815)">
        <path id="Trazado_581" data-name="Trazado 581" d="M687.871,547.5a14.6,14.6,0,0,1-10.327-24.924l24.61-24.61a14.6,14.6,0,1,1,20.654,20.654L698.2,543.224A14.561,14.561,0,0,1,687.871,547.5Zm24.609-51.948a12.655,12.655,0,0,0-9.008,3.731l-24.61,24.61a12.74,12.74,0,0,0,18.018,18.017L721.489,517.3a12.74,12.74,0,0,0-9.009-21.749Z" transform="translate(-673.274 -493.683)" fill="#663c3b"/>
      </g>
      <circle id="Elipse_20" data-name="Elipse 20" cx="8.701" cy="8.701" r="8.701" transform="translate(314.145 337.328)" fill="#fef585"/>
      <g id="Grupo_1220" data-name="Grupo 1220" transform="translate(316.631 339.814)">
        <path id="Trazado_582" data-name="Trazado 582" d="M687.384,553.617a.621.621,0,0,1-.622-.621,6.222,6.222,0,0,1,6.215-6.215.621.621,0,1,1,0,1.243A4.978,4.978,0,0,0,688.005,553,.621.621,0,0,1,687.384,553.617Z" transform="translate(-686.762 -546.781)" fill="#663c3b"/>
      </g>
      <g id="Grupo_1221" data-name="Grupo 1221" transform="translate(313.213 336.396)">
        <path id="Trazado_583" data-name="Trazado 583" d="M690.9,560.547a9.633,9.633,0,1,1,9.633-9.633A9.644,9.644,0,0,1,690.9,560.547Zm0-17.4a7.769,7.769,0,1,0,7.768,7.768A7.777,7.777,0,0,0,690.9,543.145Z" transform="translate(-681.262 -541.281)" fill="#663c3b"/>
      </g>
      <circle id="Elipse_21" data-name="Elipse 21" cx="8.701" cy="8.701" r="8.701" transform="translate(338.755 312.719)" fill="#e7503b"/>
      <g id="Grupo_1222" data-name="Grupo 1222" transform="translate(341.241 315.205)">
        <path id="Trazado_584" data-name="Trazado 584" d="M726.981,514.019a.621.621,0,0,1-.621-.621,6.222,6.222,0,0,1,6.215-6.215.621.621,0,0,1,0,1.243A4.978,4.978,0,0,0,727.6,513.4.621.621,0,0,1,726.981,514.019Z" transform="translate(-726.36 -507.183)" fill="#663c3b"/>
      </g>
      <g id="Grupo_1223" data-name="Grupo 1223" transform="translate(337.823 311.787)">
        <path id="Trazado_585" data-name="Trazado 585" d="M730.493,520.949a9.633,9.633,0,1,1,9.633-9.633A9.644,9.644,0,0,1,730.493,520.949Zm0-17.4a7.768,7.768,0,1,0,7.769,7.768A7.777,7.777,0,0,0,730.493,503.547Z" transform="translate(-720.86 -501.683)" fill="#663c3b"/>
      </g>
      <path id="Trazado_586" data-name="Trazado 586" d="M477.752,495.3h0a5.593,5.593,0,0,1,0,7.91L459.3,521.666a5.593,5.593,0,0,1-7.91,0h0a5.593,5.593,0,0,1,0-7.91L469.842,495.3A5.594,5.594,0,0,1,477.752,495.3Z" transform="translate(-280.416 -186.86)" fill="#292929"/>
      <path id="Trazado_587" data-name="Trazado 587" d="M544.751,495.3h0a5.593,5.593,0,0,1,0,7.91l-18.457,18.457a5.593,5.593,0,0,1-7.91,0h0a5.593,5.593,0,0,1,0-7.91L536.841,495.3A5.593,5.593,0,0,1,544.751,495.3Z" transform="translate(-305.776 -186.86)" fill="#292929"/>
      <path id="Trazado_590" data-name="Trazado 590" d="M9.944,0A9.944,9.944,0,1,1,0,9.944,9.944,9.944,0,0,1,9.944,0Z" transform="translate(74.253 315.577)" fill="#ee4266"/>
      <path id="Trazado_588" data-name="Trazado 588" d="M306.706,531.073a10.1,10.1,0,0,1-9.889-8.927,9.735,9.735,0,0,0-.055,1.016,9.944,9.944,0,1,0,19.887,0,9.413,9.413,0,0,0-.055-1.016A10.1,10.1,0,0,1,306.706,531.073Z" transform="translate(-222.509 -197.642)" fill="#dc1f47"/>
      <g id="Grupo_1224" data-name="Grupo 1224" transform="translate(76.118 317.441)">
        <path id="Trazado_589" data-name="Trazado 589" d="M300.384,519.482h-.009a.622.622,0,0,1-.613-.63,8.133,8.133,0,0,1,8.071-8.071h.009a.622.622,0,0,1,.008,1.243,6.9,6.9,0,0,0-6.844,6.844A.622.622,0,0,1,300.384,519.482Z" transform="translate(-299.762 -510.781)" fill="#663c3b"/>
      </g>
    </g>
  </g>
</svg>
