<svg xmlns="http://www.w3.org/2000/svg" width="39.774" height="39.197" viewBox="0 0 39.774 39.197">
  <g id="pencil" transform="translate(0 -0.498)">
    <path id="Trazado_606" data-name="Trazado 606" d="M22.4,31.258l-7.8-7.7a3.731,3.731,0,0,1,0-5.309l6.676-6.591L50.024,40.045,43.281,46.7a3.73,3.73,0,0,1-5.242,0L31.3,40.044Zm0,0" transform="translate(-12.442 -10.295)" fill="#ee4266"/>
    <path id="Trazado_607" data-name="Trazado 607" d="M64.357,109.124a1.9,1.9,0,0,1,0,2.709,1.958,1.958,0,0,1-2.744,0,1.9,1.9,0,0,1,0-2.709,1.958,1.958,0,0,1,2.744,0Zm0,0" transform="translate(-56.302 -99.67)" fill="#fff"/>
    <path id="Trazado_608" data-name="Trazado 608" d="M69.745,42.27l8.843,8.842L55,74.7l-8.843-8.842Zm0,0" transform="translate(-42.571 -38.527)" fill="#ffd23f"/>
    <path id="Trazado_609" data-name="Trazado 609" d="M22,354.76l-.948.948a6.252,6.252,0,0,1-8.843-8.842l.948-.948Zm0,0" transform="translate(-9.571 -318.587)" fill="#b6baf2"/>
    <path id="Trazado_610" data-name="Trazado 610" d="M438.053,14.758l-5.354.97,4.014,4.014Zm0,0" transform="translate(-399.085 -13.152)" fill="#5e6e82"/>
    <path id="Trazado_611" data-name="Trazado 611" d="M356.244,27.246l-6.44,1.167,8.843,8.842,1.611-6Zm0,0" transform="translate(-322.63 -24.67)" fill="#fff"/>
    <path id="Trazado_612" data-name="Trazado 612" d="M39.561,1a.806.806,0,0,0-.737-.248l-5.354.97-6.44,1.167-.005,0a.783.783,0,0,0-.1.024l-.023.008c-.024.008-.048.018-.071.029l-.025.012a.824.824,0,0,0-.084.048h0a.856.856,0,0,0-.075.058l-.021.019-.025.022-7.349,7.349L17.369,8.6a.792.792,0,0,0-.071-.083.771.771,0,0,0-.1-.084L9.4.731a.806.806,0,0,0-1.133,0L1.55,7.362a4.48,4.48,0,0,0,0,6.376l7.26,7.168L3.016,26.7l-.948.948a7.059,7.059,0,0,0,9.983,9.983l6.806-6.806L25.07,36.96a4.5,4.5,0,0,0,6.3,0l6.783-6.7a.807.807,0,0,0,0-1.148L29.3,20.381,36.587,13.1a.742.742,0,0,0,.063-.072l.015-.02c.015-.02.029-.041.042-.062l.012-.021a.819.819,0,0,0,.04-.08l0-.006a.794.794,0,0,0,.032-.094l0-.006,1.611-6,1.34-4.984A.806.806,0,0,0,39.561,1Zm-1.7,1.566-.647,2.407L35.62,3.381l-.347-.347Zm-4.516.818L36.728,6.77l-1.128,4.2L28.834,4.2ZM2.684,12.59a2.866,2.866,0,0,1,0-4.08l6.15-6.072,3.289,3.248-1.6,1.579a.806.806,0,0,0,1.133,1.148L13.27,6.818l2.3,2.271-1.579,1.559A.806.806,0,1,0,15.124,11.8l1.594-1.574,1.4,1.379L9.951,19.766Zm7.844,8.879h0L27.174,4.823l1.5,1.5L25.362,9.636a.806.806,0,1,0,1.14,1.14l3.313-3.313,2.23,2.23L9.6,32.142l-2.23-2.23L22.212,15.067a.806.806,0,0,0-1.14-1.14L6.227,28.771l-1.5-1.5Zm.383,15.021a5.446,5.446,0,0,1-7.7-7.7l.378-.378.44.44,1.63,1.631h0l5.631,5.631Zm19.2-13.042-1.621,1.6A.806.806,0,1,0,29.626,26.2l1.635-1.615,2.544,2.512-1.641,1.621A.806.806,0,0,0,33.3,29.862l1.656-1.635,1.481,1.462-6.2,6.123a2.878,2.878,0,0,1-4.029,0L20,29.685l8.164-8.164Zm-2.53-3.631h0l-9.3,9.3h0l-5.851,5.851-1.691-1.691L33.186,10.834l1.691,1.691Zm0,0" transform="translate(0 0)" fill="#292929"/>
    <path id="Trazado_613" data-name="Trazado 613" d="M51.472,98.223a2.705,2.705,0,0,0,0,3.857,2.77,2.77,0,0,0,3.877,0,2.705,2.705,0,0,0,0-3.857,2.77,2.77,0,0,0-3.877,0Zm2.744,2.71a1.151,1.151,0,0,1-1.611,0,1.093,1.093,0,0,1,0-1.562,1.151,1.151,0,0,1,1.611,0,1.093,1.093,0,0,1,0,1.562Zm0,0" transform="translate(-46.728 -89.403)" fill="#292929"/>
    <path id="Trazado_614" data-name="Trazado 614" d="M296.7,144.117l.059.036a.806.806,0,1,0,.848-1.372l-.059-.036a.806.806,0,0,0-.849,1.371Zm0,0" transform="translate(-273.303 -131.086)" fill="#292929"/>
    <path id="Trazado_615" data-name="Trazado 615" d="M288.844,368.023l-.059-.036a.806.806,0,0,0-.849,1.372l.059.036a.806.806,0,0,0,.849-1.371Zm0,0" transform="translate(-265.216 -338.83)" fill="#292929"/>
    <path id="Trazado_616" data-name="Trazado 616" d="M318.9,399.058a.806.806,0,0,0-1.14,1.14l2.209,2.209a.806.806,0,0,0,1.14,0l2.267-2.267a.806.806,0,0,0-1.14-1.14l-1.7,1.7Zm0,0" transform="translate(-292.859 -367.327)" fill="#292929"/>
  </g>
</svg>
