<svg id="plan_basic" xmlns="http://www.w3.org/2000/svg" width="38.172" height="46.756" viewBox="0 0 38.172 46.756">
  <g id="XMLID_1215_" transform="translate(0.913 0.913)">
    <path id="XMLID_1174_" d="M60.653,54.93H82.57a3.653,3.653,0,0,0,3.653-3.653V13.653A3.653,3.653,0,0,0,82.57,10H60.653A3.653,3.653,0,0,0,57,13.653V51.277A3.653,3.653,0,0,0,60.653,54.93Z" transform="translate(-49.877 -10)" fill="#fff"/>
    <path id="XMLID_1129_" d="M176.132,64H167V99.067h9.132Z" transform="translate(-149.832 -59.069)" fill="#818181"/>
    <path id="XMLID_587_" d="M180.881,104a13.88,13.88,0,0,1,12.42,7.677v12.407A13.882,13.882,0,1,1,180.881,104Z" transform="translate(-167 -95.416)" fill="#ee4266"/>
    <ellipse id="XMLID_404_" cx="8.936" cy="8.936" rx="8.936" ry="8.936" transform="translate(4.764 13.349)" fill="#fff"/>
  </g>
  <g id="XMLID_310_" transform="translate(0)">
    <path id="XMLID_673_" d="M102.559,439.559a.913.913,0,1,1,.268-.646A.92.92,0,0,1,102.559,439.559Z" transform="translate(-69.586 -398.002)" fill="#292929"/>
    <path id="XMLID_771_" d="M313.268,439.559a.913.913,0,1,1,.646.268A.92.92,0,0,1,313.268,439.559Z" transform="translate(-300.946 -398.002)" fill="#292929"/>
    <path id="XMLID_1151_" d="M101.913,55.826a.914.914,0,1,1,.646-.268A.92.92,0,0,1,101.913,55.826Z" transform="translate(-69.586 -49.069)" fill="#292929"/>
    <path id="XMLID_1152_" d="M313.268,55.559a.913.913,0,1,1,.646.268A.92.92,0,0,1,313.268,55.559Z" transform="translate(-300.946 -49.069)" fill="#292929"/>
    <path id="XMLID_1158_" d="M206.68,150a9.68,9.68,0,1,1-9.68,9.68A9.691,9.691,0,0,1,206.68,150Zm0,17.534a7.854,7.854,0,1,0-7.854-7.854A7.863,7.863,0,0,0,206.68,167.534Z" transform="translate(-191.886 -136.302)" fill="#292929"/>
    <path id="XMLID_1162_" d="M47,23.378a14.8,14.8,0,0,1,7.123-12.646V4.566A4.571,4.571,0,0,1,58.689,0H80.606a4.571,4.571,0,0,1,4.566,4.566v14.7a.913.913,0,1,1-1.826,0V4.566a2.743,2.743,0,0,0-2.74-2.74H58.689a2.743,2.743,0,0,0-2.74,2.74V9.789a14.711,14.711,0,0,1,5.845-1.2,14.869,14.869,0,0,1,2.374.193V5.844a.913.913,0,0,1,.913-.913h9.132a.913.913,0,0,1,.913.913V40.911a.913.913,0,0,1-.913.913H65.081a.913.913,0,0,1-.913-.913V37.979a14.765,14.765,0,0,1-8.219-1.012V42.19a2.743,2.743,0,0,0,2.74,2.74H80.606a2.743,2.743,0,0,0,2.74-2.74v-14.7a.913.913,0,0,1,1.826,0v14.7a4.571,4.571,0,0,1-4.566,4.566H58.689a4.571,4.571,0,0,1-4.566-4.566V36.024A14.8,14.8,0,0,1,47,23.378ZM65.995,6.758V9.192a14.763,14.763,0,0,1,7.306,4.89V6.758Zm0,33.241H73.3V32.674a14.761,14.761,0,0,1-7.306,4.89Zm-4.2-3.653A12.9,12.9,0,0,0,73.3,29.362V17.394A12.968,12.968,0,1,0,61.794,36.345Z" transform="translate(-47)" fill="#292929"/>
    <path id="XMLID_1166_" d="M47.913,247.826a.914.914,0,1,1,.646-.268A.92.92,0,0,1,47.913,247.826Z" transform="translate(-10.655 -223.535)" fill="#292929"/>
  </g>
</svg>
