<svg id="XMLID_1095_" xmlns="http://www.w3.org/2000/svg" width="65.313" height="80" viewBox="0 0 65.313 80">
  <g id="XMLID_1215_" transform="translate(1.562 1.562)">
    <path id="XMLID_1174_" d="M63.25,86.875h37.5a6.25,6.25,0,0,0,6.25-6.25V16.25A6.25,6.25,0,0,0,100.75,10H63.25A6.25,6.25,0,0,0,57,16.25V80.625A6.25,6.25,0,0,0,63.25,86.875Z" transform="translate(-44.812 -10)" fill="#fff"/>
    <path id="XMLID_1129_" d="M182.625,64H167v60h15.625Z" transform="translate(-137.625 -55.563)" fill="#818181"/>
    <path id="XMLID_587_" d="M190.75,104A23.748,23.748,0,0,1,212,117.135v21.229A23.752,23.752,0,1,1,190.75,104Z" transform="translate(-167 -89.312)" fill="#ee4266"/>
    <ellipse id="XMLID_404_" cx="15.289" cy="15.289" rx="15.289" ry="15.289" transform="translate(8.152 22.84)" fill="#fff"/>
  </g>
  <g id="XMLID_310_" transform="translate(0)">
    <path id="XMLID_673_" d="M103.667,440.667a1.562,1.562,0,1,1,.458-1.1A1.575,1.575,0,0,1,103.667,440.667Z" transform="translate(-47.25 -369.563)" fill="#292929"/>
    <path id="XMLID_771_" d="M313.458,440.667a1.561,1.561,0,1,1,1.1.458A1.574,1.574,0,0,1,313.458,440.667Z" transform="translate(-292.375 -369.563)" fill="#292929"/>
    <path id="XMLID_1151_" d="M102.563,57.125a1.563,1.563,0,1,1,1.1-.458A1.574,1.574,0,0,1,102.563,57.125Z" transform="translate(-47.25 -45.563)" fill="#292929"/>
    <path id="XMLID_1152_" d="M313.458,56.667a1.562,1.562,0,1,1,1.1.458A1.574,1.574,0,0,1,313.458,56.667Z" transform="translate(-292.375 -45.563)" fill="#292929"/>
    <path id="XMLID_1158_" d="M213.563,150A16.563,16.563,0,1,1,197,166.562,16.581,16.581,0,0,1,213.563,150Zm0,30a13.438,13.438,0,1,0-13.438-13.438A13.453,13.453,0,0,0,213.563,180Z" transform="translate(-188.25 -126.563)" fill="#292929"/>
    <path id="XMLID_1162_" d="M47,40A25.322,25.322,0,0,1,59.187,18.363V7.813A7.821,7.821,0,0,1,67,0h37.5a7.821,7.821,0,0,1,7.813,7.813V32.969a1.563,1.563,0,1,1-3.125,0V7.813A4.693,4.693,0,0,0,104.5,3.125H67a4.693,4.693,0,0,0-4.688,4.688v8.936a25.171,25.171,0,0,1,10-2.061,25.441,25.441,0,0,1,4.062.33V10a1.562,1.562,0,0,1,1.562-1.562H93.563A1.562,1.562,0,0,1,95.125,10V70a1.562,1.562,0,0,1-1.562,1.563H77.937A1.562,1.562,0,0,1,76.375,70V64.983a25.264,25.264,0,0,1-14.063-1.731v8.936A4.693,4.693,0,0,0,67,76.875h37.5a4.693,4.693,0,0,0,4.687-4.687V47.031a1.563,1.563,0,0,1,3.125,0V72.188A7.821,7.821,0,0,1,104.5,80H67a7.821,7.821,0,0,1-7.813-7.812V61.637A25.322,25.322,0,0,1,47,40ZM79.5,11.562v4.165A25.26,25.26,0,0,1,92,24.095V11.562Zm0,56.875H92V55.905a25.257,25.257,0,0,1-12.5,8.367Zm-7.187-6.25A22.08,22.08,0,0,0,92,50.239V29.761A22.189,22.189,0,1,0,72.313,62.187Z" transform="translate(-47)" fill="#292929"/>
    <path id="XMLID_1166_" d="M48.563,249.125a1.563,1.563,0,1,1,1.1-.458A1.574,1.574,0,0,1,48.563,249.125Z" transform="translate(15.188 -207.563)" fill="#292929"/>
  </g>
</svg>
