<svg xmlns="http://www.w3.org/2000/svg" width="59.252" height="59.252" viewBox="0 0 59.252 59.252">
  <g id="setting" transform="translate(0.5 0.5)">
    <g id="Grupo_1171" data-name="Grupo 1171" transform="translate(0.853 0.853)">
      <g id="Grupo_1170" data-name="Grupo 1170">
        <g id="Grupo_1168" data-name="Grupo 1168">
          <path id="Trazado_523" data-name="Trazado 523" d="M61.153,30.253h-.009a2.9,2.9,0,0,1-2.751-2A23.671,23.671,0,0,0,57.086,25.1a2.907,2.907,0,0,1,.529-3.365l.007-.007a2.893,2.893,0,0,0,0-4.091l-3.715-3.715a2.893,2.893,0,0,0-4.091,0l-.007.007a2.907,2.907,0,0,1-3.365.529,23.671,23.671,0,0,0-3.151-1.306,2.9,2.9,0,0,1-2-2.751v-.009A2.893,2.893,0,0,0,38.4,7.5H33.146a2.893,2.893,0,0,0-2.893,2.893V10.4a2.9,2.9,0,0,1-2,2.751A23.671,23.671,0,0,0,25.1,14.459a2.907,2.907,0,0,1-3.365-.529l-.007-.007a2.893,2.893,0,0,0-4.091,0l-3.715,3.715a2.893,2.893,0,0,0,0,4.091l.007.007a2.907,2.907,0,0,1,.529,3.365,23.671,23.671,0,0,0-1.306,3.151,2.9,2.9,0,0,1-2.751,2h-.009A2.893,2.893,0,0,0,7.5,33.146V38.4a2.893,2.893,0,0,0,2.893,2.893H10.4a2.9,2.9,0,0,1,2.751,2,23.671,23.671,0,0,0,1.306,3.151,2.907,2.907,0,0,1-.529,3.365l-.007.007a2.893,2.893,0,0,0,0,4.091l3.715,3.715a2.893,2.893,0,0,0,4.091,0l.007-.007a2.907,2.907,0,0,1,3.365-.529,23.687,23.687,0,0,0,3.151,1.306,2.9,2.9,0,0,1,2,2.751v.009a2.893,2.893,0,0,0,2.893,2.893H38.4a2.893,2.893,0,0,0,2.893-2.893v-.009a2.9,2.9,0,0,1,2-2.751,23.671,23.671,0,0,0,3.151-1.306,2.907,2.907,0,0,1,3.365.529l.007.007a2.893,2.893,0,0,0,4.091,0l3.715-3.715a2.893,2.893,0,0,0,0-4.091l-.007-.007a2.907,2.907,0,0,1-.529-3.365,23.671,23.671,0,0,0,1.306-3.151,2.9,2.9,0,0,1,2.751-2h.009A2.893,2.893,0,0,0,64.046,38.4V33.146A2.893,2.893,0,0,0,61.153,30.253ZM35.773,48.824A13.052,13.052,0,1,1,48.824,35.773,13.051,13.051,0,0,1,35.773,48.824Z" transform="translate(-7.5 -7.5)" fill="#fff"/>
          <path id="Trazado_524" data-name="Trazado 524" d="M123.908,106.95a16.958,16.958,0,1,0,16.958,16.958,16.958,16.958,0,0,0-16.958-16.958Zm0,28.439a11.481,11.481,0,1,1,11.481-11.481A11.481,11.481,0,0,1,123.908,135.389Z" transform="translate(-95.635 -95.635)" fill="#e4e2e5"/>
        </g>
        <g id="Grupo_1169" data-name="Grupo 1169" transform="translate(24.701 0)">
          <path id="Trazado_525" data-name="Trazado 525" d="M233.679,10.074A2.893,2.893,0,0,0,230.8,7.5H225.55a2.886,2.886,0,0,0-.945.159A28.059,28.059,0,0,1,233.679,10.074Z" transform="translate(-224.605 -7.5)" fill="#f3f3e6"/>
          <path id="Trazado_526" data-name="Trazado 526" d="M379.453,73.687h-.009a2.9,2.9,0,0,1-2.751-2,23.683,23.683,0,0,0-1.306-3.151,2.907,2.907,0,0,1,.529-3.365l.007-.007a2.893,2.893,0,0,0,0-4.091l-3.715-3.715a2.893,2.893,0,0,0-4.091,0l-.007.007a2.868,2.868,0,0,1-1.445.779,28.234,28.234,0,0,1,0,42.125,2.868,2.868,0,0,1,1.445.779l.007.007a2.893,2.893,0,0,0,4.091,0l3.715-3.715a2.893,2.893,0,0,0,0-4.091l-.007-.007a2.907,2.907,0,0,1-.529-3.365,23.667,23.667,0,0,0,1.306-3.151,2.9,2.9,0,0,1,2.751-2h.009a2.893,2.893,0,0,0,2.893-2.893V76.58a2.893,2.893,0,0,0-2.893-2.893Z" transform="translate(-350.501 -50.934)" fill="#f3f3e6"/>
          <path id="Trazado_527" data-name="Trazado 527" d="M224.6,484.29a2.888,2.888,0,0,0,.945.159H230.8a2.893,2.893,0,0,0,2.875-2.574A28.059,28.059,0,0,1,224.6,484.29Z" transform="translate(-224.605 -427.903)" fill="#f3f3e6"/>
        </g>
      </g>
    </g>
    <g id="Grupo_1173" data-name="Grupo 1173" transform="translate(0 0)">
      <g id="Grupo_1172" data-name="Grupo 1172" transform="translate(0 0)">
        <path id="Trazado_528" data-name="Trazado 528" d="M54.506,22.753H54.5a2.05,2.05,0,0,1-1.941-1.416A24.629,24.629,0,0,0,51.2,18.073,2.054,2.054,0,0,1,51.57,15.7l.01-.01a3.751,3.751,0,0,0,0-5.3L47.864,6.673a3.75,3.75,0,0,0-5.3,0l-.01.01a2.054,2.054,0,0,1-2.379.369A24.618,24.618,0,0,0,36.915,5.7,2.053,2.053,0,0,1,35.5,3.746,3.751,3.751,0,0,0,31.753,0H26.5a3.752,3.752,0,0,0-3.746,3.756A2.051,2.051,0,0,1,21.337,5.7,24.613,24.613,0,0,0,18.073,7.05a2.058,2.058,0,0,1-2.387-.377,3.751,3.751,0,0,0-5.3,0L6.673,10.388a3.753,3.753,0,0,0,.007,5.305,2.054,2.054,0,0,1,.369,2.38A24.633,24.633,0,0,0,5.7,21.337a2.053,2.053,0,0,1-1.951,1.416A3.75,3.75,0,0,0,0,26.5v5.254A3.752,3.752,0,0,0,3.756,35.5,2.051,2.051,0,0,1,5.7,36.915,24.6,24.6,0,0,0,7.05,40.179a2.058,2.058,0,0,1-.377,2.387,3.751,3.751,0,0,0,0,5.3l3.715,3.715a3.753,3.753,0,0,0,5.305-.007,2.054,2.054,0,0,1,2.38-.369,24.607,24.607,0,0,0,3.264,1.353,2.053,2.053,0,0,1,1.416,1.951A3.75,3.75,0,0,0,26.5,58.252h5.254A3.753,3.753,0,0,0,35.5,54.5a2.051,2.051,0,0,1,1.416-1.941A24.626,24.626,0,0,0,40.179,51.2a2.058,2.058,0,0,1,2.387.377,3.75,3.75,0,0,0,5.3,0l3.715-3.715a3.753,3.753,0,0,0-.007-5.305,2.054,2.054,0,0,1-.369-2.379,24.627,24.627,0,0,0,1.353-3.264A2.053,2.053,0,0,1,54.506,35.5a3.75,3.75,0,0,0,3.746-3.746V26.5a3.75,3.75,0,0,0-3.746-3.746Zm2.04,9a2.044,2.044,0,0,1-2.049,2.04,3.754,3.754,0,0,0-3.561,2.584,22.909,22.909,0,0,1-1.259,3.037,3.762,3.762,0,0,0,.7,4.359,2.042,2.042,0,0,1,0,2.885l-3.715,3.715a2.044,2.044,0,0,1-2.892-.007,3.759,3.759,0,0,0-4.351-.688,22.9,22.9,0,0,1-3.037,1.259,3.757,3.757,0,0,0-2.584,3.57,2.042,2.042,0,0,1-2.04,2.04H26.5A2.044,2.044,0,0,1,24.46,54.5a3.754,3.754,0,0,0-2.584-3.561,22.9,22.9,0,0,1-3.037-1.259,3.762,3.762,0,0,0-4.359.7,2.042,2.042,0,0,1-2.885,0L7.88,46.657a2.044,2.044,0,0,1,.007-2.892,3.758,3.758,0,0,0,.688-4.352,22.911,22.911,0,0,1-1.259-3.037,3.757,3.757,0,0,0-3.57-2.584,2.042,2.042,0,0,1-2.04-2.04V26.5a2.044,2.044,0,0,1,2.049-2.04,3.754,3.754,0,0,0,3.561-2.584,22.908,22.908,0,0,1,1.259-3.037,3.762,3.762,0,0,0-.7-4.359,2.042,2.042,0,0,1,0-2.885L11.6,7.88a2.044,2.044,0,0,1,2.892.007,3.759,3.759,0,0,0,4.352.688,22.9,22.9,0,0,1,3.037-1.259,3.757,3.757,0,0,0,2.584-3.57,2.042,2.042,0,0,1,2.04-2.04h5.254a2.044,2.044,0,0,1,2.04,2.049,3.755,3.755,0,0,0,2.584,3.561,22.912,22.912,0,0,1,3.037,1.259,3.757,3.757,0,0,0,4.349-.686l.01-.01a2.042,2.042,0,0,1,2.884,0L50.372,11.6a2.041,2.041,0,0,1,0,2.882l-.01.01a3.759,3.759,0,0,0-.688,4.352,22.908,22.908,0,0,1,1.259,3.037A3.754,3.754,0,0,0,54.5,24.46h.009a2.042,2.042,0,0,1,2.04,2.04Z" transform="translate(0 0)" fill="#292929" stroke="#292929" stroke-width="1"/>
        <path id="Trazado_529" data-name="Trazado 529" d="M127.437,178.6a16.105,16.105,0,0,1-22.682-22.631.853.853,0,0,0-1.324-1.076,17.812,17.812,0,0,0,25.085,25.03.853.853,0,0,0-1.079-1.322Z" transform="translate(-88.135 -136.989)" fill="#292929" stroke="#292929" stroke-width="1"/>
        <path id="Trazado_530" data-name="Trazado 530" d="M159.924,147.591a12.334,12.334,0,1,0,12.334,12.334A12.348,12.348,0,0,0,159.924,147.591Zm0,22.962a10.628,10.628,0,1,1,10.628-10.628A10.64,10.64,0,0,1,159.924,170.553Z" transform="translate(-130.798 -130.799)" fill="#292929" stroke="#292929" stroke-width="1"/>
        <path id="Trazado_531" data-name="Trazado 531" d="M169.307,99.45a17.65,17.65,0,0,0-10.794,3.642.853.853,0,1,0,1.035,1.357,15.958,15.958,0,0,1,9.759-3.292,16.123,16.123,0,0,1,16.1,16.1,15.958,15.958,0,0,1-3.292,9.759.853.853,0,1,0,1.357,1.035,17.651,17.651,0,0,0,3.642-10.794A17.832,17.832,0,0,0,169.307,99.45Z" transform="translate(-140.181 -88.135)" fill="#292929" stroke="#292929" stroke-width="1"/>
      </g>
    </g>
  </g>
</svg>