<svg xmlns="http://www.w3.org/2000/svg" width="16.459" height="14.631" viewBox="0 0 16.459 14.631">
  <path id="Icon_awesome-shopping-cart" data-name="Icon awesome-shopping-cart" d="M15.091,8.61l1.351-5.944a.686.686,0,0,0-.669-.838H4.549L4.287.548A.686.686,0,0,0,3.616,0H.686A.686.686,0,0,0,0,.686v.457a.686.686,0,0,0,.686.686h2L4.69,11.643a1.6,1.6,0,1,0,1.916.245H12.6a1.6,1.6,0,1,0,1.817-.3l.158-.694a.686.686,0,0,0-.669-.838H6.233l-.187-.914h8.377A.686.686,0,0,0,15.091,8.61Z" fill="#818181"/>
</svg>
