<svg xmlns="http://www.w3.org/2000/svg" width="209.15" height="188.856" viewBox="0 0 209.15 188.856">
  <g id="token5" transform="translate(-855.425 -239.572)">
    <g id="Grupo_1194" data-name="Grupo 1194" transform="translate(855.425 239.572)">
      <g id="Grupo_1194-2" data-name="Grupo 1194" transform="translate(0 23.767)">
        <g id="Grupo_1189" data-name="Grupo 1189" transform="translate(0 0)">
          <g id="Trazado_548" data-name="Trazado 548" fill="#ee4266">
            <path d="M 55.79252624511719 109.0849075317383 C 48.59697723388672 109.0849075317383 41.61799240112305 107.6762008666992 35.04944229125977 104.8979568481445 C 28.70370864868164 102.2139358520508 23.00412559509277 98.37100219726563 18.1090259552002 93.47590637207031 C 13.21392631530762 88.58081817626953 9.370992660522461 82.88125610351563 6.686976432800293 76.5355224609375 C 3.908709526062012 69.96697235107422 2.500009536743164 62.98798751831055 2.500009536743164 55.79245376586914 C 2.500009536743164 48.59692001342773 3.908709526062012 41.61795425415039 6.686976432800293 35.04940414428711 C 9.370992660522461 28.70367050170898 13.21392631530762 23.00410461425781 18.1090259552002 18.1090030670166 C 23.00412559509277 13.21390342712402 28.70370864868164 9.370986938476563 35.04944229125977 6.686970233917236 C 41.61799240112305 3.908703804016113 48.59697723388672 2.500003814697266 55.79252624511719 2.500003814697266 C 62.98807525634766 2.500003814697266 69.96705627441406 3.908703804016113 76.53562927246094 6.686970233917236 C 82.88136291503906 9.370986938476563 88.58094024658203 13.21390342712402 93.47604370117188 18.1090030670166 C 98.37113952636719 23.00410461425781 102.2140731811523 28.70367050170898 104.8980941772461 35.04940414428711 C 107.6763610839844 41.61795425415039 109.0850601196289 48.59692001342773 109.0850601196289 55.79245376586914 C 109.0850601196289 62.98798751831055 107.6763610839844 69.96697235107422 104.8980941772461 76.5355224609375 C 102.2140731811523 82.88125610351563 98.37113952636719 88.58081817626953 93.47604370117188 93.47590637207031 C 88.58094024658203 98.37100219726563 82.88136291503906 102.2139358520508 76.53562927246094 104.8979568481445 C 69.96705627441406 107.6762008666992 62.98807525634766 109.0849075317383 55.79252624511719 109.0849075317383 Z" stroke="none"/>
            <path d="M 55.79252624511719 4.999992370605469 C 48.93336486816406 4.999992370605469 42.28204345703125 6.342254638671875 36.02332305908203 8.989471435546875 C 29.97556304931641 11.54743194580078 24.54310607910156 15.21045684814453 19.87678527832031 19.87677001953125 C 15.21048736572266 24.54307556152344 11.54746246337891 29.97553253173828 8.989486694335938 36.02327728271484 C 6.342269897460938 42.28199005126953 5.000007629394531 48.93331527709961 5.000007629394531 55.79245376586914 C 5.000007629394531 62.65159225463867 6.342269897460938 69.30291748046875 8.989486694335938 75.56163024902344 C 11.54746246337891 81.609375 15.21048736572266 87.04183197021484 19.87678527832031 91.7081298828125 C 24.54310607910156 96.37445068359375 29.97556304931641 100.0374755859375 36.02332305908203 102.5954360961914 C 42.28204345703125 105.2426528930664 48.93336486816406 106.5849151611328 55.79252624511719 106.5849151611328 C 62.65168762207031 106.5849151611328 69.30300903320313 105.2426528930664 75.56172180175781 102.5954360961914 C 81.60948181152344 100.0374755859375 87.04194641113281 96.37445068359375 91.70826721191406 91.7081298828125 C 96.37456512451172 87.04183197021484 100.0375823974609 81.609375 102.5955657958984 75.56163024902344 C 105.2427825927734 69.30291748046875 106.5850448608398 62.65159225463867 106.5850448608398 55.79245376586914 C 106.5850448608398 48.93331527709961 105.2427825927734 42.28199005126953 102.5955657958984 36.02327728271484 C 100.0375823974609 29.97553253173828 96.37456512451172 24.54307556152344 91.70826721191406 19.87677001953125 C 87.04194641113281 15.21045684814453 81.60948181152344 11.54743194580078 75.56172180175781 8.989471435546875 C 69.30300903320313 6.342254638671875 62.65168762207031 4.999992370605469 55.79252624511719 4.999992370605469 M 55.79252624511719 -7.62939453125e-06 C 86.60588836669922 -7.62939453125e-06 111.5850448608398 24.97913360595703 111.5850448608398 55.79245376586914 C 111.5850448608398 86.60577392578125 86.60588836669922 111.5849151611328 55.79252624511719 111.5849151611328 C 24.97916412353516 111.5849151611328 7.62939453125e-06 86.60577392578125 7.62939453125e-06 55.79245376586914 C 7.62939453125e-06 24.97913360595703 24.97916412353516 -7.62939453125e-06 55.79252624511719 -7.62939453125e-06 Z" stroke="none" fill="#292929"/>
          </g>
          <g id="Elipse_11" data-name="Elipse 11" transform="translate(17.611 17.611)" fill="#fff" stroke="#292929" stroke-width="5">
            <ellipse cx="38.524" cy="38.524" rx="38.524" ry="38.524" stroke="none"/>
            <ellipse cx="38.524" cy="38.524" rx="36.024" ry="36.024" fill="none"/>
          </g>
        </g>
        <g id="Grupo_1190" data-name="Grupo 1190" transform="translate(19.926 26.568)">
          <g id="Trazado_548-2" data-name="Trazado 548" transform="translate(0 0)" fill="#ee4266">
            <path d="M 55.79252624511719 109.0849075317383 C 48.59697723388672 109.0849075317383 41.61799240112305 107.6762008666992 35.04944229125977 104.8979568481445 C 28.70370864868164 102.2139358520508 23.00412559509277 98.37100219726563 18.1090259552002 93.47590637207031 C 13.21392631530762 88.58081817626953 9.370992660522461 82.88125610351563 6.686976432800293 76.5355224609375 C 3.908709526062012 69.96697235107422 2.500009536743164 62.98798751831055 2.500009536743164 55.79245376586914 C 2.500009536743164 48.59692001342773 3.908709526062012 41.61795425415039 6.686976432800293 35.04940414428711 C 9.370992660522461 28.70367050170898 13.21392631530762 23.00410461425781 18.1090259552002 18.1090030670166 C 23.00412559509277 13.21390342712402 28.70370864868164 9.370986938476563 35.04944229125977 6.686970233917236 C 41.61799240112305 3.908703804016113 48.59697723388672 2.500003814697266 55.79252624511719 2.500003814697266 C 62.98807525634766 2.500003814697266 69.96705627441406 3.908703804016113 76.53562927246094 6.686970233917236 C 82.88136291503906 9.370986938476563 88.58094024658203 13.21390342712402 93.47604370117188 18.1090030670166 C 98.37113952636719 23.00410461425781 102.2140731811523 28.70367050170898 104.8980941772461 35.04940414428711 C 107.6763610839844 41.61795425415039 109.0850601196289 48.59692001342773 109.0850601196289 55.79245376586914 C 109.0850601196289 62.98798751831055 107.6763610839844 69.96697235107422 104.8980941772461 76.5355224609375 C 102.2140731811523 82.88125610351563 98.37113952636719 88.58081817626953 93.47604370117188 93.47590637207031 C 88.58094024658203 98.37100219726563 82.88136291503906 102.2139358520508 76.53562927246094 104.8979568481445 C 69.96705627441406 107.6762008666992 62.98807525634766 109.0849075317383 55.79252624511719 109.0849075317383 Z" stroke="none"/>
            <path d="M 55.79252624511719 4.999992370605469 C 48.93336486816406 4.999992370605469 42.28204345703125 6.342254638671875 36.02332305908203 8.989471435546875 C 29.97556304931641 11.54743194580078 24.54310607910156 15.21045684814453 19.87678527832031 19.87677001953125 C 15.21048736572266 24.54307556152344 11.54746246337891 29.97553253173828 8.989486694335938 36.02327728271484 C 6.342269897460938 42.28199005126953 5.000007629394531 48.93331527709961 5.000007629394531 55.79245376586914 C 5.000007629394531 62.65159225463867 6.342269897460938 69.30291748046875 8.989486694335938 75.56163024902344 C 11.54746246337891 81.609375 15.21048736572266 87.04183197021484 19.87678527832031 91.7081298828125 C 24.54310607910156 96.37445068359375 29.97556304931641 100.0374755859375 36.02332305908203 102.5954360961914 C 42.28204345703125 105.2426528930664 48.93336486816406 106.5849151611328 55.79252624511719 106.5849151611328 C 62.65168762207031 106.5849151611328 69.30300903320313 105.2426528930664 75.56172180175781 102.5954360961914 C 81.60948181152344 100.0374755859375 87.04194641113281 96.37445068359375 91.70826721191406 91.7081298828125 C 96.37456512451172 87.04183197021484 100.0375823974609 81.609375 102.5955657958984 75.56163024902344 C 105.2427825927734 69.30291748046875 106.5850448608398 62.65159225463867 106.5850448608398 55.79245376586914 C 106.5850448608398 48.93331527709961 105.2427825927734 42.28199005126953 102.5955657958984 36.02327728271484 C 100.0375823974609 29.97553253173828 96.37456512451172 24.54307556152344 91.70826721191406 19.87677001953125 C 87.04194641113281 15.21045684814453 81.60948181152344 11.54743194580078 75.56172180175781 8.989471435546875 C 69.30300903320313 6.342254638671875 62.65168762207031 4.999992370605469 55.79252624511719 4.999992370605469 M 55.79252624511719 -7.62939453125e-06 C 86.60588836669922 -7.62939453125e-06 111.5850448608398 24.97913360595703 111.5850448608398 55.79245376586914 C 111.5850448608398 86.60577392578125 86.60588836669922 111.5849151611328 55.79252624511719 111.5849151611328 C 24.97916412353516 111.5849151611328 7.62939453125e-06 86.60577392578125 7.62939453125e-06 55.79245376586914 C 7.62939453125e-06 24.97913360595703 24.97916412353516 -7.62939453125e-06 55.79252624511719 -7.62939453125e-06 Z" stroke="none" fill="#292929"/>
          </g>
          <g id="Elipse_11-2" data-name="Elipse 11" transform="translate(17.497 17.46)" fill="#fff" stroke="#292929" stroke-width="5">
            <ellipse cx="38.524" cy="38.524" rx="38.524" ry="38.524" stroke="none"/>
            <ellipse cx="38.524" cy="38.524" rx="36.024" ry="36.024" fill="none"/>
          </g>
        </g>
      </g>
      <g id="Grupo_1195" data-name="Grupo 1195" transform="translate(77.639)">
        <g id="Grupo_1189-2" data-name="Grupo 1189" transform="translate(19.926 0)">
          <g id="Trazado_548-3" data-name="Trazado 548" fill="#ee4266">
            <path d="M 55.79248428344727 109.0849075317383 C 48.5969352722168 109.0849075317383 41.61796951293945 107.6762008666992 35.04940032958984 104.8979568481445 C 28.70366668701172 102.2139358520508 23.00410079956055 98.37100219726563 18.10900115966797 93.47590637207031 C 13.21390056610107 88.58081817626953 9.370984077453613 82.88125610351563 6.686967849731445 76.5355224609375 C 3.908700942993164 69.96697235107422 2.500000953674316 62.98798751831055 2.500000953674316 55.79245376586914 C 2.500000953674316 48.59692001342773 3.908700942993164 41.61793899536133 6.686967849731445 35.04940414428711 C 9.370984077453613 28.70367050170898 13.21390056610107 23.00408744812012 18.10900115966797 18.1090030670166 C 23.00410079956055 13.21390342712402 28.70366668701172 9.370986938476563 35.04940032958984 6.686970233917236 C 41.61796951293945 3.908703804016113 48.5969352722168 2.500003814697266 55.79248428344727 2.500003814697266 C 62.98801803588867 2.500003814697266 69.96700286865234 3.908703804016113 76.53555297851563 6.686970233917236 C 82.88128662109375 9.370986938476563 88.58086395263672 13.21390342712402 93.47596740722656 18.1090030670166 C 98.37104797363281 23.00410461425781 102.213981628418 28.70367050170898 104.8980026245117 35.04940414428711 C 107.67626953125 41.61795425415039 109.0849685668945 48.59692001342773 109.0849685668945 55.79245376586914 C 109.0849685668945 62.98798751831055 107.67626953125 69.96697235107422 104.8980026245117 76.5355224609375 C 102.213981628418 82.88125610351563 98.37104797363281 88.58081817626953 93.47596740722656 93.47590637207031 C 88.58086395263672 98.37100219726563 82.88128662109375 102.2139358520508 76.53555297851563 104.8979568481445 C 69.96700286865234 107.6762008666992 62.98801803588867 109.0849075317383 55.79248428344727 109.0849075317383 Z" stroke="none"/>
            <path d="M 55.79248428344727 4.999992370605469 C 48.93334579467773 4.999992370605469 42.28202056884766 6.342254638671875 36.02328491210938 8.989471435546875 C 29.97554779052734 11.54743194580078 24.54306793212891 15.21045684814453 19.87676239013672 19.87675476074219 C 15.21046447753906 24.54307556152344 11.54744720458984 29.97553253173828 8.989463806152344 36.02327728271484 C 6.342262268066406 42.28199005126953 5.000007629394531 48.93331527709961 5.000007629394531 55.79245376586914 C 5.000007629394531 62.65159225463867 6.342262268066406 69.30291748046875 8.989463806152344 75.56163024902344 C 11.54744720458984 81.609375 15.21046447753906 87.04183197021484 19.87676239013672 91.70815277099609 C 24.54306793212891 96.37445068359375 29.97554779052734 100.0374755859375 36.02328491210938 102.5954360961914 C 42.28202056884766 105.2426528930664 48.93334579467773 106.5849151611328 55.79248428344727 106.5849151611328 C 62.6516227722168 106.5849151611328 69.30294799804688 105.2426528930664 75.56168365478516 102.5954360961914 C 81.60940551757813 100.0374755859375 87.04188537597656 96.37445068359375 91.70818328857422 91.70815277099609 C 96.37450408935547 87.04183197021484 100.0375213623047 81.609375 102.5954818725586 75.56163024902344 C 105.2427062988281 69.30291748046875 106.5849609375 62.65159225463867 106.5849609375 55.79245376586914 C 106.5849609375 48.93331527709961 105.2427062988281 42.28199005126953 102.5954818725586 36.02327728271484 C 100.0375213623047 29.97553253173828 96.37450408935547 24.54307556152344 91.70818328857422 19.87675476074219 C 87.04188537597656 15.21045684814453 81.60940551757813 11.54743194580078 75.56168365478516 8.989471435546875 C 69.30294799804688 6.342254638671875 62.6516227722168 4.999992370605469 55.79248428344727 4.999992370605469 M 55.79248428344727 -7.62939453125e-06 C 86.60581970214844 -7.62939453125e-06 111.5849609375 24.97913360595703 111.5849609375 55.79245376586914 C 111.5849609375 86.60577392578125 86.60581970214844 111.5849151611328 55.79248428344727 111.5849151611328 C 24.9791259765625 111.5849151611328 7.62939453125e-06 86.60577392578125 7.62939453125e-06 55.79245376586914 C 7.62939453125e-06 24.97913360595703 24.9791259765625 -7.62939453125e-06 55.79248428344727 -7.62939453125e-06 Z" stroke="none" fill="#292929"/>
          </g>
          <g id="Elipse_11-3" data-name="Elipse 11" transform="translate(16.926 17.611)" fill="#fff" stroke="#292929" stroke-width="5">
            <ellipse cx="38.524" cy="38.524" rx="38.524" ry="38.524" stroke="none"/>
            <ellipse cx="38.524" cy="38.524" rx="36.024" ry="36.024" fill="none"/>
          </g>
        </g>
        <g id="Grupo_1190-2" data-name="Grupo 1190" transform="translate(0 26.568)">
          <g id="Trazado_548-4" data-name="Trazado 548" transform="translate(0 0)" fill="#ee4266">
            <path d="M 55.79248428344727 109.0849075317383 C 48.5969352722168 109.0849075317383 41.61796951293945 107.6762008666992 35.04940032958984 104.8979568481445 C 28.70366668701172 102.2139358520508 23.00410079956055 98.37100219726563 18.10900115966797 93.47590637207031 C 13.21390056610107 88.58081817626953 9.370984077453613 82.88125610351563 6.686967849731445 76.5355224609375 C 3.908700942993164 69.96697235107422 2.500000953674316 62.98798751831055 2.500000953674316 55.79245376586914 C 2.500000953674316 48.59692001342773 3.908700942993164 41.61793899536133 6.686967849731445 35.04940414428711 C 9.370984077453613 28.70367050170898 13.21390056610107 23.00408744812012 18.10900115966797 18.1090030670166 C 23.00410079956055 13.21390342712402 28.70366668701172 9.370986938476563 35.04940032958984 6.686970233917236 C 41.61796951293945 3.908703804016113 48.5969352722168 2.500003814697266 55.79248428344727 2.500003814697266 C 62.98801803588867 2.500003814697266 69.96700286865234 3.908703804016113 76.53555297851563 6.686970233917236 C 82.88128662109375 9.370986938476563 88.58086395263672 13.21390342712402 93.47596740722656 18.1090030670166 C 98.37104797363281 23.00410461425781 102.213981628418 28.70367050170898 104.8980026245117 35.04940414428711 C 107.67626953125 41.61795425415039 109.0849685668945 48.59692001342773 109.0849685668945 55.79245376586914 C 109.0849685668945 62.98798751831055 107.67626953125 69.96697235107422 104.8980026245117 76.5355224609375 C 102.213981628418 82.88125610351563 98.37104797363281 88.58081817626953 93.47596740722656 93.47590637207031 C 88.58086395263672 98.37100219726563 82.88128662109375 102.2139358520508 76.53555297851563 104.8979568481445 C 69.96700286865234 107.6762008666992 62.98801803588867 109.0849075317383 55.79248428344727 109.0849075317383 Z" stroke="none"/>
            <path d="M 55.79248428344727 4.999992370605469 C 48.93334579467773 4.999992370605469 42.28202056884766 6.342254638671875 36.02328491210938 8.989471435546875 C 29.97554779052734 11.54743194580078 24.54306793212891 15.21045684814453 19.87676239013672 19.87675476074219 C 15.21046447753906 24.54307556152344 11.54744720458984 29.97553253173828 8.989463806152344 36.02327728271484 C 6.342262268066406 42.28199005126953 5.000007629394531 48.93331527709961 5.000007629394531 55.79245376586914 C 5.000007629394531 62.65159225463867 6.342262268066406 69.30291748046875 8.989463806152344 75.56163024902344 C 11.54744720458984 81.609375 15.21046447753906 87.04183197021484 19.87676239013672 91.70815277099609 C 24.54306793212891 96.37445068359375 29.97554779052734 100.0374755859375 36.02328491210938 102.5954360961914 C 42.28202056884766 105.2426528930664 48.93334579467773 106.5849151611328 55.79248428344727 106.5849151611328 C 62.6516227722168 106.5849151611328 69.30294799804688 105.2426528930664 75.56168365478516 102.5954360961914 C 81.60940551757813 100.0374755859375 87.04188537597656 96.37445068359375 91.70818328857422 91.70815277099609 C 96.37450408935547 87.04183197021484 100.0375213623047 81.609375 102.5954818725586 75.56163024902344 C 105.2427062988281 69.30291748046875 106.5849609375 62.65159225463867 106.5849609375 55.79245376586914 C 106.5849609375 48.93331527709961 105.2427062988281 42.28199005126953 102.5954818725586 36.02327728271484 C 100.0375213623047 29.97553253173828 96.37450408935547 24.54307556152344 91.70818328857422 19.87675476074219 C 87.04188537597656 15.21045684814453 81.60940551757813 11.54743194580078 75.56168365478516 8.989471435546875 C 69.30294799804688 6.342254638671875 62.6516227722168 4.999992370605469 55.79248428344727 4.999992370605469 M 55.79248428344727 -7.62939453125e-06 C 86.60581970214844 -7.62939453125e-06 111.5849609375 24.97913360595703 111.5849609375 55.79245376586914 C 111.5849609375 86.60577392578125 86.60581970214844 111.5849151611328 55.79248428344727 111.5849151611328 C 24.9791259765625 111.5849151611328 7.62939453125e-06 86.60577392578125 7.62939453125e-06 55.79245376586914 C 7.62939453125e-06 24.97913360595703 24.9791259765625 -7.62939453125e-06 55.79248428344727 -7.62939453125e-06 Z" stroke="none" fill="#292929"/>
          </g>
          <g id="Elipse_11-4" data-name="Elipse 11" transform="translate(17.04 17.46)" fill="#fff" stroke="#292929" stroke-width="5">
            <ellipse cx="38.524" cy="38.524" rx="38.524" ry="38.524" stroke="none"/>
            <ellipse cx="38.524" cy="38.524" rx="36.024" ry="36.024" fill="none"/>
          </g>
        </g>
        <g id="Grupo_1196" data-name="Grupo 1196" transform="translate(12.676 77.271)">
          <g id="Trazado_548-5" data-name="Trazado 548" transform="translate(0 0)" fill="#ee4266">
            <path d="M 55.79248428344727 109.0849075317383 C 48.5969352722168 109.0849075317383 41.61796951293945 107.6762008666992 35.04940032958984 104.8979568481445 C 28.70366668701172 102.2139358520508 23.00410079956055 98.37100219726563 18.10900115966797 93.47590637207031 C 13.21390056610107 88.58081817626953 9.370984077453613 82.88125610351563 6.686967849731445 76.5355224609375 C 3.908700942993164 69.96697235107422 2.500000953674316 62.98798751831055 2.500000953674316 55.79245376586914 C 2.500000953674316 48.59692001342773 3.908700942993164 41.61793899536133 6.686967849731445 35.04940414428711 C 9.370984077453613 28.70367050170898 13.21390056610107 23.00408744812012 18.10900115966797 18.1090030670166 C 23.00410079956055 13.21390342712402 28.70366668701172 9.370986938476563 35.04940032958984 6.686970233917236 C 41.61796951293945 3.908703804016113 48.5969352722168 2.500003814697266 55.79248428344727 2.500003814697266 C 62.98801803588867 2.500003814697266 69.96700286865234 3.908703804016113 76.53555297851563 6.686970233917236 C 82.88128662109375 9.370986938476563 88.58086395263672 13.21390342712402 93.47596740722656 18.1090030670166 C 98.37104797363281 23.00410461425781 102.213981628418 28.70367050170898 104.8980026245117 35.04940414428711 C 107.67626953125 41.61795425415039 109.0849685668945 48.59692001342773 109.0849685668945 55.79245376586914 C 109.0849685668945 62.98798751831055 107.67626953125 69.96697235107422 104.8980026245117 76.5355224609375 C 102.213981628418 82.88125610351563 98.37104797363281 88.58081817626953 93.47596740722656 93.47590637207031 C 88.58086395263672 98.37100219726563 82.88128662109375 102.2139358520508 76.53555297851563 104.8979568481445 C 69.96700286865234 107.6762008666992 62.98801803588867 109.0849075317383 55.79248428344727 109.0849075317383 Z" stroke="none"/>
            <path d="M 55.79248428344727 4.999992370605469 C 48.93334579467773 4.999992370605469 42.28202056884766 6.342254638671875 36.02328491210938 8.989471435546875 C 29.97554779052734 11.54743194580078 24.54306793212891 15.21045684814453 19.87676239013672 19.87675476074219 C 15.21046447753906 24.54307556152344 11.54744720458984 29.97553253173828 8.989463806152344 36.02327728271484 C 6.342262268066406 42.28199005126953 5.000007629394531 48.93331527709961 5.000007629394531 55.79245376586914 C 5.000007629394531 62.65159225463867 6.342262268066406 69.30291748046875 8.989463806152344 75.56163024902344 C 11.54744720458984 81.609375 15.21046447753906 87.04183197021484 19.87676239013672 91.70815277099609 C 24.54306793212891 96.37445068359375 29.97554779052734 100.0374755859375 36.02328491210938 102.5954360961914 C 42.28202056884766 105.2426528930664 48.93334579467773 106.5849151611328 55.79248428344727 106.5849151611328 C 62.6516227722168 106.5849151611328 69.30294799804688 105.2426528930664 75.56168365478516 102.5954360961914 C 81.60940551757813 100.0374755859375 87.04188537597656 96.37445068359375 91.70818328857422 91.70815277099609 C 96.37450408935547 87.04183197021484 100.0375213623047 81.609375 102.5954818725586 75.56163024902344 C 105.2427062988281 69.30291748046875 106.5849609375 62.65159225463867 106.5849609375 55.79245376586914 C 106.5849609375 48.93331527709961 105.2427062988281 42.28199005126953 102.5954818725586 36.02327728271484 C 100.0375213623047 29.97553253173828 96.37450408935547 24.54307556152344 91.70818328857422 19.87675476074219 C 87.04188537597656 15.21045684814453 81.60940551757813 11.54743194580078 75.56168365478516 8.989471435546875 C 69.30294799804688 6.342254638671875 62.6516227722168 4.999992370605469 55.79248428344727 4.999992370605469 M 55.79248428344727 -7.62939453125e-06 C 86.60581970214844 -7.62939453125e-06 111.5849609375 24.97913360595703 111.5849609375 55.79245376586914 C 111.5849609375 86.60577392578125 86.60581970214844 111.5849151611328 55.79248428344727 111.5849151611328 C 24.9791259765625 111.5849151611328 7.62939453125e-06 86.60577392578125 7.62939453125e-06 55.79245376586914 C 7.62939453125e-06 24.97913360595703 24.9791259765625 -7.62939453125e-06 55.79248428344727 -7.62939453125e-06 Z" stroke="none" fill="#292929"/>
          </g>
          <g id="Elipse_11-5" data-name="Elipse 11" transform="translate(17.04 17.46)" fill="#fff" stroke="#292929" stroke-width="5">
            <ellipse cx="38.524" cy="38.524" rx="38.524" ry="38.524" stroke="none"/>
            <ellipse cx="38.524" cy="38.524" rx="36.024" ry="36.024" fill="none"/>
          </g>
        </g>
      </g>
    </g>
    <path id="Trazado_621" data-name="Trazado 621" d="M40.131-41.3h9.477a13.385,13.385,0,0,1,5.967.995,5.016,5.016,0,0,1,2.515,2.983A17.82,17.82,0,0,1,58.734-32a19.5,19.5,0,0,1-.585,5.323,4.551,4.551,0,0,1-1.989,2.808,13.63,13.63,0,0,1-5.967,1.053H40.131v9.477a13.385,13.385,0,0,1-.995,5.967,5.016,5.016,0,0,1-2.984,2.516,17.819,17.819,0,0,1-5.323.643,17.819,17.819,0,0,1-5.323-.643A4.623,4.623,0,0,1,22.7-7.02a15.508,15.508,0,0,1-1.053-6.435v-9.36H11.466a12.571,12.571,0,0,1-5.616-.936,4.674,4.674,0,0,1-2.34-2.983,19.9,19.9,0,0,1-.585-5.324,18.178,18.178,0,0,1,.644-5.324A4.533,4.533,0,0,1,5.85-40.248,15.509,15.509,0,0,1,12.285-41.3h9.36v-9.477a14.126,14.126,0,0,1,.936-5.967,4.806,4.806,0,0,1,2.983-2.515,18.178,18.178,0,0,1,5.323-.644,18.178,18.178,0,0,1,5.324.644A4.642,4.642,0,0,1,39.078-57.1a15.509,15.509,0,0,1,1.053,6.435ZM79.911-86l17.784.117h11a33.774,33.774,0,0,1,4.1.176,9.432,9.432,0,0,1,3.042,1.111q3.159,1.638,3.159,9.36,0,7.02-2.925,8.541a8.4,8.4,0,0,1-2.867,1.111,29.612,29.612,0,0,1-3.8.176H88.92q-.234,1.4-1.17,8.892a25.414,25.414,0,0,1,4.1-.234q11.115,0,20.007,8.366A27.031,27.031,0,0,1,120.744-27.9,28.921,28.921,0,0,1,112.32-7.079,27.944,27.944,0,0,1,91.377,1.638a36.254,36.254,0,0,1-19.656-5.5A18.528,18.528,0,0,1,68.8-6.084L67.86-6.9q-4.446-3.861-4.446-7.02t4.329-7.605q3.51-3.861,6.786-3.861t7.839,3.744q2.106,2.457,7.313,2.457T97.4-21.411a7.772,7.772,0,0,0,2.516-6.142,7.632,7.632,0,0,0-2.749-6.2,9.532,9.532,0,0,0-6.26-2.282,7.59,7.59,0,0,0-5.616,2.106,9.839,9.839,0,0,1-6.376,2.691,16.028,16.028,0,0,1-7.371-2.223,24.126,24.126,0,0,1-5.44-3.569A4.105,4.105,0,0,1,64.818-39.9q0-1.521,2.34-18.837t2.457-18.018a14.35,14.35,0,0,1,.819-2.457,15.215,15.215,0,0,1,1.7-3.159,8.75,8.75,0,0,1,3.042-2.516A9.777,9.777,0,0,1,79.911-86Z" transform="translate(897.516 376.959)" fill="#a5eb78" stroke="#292929" stroke-width="5"/>
  </g>
</svg>
