<svg xmlns="http://www.w3.org/2000/svg" width="229.804" height="201.196" viewBox="0 0 229.804 201.196">
  <g id="token10" transform="translate(-1258.425 -234.804)">
    <g id="Grupo_1198" data-name="Grupo 1198" transform="translate(1258.425 234.804)">
      <g id="Grupo_1194" data-name="Grupo 1194" transform="translate(0 18.776)">
        <g id="Grupo_1189" data-name="Grupo 1189" transform="translate(0 0)">
          <g id="Trazado_548" data-name="Trazado 548" transform="translate(0 0)" fill="#ee4266">
            <path d="M 44.0761833190918 85.65225982666016 C 38.46232986450195 85.65225982666016 33.01773071289063 84.55333709716797 27.89362335205078 82.38603210449219 C 22.94306373596191 80.2921142578125 18.4964771270752 77.29397583007813 14.67738342285156 73.47488403320313 C 10.85828971862793 69.65580749511719 7.860143184661865 65.20922088623047 5.766236782073975 60.25865936279297 C 3.59891676902771 55.13456726074219 2.499996662139893 49.68996429443359 2.499996662139893 44.07612609863281 C 2.499996662139893 38.46228790283203 3.59891676902771 33.01768493652344 5.766236782073975 27.89359283447266 C 7.860143184661865 22.94303321838379 10.85828971862793 18.4964599609375 14.67738342285156 14.67736625671387 C 18.4964771270752 10.85828590393066 22.94306373596191 7.860152721405029 27.89362335205078 5.766232967376709 C 33.01773071289063 3.598926067352295 38.46232986450195 2.500006198883057 44.0761833190918 2.500006198883057 C 49.69003677368164 2.500006198883057 55.13463592529297 3.598926067352295 60.25874328613281 5.766232967376709 C 65.20932006835938 7.8601393699646 69.65590667724609 10.85828590393066 73.47499847412109 14.67736625671387 C 77.29407501220703 18.4964599609375 80.29222106933594 22.94303321838379 82.38613128662109 27.89359283447266 C 84.55345153808594 33.01768493652344 85.65236663818359 38.46228790283203 85.65236663818359 44.07612609863281 C 85.65236663818359 49.68996429443359 84.55345153808594 55.13456726074219 82.38613128662109 60.25865936279297 C 80.29222106933594 65.20922088623047 77.29407501220703 69.65580749511719 73.47499847412109 73.47488403320313 C 69.65590667724609 77.29397583007813 65.20932006835938 80.2921142578125 60.25874328613281 82.38603210449219 C 55.13463592529297 84.55333709716797 49.69003677368164 85.65225982666016 44.0761833190918 85.65225982666016 Z" stroke="none"/>
            <path d="M 44.0761833190918 4.999992370605469 C 38.79873275756836 4.999992370605469 33.68178176879883 6.032478332519531 28.86750030517578 8.068740844726563 C 24.21493148803711 10.03660583496094 20.03545379638672 12.85482788085938 16.44515228271484 16.44512939453125 C 12.85485076904297 20.03542327880859 10.03661346435547 24.21490859985352 8.068748474121094 28.86747741699219 C 6.032485961914063 33.68175888061523 5 38.79867553710938 5 44.07612609863281 C 5 49.35357666015625 6.032485961914063 54.47049331665039 8.068748474121094 59.28477478027344 C 10.03661346435547 63.93734359741211 12.85485076904297 68.11680603027344 16.44515228271484 71.70710754394531 C 20.03545379638672 75.29740905761719 24.21493148803711 78.11562347412109 28.86750030517578 80.08349609375 C 33.68178176879883 82.11977386474609 38.79873275756836 83.15224456787109 44.0761833190918 83.15224456787109 C 49.35363388061523 83.15224456787109 54.47058486938477 82.11977386474609 59.28486633300781 80.08349609375 C 63.93743133544922 78.11562347412109 68.11691284179688 75.29740905761719 71.70721435546875 71.70710754394531 C 75.29753112792969 68.11680603027344 78.11575317382813 63.93734359741211 80.0836181640625 59.28477478027344 C 82.11990356445313 54.47049331665039 83.15236663818359 49.35357666015625 83.15236663818359 44.07612609863281 C 83.15236663818359 38.79867553710938 82.11990356445313 33.68174362182617 80.0836181640625 28.86747741699219 C 78.11575317382813 24.21490859985352 75.29753112792969 20.03542327880859 71.70721435546875 16.44512939453125 C 68.11691284179688 12.85482788085938 63.93743133544922 10.03660583496094 59.28486633300781 8.068740844726563 C 54.47058486938477 6.032478332519531 49.35363388061523 4.999992370605469 44.0761833190918 4.999992370605469 M 44.0761833190918 -7.62939453125e-06 C 68.41880035400391 -7.62939453125e-06 88.15236663818359 19.73355865478516 88.15236663818359 44.07612609863281 C 88.15236663818359 68.41869354248047 68.41880035400391 88.15224456787109 44.0761833190918 88.15224456787109 C 19.73358154296875 88.15224456787109 0 68.41869354248047 0 44.07612609863281 C 0 19.73355865478516 19.73358154296875 -7.62939453125e-06 44.0761833190918 -7.62939453125e-06 Z" stroke="none" fill="#292929"/>
          </g>
          <g id="Elipse_11" data-name="Elipse 11" transform="translate(13.913 13.913)" fill="#fff" stroke="#292929" stroke-width="5">
            <ellipse cx="30.434" cy="30.434" rx="30.434" ry="30.434" stroke="none"/>
            <ellipse cx="30.434" cy="30.434" rx="27.934" ry="27.934" fill="none"/>
          </g>
        </g>
        <g id="Grupo_1190" data-name="Grupo 1190" transform="translate(15.742 20.989)">
          <g id="Trazado_548-2" data-name="Trazado 548" transform="translate(0 0)" fill="#ee4266">
            <path d="M 44.0761833190918 85.65225982666016 C 38.46232986450195 85.65225982666016 33.01773071289063 84.55333709716797 27.89362335205078 82.38603210449219 C 22.94306373596191 80.2921142578125 18.4964771270752 77.29397583007813 14.67738342285156 73.47488403320313 C 10.85828971862793 69.65580749511719 7.860143184661865 65.20922088623047 5.766236782073975 60.25865936279297 C 3.59891676902771 55.13456726074219 2.499996662139893 49.68996429443359 2.499996662139893 44.07612609863281 C 2.499996662139893 38.46228790283203 3.59891676902771 33.01768493652344 5.766236782073975 27.89359283447266 C 7.860143184661865 22.94303321838379 10.85828971862793 18.4964599609375 14.67738342285156 14.67736625671387 C 18.4964771270752 10.85828590393066 22.94306373596191 7.860152721405029 27.89362335205078 5.766232967376709 C 33.01773071289063 3.598926067352295 38.46232986450195 2.500006198883057 44.0761833190918 2.500006198883057 C 49.69003677368164 2.500006198883057 55.13463592529297 3.598926067352295 60.25874328613281 5.766232967376709 C 65.20932006835938 7.8601393699646 69.65590667724609 10.85828590393066 73.47499847412109 14.67736625671387 C 77.29407501220703 18.4964599609375 80.29222106933594 22.94303321838379 82.38613128662109 27.89359283447266 C 84.55345153808594 33.01768493652344 85.65236663818359 38.46228790283203 85.65236663818359 44.07612609863281 C 85.65236663818359 49.68996429443359 84.55345153808594 55.13456726074219 82.38613128662109 60.25865936279297 C 80.29222106933594 65.20922088623047 77.29407501220703 69.65580749511719 73.47499847412109 73.47488403320313 C 69.65590667724609 77.29397583007813 65.20932006835938 80.2921142578125 60.25874328613281 82.38603210449219 C 55.13463592529297 84.55333709716797 49.69003677368164 85.65225982666016 44.0761833190918 85.65225982666016 Z" stroke="none"/>
            <path d="M 44.0761833190918 4.999992370605469 C 38.79873275756836 4.999992370605469 33.68178176879883 6.032478332519531 28.86750030517578 8.068740844726563 C 24.21493148803711 10.03660583496094 20.03545379638672 12.85482788085938 16.44515228271484 16.44512939453125 C 12.85485076904297 20.03542327880859 10.03661346435547 24.21490859985352 8.068748474121094 28.86747741699219 C 6.032485961914063 33.68175888061523 5 38.79867553710938 5 44.07612609863281 C 5 49.35357666015625 6.032485961914063 54.47049331665039 8.068748474121094 59.28477478027344 C 10.03661346435547 63.93734359741211 12.85485076904297 68.11680603027344 16.44515228271484 71.70710754394531 C 20.03545379638672 75.29740905761719 24.21493148803711 78.11562347412109 28.86750030517578 80.08349609375 C 33.68178176879883 82.11977386474609 38.79873275756836 83.15224456787109 44.0761833190918 83.15224456787109 C 49.35363388061523 83.15224456787109 54.47058486938477 82.11977386474609 59.28486633300781 80.08349609375 C 63.93743133544922 78.11562347412109 68.11691284179688 75.29740905761719 71.70721435546875 71.70710754394531 C 75.29753112792969 68.11680603027344 78.11575317382813 63.93734359741211 80.0836181640625 59.28477478027344 C 82.11990356445313 54.47049331665039 83.15236663818359 49.35357666015625 83.15236663818359 44.07612609863281 C 83.15236663818359 38.79867553710938 82.11990356445313 33.68174362182617 80.0836181640625 28.86747741699219 C 78.11575317382813 24.21490859985352 75.29753112792969 20.03542327880859 71.70721435546875 16.44512939453125 C 68.11691284179688 12.85482788085938 63.93743133544922 10.03660583496094 59.28486633300781 8.068740844726563 C 54.47058486938477 6.032478332519531 49.35363388061523 4.999992370605469 44.0761833190918 4.999992370605469 M 44.0761833190918 -7.62939453125e-06 C 68.41880035400391 -7.62939453125e-06 88.15236663818359 19.73355865478516 88.15236663818359 44.07612609863281 C 88.15236663818359 68.41869354248047 68.41880035400391 88.15224456787109 44.0761833190918 88.15224456787109 C 19.73358154296875 88.15224456787109 0 68.41869354248047 0 44.07612609863281 C 0 19.73355865478516 19.73358154296875 -7.62939453125e-06 44.0761833190918 -7.62939453125e-06 Z" stroke="none" fill="#292929"/>
          </g>
          <g id="Elipse_11-2" data-name="Elipse 11" transform="translate(13.823 13.793)" fill="#fff" stroke="#292929" stroke-width="5">
            <ellipse cx="30.434" cy="30.434" rx="30.434" ry="30.434" stroke="none"/>
            <ellipse cx="30.434" cy="30.434" rx="27.934" ry="27.934" fill="none"/>
          </g>
        </g>
      </g>
      <g id="Grupo_1195" data-name="Grupo 1195" transform="translate(61.335 0)">
        <g id="Grupo_1189-2" data-name="Grupo 1189" transform="translate(15.742 0)">
          <g id="Trazado_548-3" data-name="Trazado 548" transform="translate(0 0)" fill="#ee4266">
            <path d="M 44.07614898681641 85.65225982666016 C 38.46231079101563 85.65225982666016 33.01770782470703 84.55333709716797 27.89360237121582 82.38603210449219 C 22.94304275512695 80.2921142578125 18.49645614624023 77.29397583007813 14.67737579345703 73.47488403320313 C 10.8582820892334 69.65580749511719 7.860148906707764 65.20922088623047 5.766229152679443 60.25865936279297 C 3.598922252655029 55.13456726074219 2.500002384185791 49.68996429443359 2.500002384185791 44.07612609863281 C 2.500002384185791 38.46228790283203 3.598922252655029 33.01768493652344 5.766229152679443 27.89359283447266 C 7.860148906707764 22.94303321838379 10.8582820892334 18.4964599609375 14.67737579345703 14.67736625671387 C 18.49645614624023 10.85828590393066 22.94304275512695 7.8601393699646 27.89360237121582 5.766232967376709 C 33.01770782470703 3.598926067352295 38.46229553222656 2.500006198883057 44.07614898681641 2.500006198883057 C 49.69000244140625 2.500006198883057 55.13459014892578 3.598926067352295 60.25869750976563 5.766232967376709 C 65.20925903320313 7.8601393699646 69.65584564208984 10.85828590393066 73.47492218017578 14.67736625671387 C 77.29401397705078 18.4964599609375 80.29215240478516 22.94303321838379 82.38607025146484 27.89359283447266 C 84.55337524414063 33.01768493652344 85.65229797363281 38.46228790283203 85.65229797363281 44.07612609863281 C 85.65229797363281 49.68996429443359 84.55337524414063 55.13456726074219 82.38607025146484 60.25865936279297 C 80.29215240478516 65.20922088623047 77.29401397705078 69.65580749511719 73.47492218017578 73.47488403320313 C 69.65584564208984 77.29397583007813 65.20925903320313 80.2921142578125 60.25869750976563 82.38603210449219 C 55.13459014892578 84.55333709716797 49.68998718261719 85.65225982666016 44.07614898681641 85.65225982666016 Z" stroke="none"/>
            <path d="M 44.07614898681641 4.999992370605469 C 38.79869842529297 4.999992370605469 33.68176651000977 6.032463073730469 28.86748123168945 8.068740844726563 C 24.21491622924805 10.03660583496094 20.03543090820313 12.85482788085938 16.44512939453125 16.44512939453125 C 12.85483551025391 20.03542327880859 10.03661346435547 24.21490859985352 8.068748474121094 28.86747741699219 C 6.032463073730469 33.68174362182617 5 38.79867553710938 5 44.07612609863281 C 5 49.35357666015625 6.032463073730469 54.47049331665039 8.068748474121094 59.28477478027344 C 10.03661346435547 63.93734359741211 12.85483551025391 68.11680603027344 16.44512939453125 71.70710754394531 C 20.03543090820313 75.29740905761719 24.21491622924805 78.11562347412109 28.86748123168945 80.08349609375 C 33.68176651000977 82.11977386474609 38.79869842529297 83.15224456787109 44.07614898681641 83.15224456787109 C 49.35359954833984 83.15224456787109 54.47053146362305 82.11977386474609 59.28481292724609 80.08349609375 C 63.93738174438477 78.11562347412109 68.11686706542969 75.29740905761719 71.70716857910156 71.70710754394531 C 75.29746246337891 68.11680603027344 78.11568450927734 63.93734359741211 80.08354949951172 59.28477478027344 C 82.11983489990234 54.47049331665039 83.15229797363281 49.35357666015625 83.15229797363281 44.07612609863281 C 83.15229797363281 38.79867553710938 82.11983489990234 33.68174362182617 80.08354949951172 28.86747741699219 C 78.11568450927734 24.21490859985352 75.29746246337891 20.03542327880859 71.70716857910156 16.44512939453125 C 68.11686706542969 12.85482788085938 63.93738174438477 10.03660583496094 59.28481292724609 8.068740844726563 C 54.47053146362305 6.032463073730469 49.35359954833984 4.999992370605469 44.07614898681641 4.999992370605469 M 44.07614898681641 -7.62939453125e-06 C 68.41873168945313 -7.62939453125e-06 88.15229797363281 19.73355865478516 88.15229797363281 44.07612609863281 C 88.15229797363281 68.41869354248047 68.41873168945313 88.15224456787109 44.07614898681641 88.15224456787109 C 19.73356628417969 88.15224456787109 0 68.41869354248047 0 44.07612609863281 C 0 19.73355865478516 19.73356628417969 -7.62939453125e-06 44.07614898681641 -7.62939453125e-06 Z" stroke="none" fill="#292929"/>
          </g>
          <g id="Elipse_11-3" data-name="Elipse 11" transform="translate(13.371 13.913)" fill="#fff" stroke="#292929" stroke-width="5">
            <ellipse cx="30.434" cy="30.434" rx="30.434" ry="30.434" stroke="none"/>
            <ellipse cx="30.434" cy="30.434" rx="27.934" ry="27.934" fill="none"/>
          </g>
        </g>
        <g id="Grupo_1190-2" data-name="Grupo 1190" transform="translate(0 20.989)">
          <g id="Trazado_548-4" data-name="Trazado 548" transform="translate(0 0)" fill="#ee4266">
            <path d="M 44.07614898681641 85.65225982666016 C 38.46231079101563 85.65225982666016 33.01770782470703 84.55333709716797 27.89360237121582 82.38603210449219 C 22.94304275512695 80.2921142578125 18.49645614624023 77.29397583007813 14.67737579345703 73.47488403320313 C 10.8582820892334 69.65580749511719 7.860148906707764 65.20922088623047 5.766229152679443 60.25865936279297 C 3.598922252655029 55.13456726074219 2.500002384185791 49.68996429443359 2.500002384185791 44.07612609863281 C 2.500002384185791 38.46228790283203 3.598922252655029 33.01768493652344 5.766229152679443 27.89359283447266 C 7.860148906707764 22.94303321838379 10.8582820892334 18.4964599609375 14.67737579345703 14.67736625671387 C 18.49645614624023 10.85828590393066 22.94304275512695 7.8601393699646 27.89360237121582 5.766232967376709 C 33.01770782470703 3.598926067352295 38.46229553222656 2.500006198883057 44.07614898681641 2.500006198883057 C 49.69000244140625 2.500006198883057 55.13459014892578 3.598926067352295 60.25869750976563 5.766232967376709 C 65.20925903320313 7.8601393699646 69.65584564208984 10.85828590393066 73.47492218017578 14.67736625671387 C 77.29401397705078 18.4964599609375 80.29215240478516 22.94303321838379 82.38607025146484 27.89359283447266 C 84.55337524414063 33.01768493652344 85.65229797363281 38.46228790283203 85.65229797363281 44.07612609863281 C 85.65229797363281 49.68996429443359 84.55337524414063 55.13456726074219 82.38607025146484 60.25865936279297 C 80.29215240478516 65.20922088623047 77.29401397705078 69.65580749511719 73.47492218017578 73.47488403320313 C 69.65584564208984 77.29397583007813 65.20925903320313 80.2921142578125 60.25869750976563 82.38603210449219 C 55.13459014892578 84.55333709716797 49.68998718261719 85.65225982666016 44.07614898681641 85.65225982666016 Z" stroke="none"/>
            <path d="M 44.07614898681641 4.999992370605469 C 38.79869842529297 4.999992370605469 33.68176651000977 6.032463073730469 28.86748123168945 8.068740844726563 C 24.21491622924805 10.03660583496094 20.03543090820313 12.85482788085938 16.44512939453125 16.44512939453125 C 12.85483551025391 20.03542327880859 10.03661346435547 24.21490859985352 8.068748474121094 28.86747741699219 C 6.032463073730469 33.68174362182617 5 38.79867553710938 5 44.07612609863281 C 5 49.35357666015625 6.032463073730469 54.47049331665039 8.068748474121094 59.28477478027344 C 10.03661346435547 63.93734359741211 12.85483551025391 68.11680603027344 16.44512939453125 71.70710754394531 C 20.03543090820313 75.29740905761719 24.21491622924805 78.11562347412109 28.86748123168945 80.08349609375 C 33.68176651000977 82.11977386474609 38.79869842529297 83.15224456787109 44.07614898681641 83.15224456787109 C 49.35359954833984 83.15224456787109 54.47053146362305 82.11977386474609 59.28481292724609 80.08349609375 C 63.93738174438477 78.11562347412109 68.11686706542969 75.29740905761719 71.70716857910156 71.70710754394531 C 75.29746246337891 68.11680603027344 78.11568450927734 63.93734359741211 80.08354949951172 59.28477478027344 C 82.11983489990234 54.47049331665039 83.15229797363281 49.35357666015625 83.15229797363281 44.07612609863281 C 83.15229797363281 38.79867553710938 82.11983489990234 33.68174362182617 80.08354949951172 28.86747741699219 C 78.11568450927734 24.21490859985352 75.29746246337891 20.03542327880859 71.70716857910156 16.44512939453125 C 68.11686706542969 12.85482788085938 63.93738174438477 10.03660583496094 59.28481292724609 8.068740844726563 C 54.47053146362305 6.032463073730469 49.35359954833984 4.999992370605469 44.07614898681641 4.999992370605469 M 44.07614898681641 -7.62939453125e-06 C 68.41873168945313 -7.62939453125e-06 88.15229797363281 19.73355865478516 88.15229797363281 44.07612609863281 C 88.15229797363281 68.41869354248047 68.41873168945313 88.15224456787109 44.07614898681641 88.15224456787109 C 19.73356628417969 88.15224456787109 0 68.41869354248047 0 44.07612609863281 C 0 19.73355865478516 19.73356628417969 -7.62939453125e-06 44.07614898681641 -7.62939453125e-06 Z" stroke="none" fill="#292929"/>
          </g>
          <g id="Elipse_11-4" data-name="Elipse 11" transform="translate(13.461 13.793)" fill="#fff" stroke="#292929" stroke-width="5">
            <ellipse cx="30.434" cy="30.434" rx="30.434" ry="30.434" stroke="none"/>
            <ellipse cx="30.434" cy="30.434" rx="27.934" ry="27.934" fill="none"/>
          </g>
        </g>
        <g id="Grupo_1196" data-name="Grupo 1196" transform="translate(10.014 61.044)">
          <g id="Trazado_548-5" data-name="Trazado 548" transform="translate(0 0)" fill="#ee4266">
            <path d="M 44.07614898681641 85.65225982666016 C 38.46231079101563 85.65225982666016 33.01770782470703 84.55333709716797 27.89360237121582 82.38603210449219 C 22.94304275512695 80.2921142578125 18.49645614624023 77.29397583007813 14.67737579345703 73.47488403320313 C 10.8582820892334 69.65580749511719 7.860148906707764 65.20922088623047 5.766229152679443 60.25865936279297 C 3.598922252655029 55.13456726074219 2.500002384185791 49.68996429443359 2.500002384185791 44.07612609863281 C 2.500002384185791 38.46228790283203 3.598922252655029 33.01768493652344 5.766229152679443 27.89359283447266 C 7.860148906707764 22.94303321838379 10.8582820892334 18.4964599609375 14.67737579345703 14.67736625671387 C 18.49645614624023 10.85828590393066 22.94304275512695 7.8601393699646 27.89360237121582 5.766232967376709 C 33.01770782470703 3.598926067352295 38.46229553222656 2.500006198883057 44.07614898681641 2.500006198883057 C 49.69000244140625 2.500006198883057 55.13459014892578 3.598926067352295 60.25869750976563 5.766232967376709 C 65.20925903320313 7.8601393699646 69.65584564208984 10.85828590393066 73.47492218017578 14.67736625671387 C 77.29401397705078 18.4964599609375 80.29215240478516 22.94303321838379 82.38607025146484 27.89359283447266 C 84.55337524414063 33.01768493652344 85.65229797363281 38.46228790283203 85.65229797363281 44.07612609863281 C 85.65229797363281 49.68996429443359 84.55337524414063 55.13456726074219 82.38607025146484 60.25865936279297 C 80.29215240478516 65.20922088623047 77.29401397705078 69.65580749511719 73.47492218017578 73.47488403320313 C 69.65584564208984 77.29397583007813 65.20925903320313 80.2921142578125 60.25869750976563 82.38603210449219 C 55.13459014892578 84.55333709716797 49.68998718261719 85.65225982666016 44.07614898681641 85.65225982666016 Z" stroke="none"/>
            <path d="M 44.07614898681641 4.999992370605469 C 38.79869842529297 4.999992370605469 33.68176651000977 6.032463073730469 28.86748123168945 8.068740844726563 C 24.21491622924805 10.03660583496094 20.03543090820313 12.85482788085938 16.44512939453125 16.44512939453125 C 12.85483551025391 20.03542327880859 10.03661346435547 24.21490859985352 8.068748474121094 28.86747741699219 C 6.032463073730469 33.68174362182617 5 38.79867553710938 5 44.07612609863281 C 5 49.35357666015625 6.032463073730469 54.47049331665039 8.068748474121094 59.28477478027344 C 10.03661346435547 63.93734359741211 12.85483551025391 68.11680603027344 16.44512939453125 71.70710754394531 C 20.03543090820313 75.29740905761719 24.21491622924805 78.11562347412109 28.86748123168945 80.08349609375 C 33.68176651000977 82.11977386474609 38.79869842529297 83.15224456787109 44.07614898681641 83.15224456787109 C 49.35359954833984 83.15224456787109 54.47053146362305 82.11977386474609 59.28481292724609 80.08349609375 C 63.93738174438477 78.11562347412109 68.11686706542969 75.29740905761719 71.70716857910156 71.70710754394531 C 75.29746246337891 68.11680603027344 78.11568450927734 63.93734359741211 80.08354949951172 59.28477478027344 C 82.11983489990234 54.47049331665039 83.15229797363281 49.35357666015625 83.15229797363281 44.07612609863281 C 83.15229797363281 38.79867553710938 82.11983489990234 33.68174362182617 80.08354949951172 28.86747741699219 C 78.11568450927734 24.21490859985352 75.29746246337891 20.03542327880859 71.70716857910156 16.44512939453125 C 68.11686706542969 12.85482788085938 63.93738174438477 10.03660583496094 59.28481292724609 8.068740844726563 C 54.47053146362305 6.032463073730469 49.35359954833984 4.999992370605469 44.07614898681641 4.999992370605469 M 44.07614898681641 -7.62939453125e-06 C 68.41873168945313 -7.62939453125e-06 88.15229797363281 19.73355865478516 88.15229797363281 44.07612609863281 C 88.15229797363281 68.41869354248047 68.41873168945313 88.15224456787109 44.07614898681641 88.15224456787109 C 19.73356628417969 88.15224456787109 0 68.41869354248047 0 44.07612609863281 C 0 19.73355865478516 19.73356628417969 -7.62939453125e-06 44.07614898681641 -7.62939453125e-06 Z" stroke="none" fill="#292929"/>
          </g>
          <g id="Elipse_11-5" data-name="Elipse 11" transform="translate(13.461 13.793)" fill="#fff" stroke="#292929" stroke-width="5">
            <ellipse cx="30.434" cy="30.434" rx="30.434" ry="30.434" stroke="none"/>
            <ellipse cx="30.434" cy="30.434" rx="27.934" ry="27.934" fill="none"/>
          </g>
        </g>
      </g>
    </g>
    <g id="Grupo_1199" data-name="Grupo 1199" transform="translate(1323 286.804)">
      <g id="Grupo_1194-2" data-name="Grupo 1194" transform="translate(0 21.279)">
        <g id="Grupo_1189-3" data-name="Grupo 1189" transform="translate(0 20.989)">
          <g id="Trazado_548-6" data-name="Trazado 548" fill="#ee4266">
            <path d="M 44.07624435424805 85.65225982666016 C 38.46237945556641 85.65225982666016 33.01777648925781 84.55333709716797 27.89365768432617 82.38601684570313 C 22.94308471679688 80.2921142578125 18.49649810791016 77.29397583007813 14.67740440368652 73.47488403320313 C 10.85829734802246 69.65580749511719 7.860164165496826 65.20922088623047 5.766244411468506 60.25865936279297 C 3.598924398422241 55.13456726074219 2.500004291534424 49.68996429443359 2.500004291534424 44.07612609863281 C 2.500004291534424 38.46228790283203 3.598924398422241 33.01768493652344 5.766244411468506 27.89359283447266 C 7.860150814056396 22.94303321838379 10.85829734802246 18.4964599609375 14.67740440368652 14.67736625671387 C 18.49649810791016 10.85828590393066 22.94308471679688 7.860152721405029 27.89365768432617 5.766232967376709 C 33.01777648925781 3.598926067352295 38.46237945556641 2.500006198883057 44.07624435424805 2.500006198883057 C 49.69010925292969 2.500006198883057 55.13471221923828 3.598926067352295 60.25883102416992 5.766232967376709 C 65.20940399169922 7.860152721405029 69.65599060058594 10.85828590393066 73.47508239746094 14.67736625671387 C 77.294189453125 18.4964599609375 80.29233551025391 22.94303321838379 82.38624572753906 27.89359283447266 C 84.55356597900391 33.01768493652344 85.65248107910156 38.46228790283203 85.65248107910156 44.07612609863281 C 85.65248107910156 49.68996429443359 84.55356597900391 55.13456726074219 82.38624572753906 60.25865936279297 C 80.29232788085938 65.20922088623047 77.294189453125 69.65580749511719 73.47508239746094 73.47488403320313 C 69.65599060058594 77.29397583007813 65.20940399169922 80.2921142578125 60.25883102416992 82.38601684570313 C 55.13471221923828 84.55333709716797 49.69010925292969 85.65225982666016 44.07624435424805 85.65225982666016 Z" stroke="none"/>
            <path d="M 44.07624435424805 83.15225982666016 C 49.35371017456055 83.15225982666016 54.47066116333008 82.11977386474609 59.28494262695313 80.08351135253906 C 63.93752670288086 78.11564636230469 68.11701202392578 75.29740905761719 71.70732879638672 71.70710754394531 C 75.29764556884766 68.11680603027344 78.11587524414063 63.93734359741211 80.08374786376953 59.28477478027344 C 82.12001037597656 54.47049331665039 83.15249633789063 49.35357666015625 83.15249633789063 44.07612609863281 C 83.15249633789063 38.79867553710938 82.12001037597656 33.68175888061523 80.08374786376953 28.86747550964355 C 78.11587524414063 24.21492576599121 75.29764556884766 20.03544235229492 71.70732879638672 16.44514274597168 C 68.11701202392578 12.85484313964844 63.93752670288086 10.03662586212158 59.28494262695313 8.068758964538574 C 54.47066116333008 6.03247594833374 49.35371017456055 5.000009536743164 44.07624435424805 5.000009536743164 C 38.79877853393555 5.000009536743164 33.68182754516602 6.03247594833374 28.86754417419434 8.068758964538574 C 24.2149600982666 10.03662586212158 20.03547859191895 12.85484313964844 16.44516181945801 16.44514274597168 C 12.85484409332275 20.03544235229492 10.03661060333252 24.21492576599121 8.068744659423828 28.86747550964355 C 6.032477855682373 33.68175888061523 4.999994277954102 38.79867553710938 4.999994277954102 44.07612609863281 C 4.999994277954102 49.35357666015625 6.032477855682373 54.47049331665039 8.068744659423828 59.28477478027344 C 10.03661060333252 63.93734359741211 12.85484409332275 68.11680603027344 16.44516181945801 71.70710754394531 C 20.03547859191895 75.29740905761719 24.2149600982666 78.11564636230469 28.86754417419434 80.08351135253906 C 33.68182754516602 82.11977386474609 38.79877853393555 83.15225982666016 44.07624435424805 83.15225982666016 M 44.07624435424805 88.15225982666016 C 19.73361015319824 88.15225982666016 -5.645752025884576e-06 68.41869354248047 -5.645752025884576e-06 44.07612609863281 C -5.645752025884576e-06 19.73355865478516 19.73361015319824 9.431965736439452e-06 44.07624435424805 9.431965736439452e-06 C 68.41887664794922 9.431965736439452e-06 88.15249633789063 19.73355865478516 88.15249633789063 44.07612609863281 C 88.15249633789063 68.41869354248047 68.41887664794922 88.15225982666016 44.07624435424805 88.15225982666016 Z" stroke="none" fill="#292929"/>
          </g>
          <g id="Elipse_11-6" data-name="Elipse 11" transform="translate(13.913 13.371)" fill="#fff" stroke="#292929" stroke-width="5">
            <ellipse cx="30.434" cy="30.434" rx="30.434" ry="30.434" stroke="none"/>
            <ellipse cx="30.434" cy="30.434" rx="27.934" ry="27.934" fill="none"/>
          </g>
        </g>
        <g id="Grupo_1190-3" data-name="Grupo 1190" transform="translate(15.742)">
          <g id="Trazado_548-7" data-name="Trazado 548" fill="#ee4266">
            <path d="M 44.07624435424805 85.65225982666016 C 38.46237945556641 85.65225982666016 33.01777648925781 84.55333709716797 27.89365768432617 82.38601684570313 C 22.94308471679688 80.2921142578125 18.49649810791016 77.29397583007813 14.67740440368652 73.47488403320313 C 10.85829734802246 69.65580749511719 7.860164165496826 65.20922088623047 5.766244411468506 60.25865936279297 C 3.598924398422241 55.13456726074219 2.500004291534424 49.68996429443359 2.500004291534424 44.07612609863281 C 2.500004291534424 38.46228790283203 3.598924398422241 33.01768493652344 5.766244411468506 27.89359283447266 C 7.860150814056396 22.94303321838379 10.85829734802246 18.4964599609375 14.67740440368652 14.67736625671387 C 18.49649810791016 10.85828590393066 22.94308471679688 7.860152721405029 27.89365768432617 5.766232967376709 C 33.01777648925781 3.598926067352295 38.46237945556641 2.500006198883057 44.07624435424805 2.500006198883057 C 49.69010925292969 2.500006198883057 55.13471221923828 3.598926067352295 60.25883102416992 5.766232967376709 C 65.20940399169922 7.860152721405029 69.65599060058594 10.85828590393066 73.47508239746094 14.67736625671387 C 77.294189453125 18.4964599609375 80.29233551025391 22.94303321838379 82.38624572753906 27.89359283447266 C 84.55356597900391 33.01768493652344 85.65248107910156 38.46228790283203 85.65248107910156 44.07612609863281 C 85.65248107910156 49.68996429443359 84.55356597900391 55.13456726074219 82.38624572753906 60.25865936279297 C 80.29232788085938 65.20922088623047 77.294189453125 69.65580749511719 73.47508239746094 73.47488403320313 C 69.65599060058594 77.29397583007813 65.20940399169922 80.2921142578125 60.25883102416992 82.38601684570313 C 55.13471221923828 84.55333709716797 49.69010925292969 85.65225982666016 44.07624435424805 85.65225982666016 Z" stroke="none"/>
            <path d="M 44.07624435424805 83.15225982666016 C 49.35371017456055 83.15225982666016 54.47066116333008 82.11977386474609 59.28494262695313 80.08351135253906 C 63.93752670288086 78.11564636230469 68.11701202392578 75.29740905761719 71.70732879638672 71.70710754394531 C 75.29764556884766 68.11680603027344 78.11587524414063 63.93734359741211 80.08374786376953 59.28477478027344 C 82.12001037597656 54.47049331665039 83.15249633789063 49.35357666015625 83.15249633789063 44.07612609863281 C 83.15249633789063 38.79867553710938 82.12001037597656 33.68175888061523 80.08374786376953 28.86747550964355 C 78.11587524414063 24.21492576599121 75.29764556884766 20.03544235229492 71.70732879638672 16.44514274597168 C 68.11701202392578 12.85484313964844 63.93752670288086 10.03662586212158 59.28494262695313 8.068758964538574 C 54.47066116333008 6.03247594833374 49.35371017456055 5.000009536743164 44.07624435424805 5.000009536743164 C 38.79877853393555 5.000009536743164 33.68182754516602 6.03247594833374 28.86754417419434 8.068758964538574 C 24.2149600982666 10.03662586212158 20.03547859191895 12.85484313964844 16.44516181945801 16.44514274597168 C 12.85484409332275 20.03544235229492 10.03661060333252 24.21492576599121 8.068744659423828 28.86747550964355 C 6.032477855682373 33.68175888061523 4.999994277954102 38.79867553710938 4.999994277954102 44.07612609863281 C 4.999994277954102 49.35357666015625 6.032477855682373 54.47049331665039 8.068744659423828 59.28477478027344 C 10.03661060333252 63.93734359741211 12.85484409332275 68.11680603027344 16.44516181945801 71.70710754394531 C 20.03547859191895 75.29740905761719 24.2149600982666 78.11564636230469 28.86754417419434 80.08351135253906 C 33.68182754516602 82.11977386474609 38.79877853393555 83.15225982666016 44.07624435424805 83.15225982666016 M 44.07624435424805 88.15225982666016 C 19.73361015319824 88.15225982666016 -5.645752025884576e-06 68.41869354248047 -5.645752025884576e-06 44.07612609863281 C -5.645752025884576e-06 19.73355865478516 19.73361015319824 9.431965736439452e-06 44.07624435424805 9.431965736439452e-06 C 68.41887664794922 9.431965736439452e-06 88.15249633789063 19.73355865478516 88.15249633789063 44.07612609863281 C 88.15249633789063 68.41869354248047 68.41887664794922 88.15225982666016 44.07624435424805 88.15225982666016 Z" stroke="none" fill="#292929"/>
          </g>
          <g id="Elipse_11-7" data-name="Elipse 11" transform="translate(13.823 13.491)" fill="#fff" stroke="#292929" stroke-width="5">
            <ellipse cx="30.434" cy="30.434" rx="30.434" ry="30.434" stroke="none"/>
            <ellipse cx="30.434" cy="30.434" rx="27.934" ry="27.934" fill="none"/>
          </g>
        </g>
      </g>
      <g id="Grupo_1195-2" data-name="Grupo 1195" transform="translate(61.335 0)">
        <g id="Grupo_1189-4" data-name="Grupo 1189" transform="translate(15.742 61.044)">
          <g id="Trazado_548-8" data-name="Trazado 548" fill="#ee4266">
            <path d="M 44.07621002197266 85.65225982666016 C 38.46235656738281 85.65225982666016 33.01774215698242 84.55333709716797 27.89363670349121 82.38603210449219 C 22.94306373596191 80.2921142578125 18.4964771270752 77.29397583007813 14.67738342285156 73.47488403320313 C 10.85828971862793 69.65580749511719 7.860143184661865 65.20922088623047 5.766236782073975 60.25865936279297 C 3.59891676902771 55.13456726074219 2.499996662139893 49.68996429443359 2.499996662139893 44.07612609863281 C 2.499996662139893 38.46228790283203 3.59891676902771 33.01768493652344 5.766236782073975 27.89359283447266 C 7.860143184661865 22.94303321838379 10.85828971862793 18.4964599609375 14.67738342285156 14.67736625671387 C 18.4964771270752 10.85828590393066 22.94306373596191 7.860152721405029 27.89363670349121 5.766232967376709 C 33.01774215698242 3.598926067352295 38.46235656738281 2.500006198883057 44.07621002197266 2.500006198883057 C 49.6900634765625 2.500006198883057 55.13466262817383 3.598926067352295 60.25878524780273 5.766232967376709 C 65.20934295654297 7.860152721405029 69.65594482421875 10.85828590393066 73.47503662109375 14.67736625671387 C 77.29412841796875 18.4964599609375 80.29227447509766 22.94303321838379 82.38618469238281 27.89359283447266 C 84.55350494384766 33.0177001953125 85.65242004394531 38.46228790283203 85.65242004394531 44.07612609863281 C 85.65242004394531 49.68996429443359 84.55350494384766 55.13456726074219 82.38618469238281 60.25865936279297 C 80.29227447509766 65.20922088623047 77.29412841796875 69.65580749511719 73.47503662109375 73.47488403320313 C 69.65594482421875 77.29397583007813 65.20934295654297 80.2921142578125 60.25878524780273 82.38603210449219 C 55.13466262817383 84.55333709716797 49.6900634765625 85.65225982666016 44.07621002197266 85.65225982666016 Z" stroke="none"/>
            <path d="M 44.07621002197266 83.15225982666016 C 49.35366058349609 83.15225982666016 54.47061157226563 82.11977386474609 59.28490829467773 80.08351135253906 C 63.93747711181641 78.11564636230469 68.11695861816406 75.29742431640625 71.707275390625 71.70712280273438 C 75.29757690429688 68.11682891845703 78.11580657958984 63.93734359741211 80.08367919921875 59.28477478027344 C 82.11994171142578 54.47049331665039 83.15242767333984 49.35357666015625 83.15242767333984 44.07612609863281 C 83.15242767333984 38.79867553710938 82.11994171142578 33.68175888061523 80.08367919921875 28.86747550964355 C 78.11580657958984 24.21490859985352 75.29757690429688 20.03544235229492 71.707275390625 16.44514274597168 C 68.11695861816406 12.85484313964844 63.93747711181641 10.03662586212158 59.28490829467773 8.068758964538574 C 54.47061157226563 6.03247594833374 49.35367584228516 5.000009536743164 44.07621002197266 5.000009536743164 C 38.79874420166016 5.000009536743164 33.68180847167969 6.03247594833374 28.86750984191895 8.068758964538574 C 24.21494293212891 10.03662586212158 20.03545951843262 12.85484313964844 16.44515991210938 16.44514274597168 C 12.85486030578613 20.03544235229492 10.0366268157959 24.21490859985352 8.068759918212891 28.86747550964355 C 6.032476902008057 33.68175888061523 5.000010013580322 38.79867553710938 5.000010013580322 44.07612609863281 C 5.000010013580322 49.35357666015625 6.032476902008057 54.47050857543945 8.068759918212891 59.28477478027344 C 10.0366268157959 63.93734359741211 12.85486030578613 68.11682891845703 16.44515991210938 71.70712280273438 C 20.03545951843262 75.29742431640625 24.21494293212891 78.11564636230469 28.86750984191895 80.08351135253906 C 33.68180847167969 82.11977386474609 38.79874420166016 83.15225982666016 44.07621002197266 83.15225982666016 M 44.07621002197266 88.15225982666016 C 19.73357582092285 88.15225982666016 1.002197222987888e-05 68.41869354248047 1.002197222987888e-05 44.07612609863281 C 1.002197222987888e-05 19.73355865478516 19.73357582092285 9.431965736439452e-06 44.07621002197266 9.431965736439452e-06 C 68.4188232421875 9.431965736439452e-06 88.15242767333984 19.73355865478516 88.15242767333984 44.07612609863281 C 88.15242767333984 68.41869354248047 68.4188232421875 88.15225982666016 44.07621002197266 88.15225982666016 Z" stroke="none" fill="#292929"/>
          </g>
          <g id="Elipse_11-8" data-name="Elipse 11" transform="translate(13.371 13.371)" fill="#fff" stroke="#292929" stroke-width="5">
            <ellipse cx="30.434" cy="30.434" rx="30.434" ry="30.434" stroke="none"/>
            <ellipse cx="30.434" cy="30.434" rx="27.934" ry="27.934" fill="none"/>
          </g>
        </g>
        <g id="Grupo_1190-4" data-name="Grupo 1190" transform="translate(0 40.055)">
          <g id="Trazado_548-9" data-name="Trazado 548" fill="#ee4266">
            <path d="M 44.07621002197266 85.65225982666016 C 38.46235656738281 85.65225982666016 33.01774215698242 84.55333709716797 27.89363670349121 82.38603210449219 C 22.94306373596191 80.2921142578125 18.4964771270752 77.29397583007813 14.67738342285156 73.47488403320313 C 10.85828971862793 69.65580749511719 7.860143184661865 65.20922088623047 5.766236782073975 60.25865936279297 C 3.59891676902771 55.13456726074219 2.499996662139893 49.68996429443359 2.499996662139893 44.07612609863281 C 2.499996662139893 38.46228790283203 3.59891676902771 33.01768493652344 5.766236782073975 27.89359283447266 C 7.860143184661865 22.94303321838379 10.85828971862793 18.4964599609375 14.67738342285156 14.67736625671387 C 18.4964771270752 10.85828590393066 22.94306373596191 7.860152721405029 27.89363670349121 5.766232967376709 C 33.01774215698242 3.598926067352295 38.46235656738281 2.500006198883057 44.07621002197266 2.500006198883057 C 49.6900634765625 2.500006198883057 55.13466262817383 3.598926067352295 60.25878524780273 5.766232967376709 C 65.20934295654297 7.860152721405029 69.65594482421875 10.85828590393066 73.47503662109375 14.67736625671387 C 77.29412841796875 18.4964599609375 80.29227447509766 22.94303321838379 82.38618469238281 27.89359283447266 C 84.55350494384766 33.0177001953125 85.65242004394531 38.46228790283203 85.65242004394531 44.07612609863281 C 85.65242004394531 49.68996429443359 84.55350494384766 55.13456726074219 82.38618469238281 60.25865936279297 C 80.29227447509766 65.20922088623047 77.29412841796875 69.65580749511719 73.47503662109375 73.47488403320313 C 69.65594482421875 77.29397583007813 65.20934295654297 80.2921142578125 60.25878524780273 82.38603210449219 C 55.13466262817383 84.55333709716797 49.6900634765625 85.65225982666016 44.07621002197266 85.65225982666016 Z" stroke="none"/>
            <path d="M 44.07621002197266 83.15225982666016 C 49.35366058349609 83.15225982666016 54.47061157226563 82.11977386474609 59.28490829467773 80.08351135253906 C 63.93747711181641 78.11564636230469 68.11695861816406 75.29742431640625 71.707275390625 71.70712280273438 C 75.29757690429688 68.11682891845703 78.11580657958984 63.93734359741211 80.08367919921875 59.28477478027344 C 82.11994171142578 54.47049331665039 83.15242767333984 49.35357666015625 83.15242767333984 44.07612609863281 C 83.15242767333984 38.79867553710938 82.11994171142578 33.68175888061523 80.08367919921875 28.86747550964355 C 78.11580657958984 24.21490859985352 75.29757690429688 20.03544235229492 71.707275390625 16.44514274597168 C 68.11695861816406 12.85484313964844 63.93747711181641 10.03662586212158 59.28490829467773 8.068758964538574 C 54.47061157226563 6.03247594833374 49.35367584228516 5.000009536743164 44.07621002197266 5.000009536743164 C 38.79874420166016 5.000009536743164 33.68180847167969 6.03247594833374 28.86750984191895 8.068758964538574 C 24.21494293212891 10.03662586212158 20.03545951843262 12.85484313964844 16.44515991210938 16.44514274597168 C 12.85486030578613 20.03544235229492 10.0366268157959 24.21490859985352 8.068759918212891 28.86747550964355 C 6.032476902008057 33.68175888061523 5.000010013580322 38.79867553710938 5.000010013580322 44.07612609863281 C 5.000010013580322 49.35357666015625 6.032476902008057 54.47050857543945 8.068759918212891 59.28477478027344 C 10.0366268157959 63.93734359741211 12.85486030578613 68.11682891845703 16.44515991210938 71.70712280273438 C 20.03545951843262 75.29742431640625 24.21494293212891 78.11564636230469 28.86750984191895 80.08351135253906 C 33.68180847167969 82.11977386474609 38.79874420166016 83.15225982666016 44.07621002197266 83.15225982666016 M 44.07621002197266 88.15225982666016 C 19.73357582092285 88.15225982666016 1.002197222987888e-05 68.41869354248047 1.002197222987888e-05 44.07612609863281 C 1.002197222987888e-05 19.73355865478516 19.73357582092285 9.431965736439452e-06 44.07621002197266 9.431965736439452e-06 C 68.4188232421875 9.431965736439452e-06 88.15242767333984 19.73355865478516 88.15242767333984 44.07612609863281 C 88.15242767333984 68.41869354248047 68.4188232421875 88.15225982666016 44.07621002197266 88.15225982666016 Z" stroke="none" fill="#292929"/>
          </g>
          <g id="Elipse_11-9" data-name="Elipse 11" transform="translate(13.461 13.491)" fill="#fff" stroke="#292929" stroke-width="5">
            <ellipse cx="30.434" cy="30.434" rx="30.434" ry="30.434" stroke="none"/>
            <ellipse cx="30.434" cy="30.434" rx="27.934" ry="27.934" fill="none"/>
          </g>
        </g>
        <g id="Grupo_1196-2" data-name="Grupo 1196" transform="translate(10.014)">
          <g id="Trazado_548-10" data-name="Trazado 548" fill="#ee4266">
            <path d="M 44.07621002197266 85.65225982666016 C 38.46235656738281 85.65225982666016 33.01774215698242 84.55333709716797 27.89363670349121 82.38603210449219 C 22.94306373596191 80.2921142578125 18.4964771270752 77.29397583007813 14.67738342285156 73.47488403320313 C 10.85828971862793 69.65580749511719 7.860143184661865 65.20922088623047 5.766236782073975 60.25865936279297 C 3.59891676902771 55.13456726074219 2.499996662139893 49.68996429443359 2.499996662139893 44.07612609863281 C 2.499996662139893 38.46228790283203 3.59891676902771 33.01768493652344 5.766236782073975 27.89359283447266 C 7.860143184661865 22.94303321838379 10.85828971862793 18.4964599609375 14.67738342285156 14.67736625671387 C 18.4964771270752 10.85828590393066 22.94306373596191 7.860152721405029 27.89363670349121 5.766232967376709 C 33.01774215698242 3.598926067352295 38.46235656738281 2.500006198883057 44.07621002197266 2.500006198883057 C 49.6900634765625 2.500006198883057 55.13466262817383 3.598926067352295 60.25878524780273 5.766232967376709 C 65.20934295654297 7.860152721405029 69.65594482421875 10.85828590393066 73.47503662109375 14.67736625671387 C 77.29412841796875 18.4964599609375 80.29227447509766 22.94303321838379 82.38618469238281 27.89359283447266 C 84.55350494384766 33.0177001953125 85.65242004394531 38.46228790283203 85.65242004394531 44.07612609863281 C 85.65242004394531 49.68996429443359 84.55350494384766 55.13456726074219 82.38618469238281 60.25865936279297 C 80.29227447509766 65.20922088623047 77.29412841796875 69.65580749511719 73.47503662109375 73.47488403320313 C 69.65594482421875 77.29397583007813 65.20934295654297 80.2921142578125 60.25878524780273 82.38603210449219 C 55.13466262817383 84.55333709716797 49.6900634765625 85.65225982666016 44.07621002197266 85.65225982666016 Z" stroke="none"/>
            <path d="M 44.07621002197266 83.15225982666016 C 49.35366058349609 83.15225982666016 54.47061157226563 82.11977386474609 59.28490829467773 80.08351135253906 C 63.93747711181641 78.11564636230469 68.11695861816406 75.29742431640625 71.707275390625 71.70712280273438 C 75.29757690429688 68.11682891845703 78.11580657958984 63.93734359741211 80.08367919921875 59.28477478027344 C 82.11994171142578 54.47049331665039 83.15242767333984 49.35357666015625 83.15242767333984 44.07612609863281 C 83.15242767333984 38.79867553710938 82.11994171142578 33.68175888061523 80.08367919921875 28.86747550964355 C 78.11580657958984 24.21490859985352 75.29757690429688 20.03544235229492 71.707275390625 16.44514274597168 C 68.11695861816406 12.85484313964844 63.93747711181641 10.03662586212158 59.28490829467773 8.068758964538574 C 54.47061157226563 6.03247594833374 49.35367584228516 5.000009536743164 44.07621002197266 5.000009536743164 C 38.79874420166016 5.000009536743164 33.68180847167969 6.03247594833374 28.86750984191895 8.068758964538574 C 24.21494293212891 10.03662586212158 20.03545951843262 12.85484313964844 16.44515991210938 16.44514274597168 C 12.85486030578613 20.03544235229492 10.0366268157959 24.21490859985352 8.068759918212891 28.86747550964355 C 6.032476902008057 33.68175888061523 5.000010013580322 38.79867553710938 5.000010013580322 44.07612609863281 C 5.000010013580322 49.35357666015625 6.032476902008057 54.47050857543945 8.068759918212891 59.28477478027344 C 10.0366268157959 63.93734359741211 12.85486030578613 68.11682891845703 16.44515991210938 71.70712280273438 C 20.03545951843262 75.29742431640625 24.21494293212891 78.11564636230469 28.86750984191895 80.08351135253906 C 33.68180847167969 82.11977386474609 38.79874420166016 83.15225982666016 44.07621002197266 83.15225982666016 M 44.07621002197266 88.15225982666016 C 19.73357582092285 88.15225982666016 1.002197222987888e-05 68.41869354248047 1.002197222987888e-05 44.07612609863281 C 1.002197222987888e-05 19.73355865478516 19.73357582092285 9.431965736439452e-06 44.07621002197266 9.431965736439452e-06 C 68.4188232421875 9.431965736439452e-06 88.15242767333984 19.73355865478516 88.15242767333984 44.07612609863281 C 88.15242767333984 68.41869354248047 68.4188232421875 88.15225982666016 44.07621002197266 88.15225982666016 Z" stroke="none" fill="#292929"/>
          </g>
          <g id="Elipse_11-10" data-name="Elipse 11" transform="translate(13.461 13.491)" fill="#fff" stroke="#292929" stroke-width="5">
            <ellipse cx="30.434" cy="30.434" rx="30.434" ry="30.434" stroke="none"/>
            <ellipse cx="30.434" cy="30.434" rx="27.934" ry="27.934" fill="none"/>
          </g>
        </g>
      </g>
    </g>
    <path id="Trazado_622" data-name="Trazado 622" d="M40.131-41.3h9.477a13.385,13.385,0,0,1,5.967.995,5.016,5.016,0,0,1,2.515,2.983A17.82,17.82,0,0,1,58.734-32a19.5,19.5,0,0,1-.585,5.323,4.551,4.551,0,0,1-1.989,2.808,13.63,13.63,0,0,1-5.967,1.053H40.131v9.477a13.385,13.385,0,0,1-.995,5.967,5.016,5.016,0,0,1-2.984,2.516,17.819,17.819,0,0,1-5.323.643,17.819,17.819,0,0,1-5.323-.643A4.623,4.623,0,0,1,22.7-7.02a15.508,15.508,0,0,1-1.053-6.435v-9.36H11.466a12.571,12.571,0,0,1-5.616-.936,4.674,4.674,0,0,1-2.34-2.983,19.9,19.9,0,0,1-.585-5.324,18.178,18.178,0,0,1,.644-5.324A4.533,4.533,0,0,1,5.85-40.248,15.509,15.509,0,0,1,12.285-41.3h9.36v-9.477a14.126,14.126,0,0,1,.936-5.967,4.806,4.806,0,0,1,2.983-2.515,18.178,18.178,0,0,1,5.323-.644,18.178,18.178,0,0,1,5.324.644A4.642,4.642,0,0,1,39.078-57.1a15.509,15.509,0,0,1,1.053,6.435ZM87.165-82.836a9.223,9.223,0,0,1,6.61-3.042,20.614,20.614,0,0,1,5.558.585,10.188,10.188,0,0,1,3.042,1.346,4.894,4.894,0,0,1,1.638,2.515,23.885,23.885,0,0,1,.585,6.2v65.169a33.988,33.988,0,0,1-.176,4.036,9.374,9.374,0,0,1-1.111,3.1Q101.673.234,94.185.234q-7.254,0-9.009-3.042a9.319,9.319,0,0,1-1.112-3.218,38.672,38.672,0,0,1-.175-4.271V-52.065l-1.521,1.4q-4.8,3.627-8.19,3.627t-7.078-4.1q-3.686-4.095-3.686-7.254t4.212-6.9L86.814-82.6Zm33.93,6.961a26.637,26.637,0,0,1,9.535-7.956,30.2,30.2,0,0,1,14.216-3.217,29.948,29.948,0,0,1,14.1,3.159,27.2,27.2,0,0,1,9.477,7.839,39.338,39.338,0,0,1,5.557,11,70.209,70.209,0,0,1,3.51,22.347q0,21.177-9.126,33.579A25.59,25.59,0,0,1,158.945-1.4a30.628,30.628,0,0,1-13.982,3.042,30.87,30.87,0,0,1-14.1-3.1,27,27,0,0,1-9.594-7.664A39.788,39.788,0,0,1,115.6-20.007,71.217,71.217,0,0,1,112.2-42.822a64.061,64.061,0,0,1,2.749-20.007A49.2,49.2,0,0,1,121.1-75.875Zm23.634,56.687q12.051,0,12.051-22.932v-.7q0-23.517-11.934-23.517T132.912-42.764Q132.912-19.188,144.729-19.188Z" transform="translate(1284 375)" fill="#a5eb78" stroke="#292929" stroke-width="5"/>
  </g>
</svg>
