<svg xmlns="http://www.w3.org/2000/svg" width="183.585" height="183.585" viewBox="0 0 183.585 183.585">
  <g id="token1" transform="translate(-454.208 -242.167)">
    <g id="Grupo_1197" data-name="Grupo 1197" transform="translate(454.208 242.167)">
      <g id="Trazado_548" data-name="Trazado 548" transform="translate(0 0)" fill="#ee4266">
        <path d="M 91.79249572753906 181.0848999023438 C 85.73246765136719 181.0848999023438 79.67701721191406 180.4745178222656 73.79429626464844 179.2707366943359 C 68.06237030029297 178.0978240966797 62.42424392700195 176.3476715087891 57.03659439086914 174.0688629150391 C 51.74617004394531 171.8312225341797 46.64339447021484 169.0614929199219 41.86994552612305 165.8366241455078 C 37.14122009277344 162.6419677734375 32.6944465637207 158.9730224609375 28.65317153930664 154.9317474365234 C 24.61186981201172 150.8904418945313 20.94294548034668 146.4436950683594 17.74827003479004 141.7149658203125 C 14.52339553833008 136.9415130615234 11.75367069244385 131.8387451171875 9.516020774841309 126.5483169555664 C 7.237220764160156 121.1606674194336 5.487070560455322 115.5225677490234 4.314145565032959 109.790641784668 C 3.110370635986328 103.9079208374023 2.499995708465576 97.85247039794922 2.499995708465576 91.79244232177734 C 2.499995708465576 85.73244476318359 3.110370635986328 79.67696380615234 4.314145565032959 73.79426574707031 C 5.487070560455322 68.06231689453125 7.237220764160156 62.42421722412109 9.516020774841309 57.03656768798828 C 11.75367069244385 51.74616622924805 14.52339553833008 46.64336776733398 17.74827003479004 41.86994171142578 C 20.94294548034668 37.14121627807617 24.61186981201172 32.69444274902344 28.65317153930664 28.65314292907715 C 32.6944465637207 24.61186790466309 37.14122009277344 20.94294166564941 41.86994552612305 17.74826812744141 C 46.64339447021484 14.52339267730713 51.74617004394531 11.75366687774658 57.03659439086914 9.516016960144043 C 62.42424392700195 7.237217426300049 68.06237030029297 5.487067222595215 73.79429626464844 4.314142227172852 C 79.67701721191406 3.110367298126221 85.73246765136719 2.499992370605469 91.79249572753906 2.499992370605469 C 97.85252380371094 2.499992370605469 103.9079742431641 3.110367298126221 109.7906951904297 4.314142227172852 C 115.5226211547852 5.487067222595215 121.1607437133789 7.237217426300049 126.5483932495117 9.516016960144043 C 131.8388214111328 11.75366687774658 136.9415893554688 14.52339267730713 141.7150421142578 17.74826812744141 C 146.4437713623047 20.94294166564941 150.8905487060547 24.61186790466309 154.9318237304688 28.65314292907715 C 158.9731140136719 32.69444274902344 162.6420440673828 37.14121627807617 165.8367156982422 41.86994171142578 C 169.0615997314453 46.64336776733398 171.8313140869141 51.74616622924805 174.0689697265625 57.03656768798828 C 176.3477783203125 62.42421722412109 178.0979156494141 68.06231689453125 179.2708435058594 73.79426574707031 C 180.4746246337891 79.67696380615234 181.0849914550781 85.73244476318359 181.0849914550781 91.79244232177734 C 181.0849914550781 97.85247039794922 180.4746246337891 103.9079208374023 179.2708435058594 109.790641784668 C 178.0979156494141 115.5225677490234 176.3477783203125 121.1606674194336 174.0689697265625 126.5483169555664 C 171.8313140869141 131.8387451171875 169.0615997314453 136.9415130615234 165.8367156982422 141.7149658203125 C 162.6420440673828 146.4436950683594 158.9731140136719 150.8904418945313 154.9318237304688 154.9317474365234 C 150.8905487060547 158.9730224609375 146.4437713623047 162.6419677734375 141.7150421142578 165.8366241455078 C 136.9415893554688 169.0614929199219 131.8388214111328 171.8312225341797 126.5483932495117 174.0688629150391 C 121.1607437133789 176.3476715087891 115.5226211547852 178.0978240966797 109.7906951904297 179.2707366943359 C 103.9079742431641 180.4745178222656 97.85252380371094 181.0848999023438 91.79249572753906 181.0848999023438 Z" stroke="none"/>
        <path d="M 91.79249572753906 5 C 85.90046691894531 5 80.01360321044922 5.593276977539063 74.29547119140625 6.763381958007813 C 68.7252197265625 7.903213500976563 63.24613189697266 9.604019165039063 58.01046752929688 11.81852722167969 C 52.86871337890625 13.99330139160156 47.90913391113281 16.68533325195313 43.26947021484375 19.81982421875 C 38.67257690429688 22.9254150390625 34.34971618652344 26.49214172363281 30.42091369628906 30.42091369628906 C 26.49214172363281 34.34968566894531 22.9254150390625 38.67257690429688 19.81982421875 43.26943969726563 C 16.68533325195313 47.90913391113281 13.99330139160156 52.86871337890625 11.81852722167969 58.01044464111328 C 9.604019165039063 63.24610900878906 7.903213500976563 68.72518920898438 6.763381958007813 74.29544067382813 C 5.593276977539063 80.01358032226563 5 85.90041351318359 5 91.79244232177734 C 5 97.68447113037109 5.593276977539063 103.5713043212891 6.763381958007813 109.2894439697266 C 7.903213500976563 114.8597183227539 9.604019165039063 120.3387756347656 11.81852722167969 125.5744476318359 C 13.99330139160156 130.7161865234375 16.68533325195313 135.67578125 19.81982421875 140.3154449462891 C 22.9254150390625 144.9123229980469 26.49214172363281 149.2351989746094 30.42091369628906 153.1639709472656 C 34.34971618652344 157.0927429199219 38.67257690429688 160.6594696044922 43.26947021484375 163.7650451660156 C 47.90913391113281 166.8995513916016 52.86871337890625 169.5915832519531 58.01046752929688 171.766357421875 C 63.24613189697266 173.9808654785156 68.7252197265625 175.6816711425781 74.29547119140625 176.8215026855469 C 80.01360321044922 177.9916076660156 85.90046691894531 178.5848846435547 91.79249572753906 178.5848846435547 C 97.68452453613281 178.5848846435547 103.5713577270508 177.9916076660156 109.2894973754883 176.8215026855469 C 114.8597717285156 175.6816711425781 120.3388290405273 173.9808654785156 125.5745239257813 171.766357421875 C 130.7162475585938 169.5915832519531 135.6758270263672 166.8995513916016 140.3155212402344 163.7650451660156 C 144.9124145507813 160.6594696044922 149.2352752685547 157.0927429199219 153.1640472412109 153.1639709472656 C 157.0928344726563 149.2351989746094 160.6595458984375 144.9123229980469 163.7651672363281 140.3154449462891 C 166.899658203125 135.67578125 169.5916900634766 130.7161865234375 171.7664642333984 125.5744476318359 C 173.9809722900391 120.3387756347656 175.6817779541016 114.8597183227539 176.8216094970703 109.2894439697266 C 177.9917144775391 103.5713043212891 178.5849914550781 97.68447113037109 178.5849914550781 91.79244232177734 C 178.5849914550781 85.90041351318359 177.9917144775391 80.01358032226563 176.8216094970703 74.29544067382813 C 175.6817779541016 68.72518920898438 173.9809722900391 63.24610900878906 171.7664642333984 58.01044464111328 C 169.5916900634766 52.86871337890625 166.899658203125 47.90913391113281 163.7651672363281 43.26943969726563 C 160.6595458984375 38.67257690429688 157.0928344726563 34.34968566894531 153.1640472412109 30.42091369628906 C 149.2352752685547 26.49214172363281 144.9124145507813 22.9254150390625 140.3155212402344 19.81982421875 C 135.6758270263672 16.68533325195313 130.7162475585938 13.99330139160156 125.5745239257813 11.81852722167969 C 120.3388290405273 9.604019165039063 114.8597717285156 7.903213500976563 109.2894973754883 6.763381958007813 C 103.5713577270508 5.593276977539063 97.68452453613281 5 91.79249572753906 5 M 91.79249572753906 0 C 142.4880828857422 0 183.5849914550781 41.09689331054688 183.5849914550781 91.79244232177734 C 183.5849914550781 142.4880218505859 142.4880828857422 183.5848846435547 91.79249572753906 183.5848846435547 C 41.09687805175781 183.5848846435547 0 142.4880218505859 0 91.79244232177734 C 0 41.09689331054688 41.09687805175781 0 91.79249572753906 0 Z" stroke="none" fill="#292929"/>
      </g>
      <g id="Elipse_11" data-name="Elipse 11" transform="translate(28.034 28.726)" fill="#fff" stroke="#292929" stroke-width="5">
        <ellipse cx="63.382" cy="63.382" rx="63.382" ry="63.382" stroke="none"/>
        <ellipse cx="63.382" cy="63.382" rx="60.882" ry="60.882" fill="none"/>
      </g>
    </g>
    <path id="Trazado_620" data-name="Trazado 620" d="M34.3-35.3h8.1a11.44,11.44,0,0,1,5.1.85,4.287,4.287,0,0,1,2.15,2.55,15.23,15.23,0,0,1,.55,4.55,16.668,16.668,0,0,1-.5,4.55A3.89,3.89,0,0,1,48-20.4a11.649,11.649,0,0,1-5.1.9H34.3v8.1a11.44,11.44,0,0,1-.85,5.1A4.287,4.287,0,0,1,30.9-4.15a15.23,15.23,0,0,1-4.55.55,15.23,15.23,0,0,1-4.55-.55A3.952,3.952,0,0,1,19.4-6a13.255,13.255,0,0,1-.9-5.5v-8H9.8A10.744,10.744,0,0,1,5-20.3a3.994,3.994,0,0,1-2-2.55,17,17,0,0,1-.5-4.55,15.537,15.537,0,0,1,.55-4.55A3.874,3.874,0,0,1,5-34.4a13.255,13.255,0,0,1,5.5-.9h8v-8.1a12.073,12.073,0,0,1,.8-5.1,4.107,4.107,0,0,1,2.55-2.15,15.537,15.537,0,0,1,4.55-.55,15.537,15.537,0,0,1,4.55.55A3.967,3.967,0,0,1,33.4-48.8a13.255,13.255,0,0,1,.9,5.5ZM74.5-70.8a7.883,7.883,0,0,1,5.65-2.6,17.619,17.619,0,0,1,4.75.5,8.708,8.708,0,0,1,2.6,1.15,4.183,4.183,0,0,1,1.4,2.15,20.415,20.415,0,0,1,.5,5.3V-8.6a29.051,29.051,0,0,1-.15,3.45A8.012,8.012,0,0,1,88.3-2.5Q86.9.2,80.5.2q-6.2,0-7.7-2.6a7.965,7.965,0,0,1-.95-2.75A33.048,33.048,0,0,1,71.7-8.8V-44.5l-1.3,1.2q-4.1,3.1-7,3.1t-6.05-3.5q-3.15-3.5-3.15-6.2t3.6-5.9L74.2-70.6Z" transform="translate(491 368.959)" fill="#a5eb78" stroke="#292929" stroke-width="5"/>
  </g>
</svg>
